<svg width="512" height="512" viewBox="0 0 512 512" fill="none" xmlns="http://www.w3.org/2000/svg">
<path d="M504.504 62.3438V460.488C504.504 465.496 500.441 469.555 495.434 469.555H16.5664C11.5586 469.555 7.49609 465.496 7.49609 460.488V62.332C7.49609 51.3789 16.3789 42.4961 27.332 42.4961H484.668C495.617 42.4961 504.504 51.3828 504.504 62.3438Z" fill="white"/>
<path d="M504.504 62.3438V133.277H7.5V62.3438C7.5 51.3828 16.3828 42.4961 27.3359 42.4961H484.668C495.617 42.4961 504.504 51.3828 504.504 62.3438Z" fill="#E4EAF8"/>
<path d="M504.5 117.41H7.5V62.3398C7.5 51.3828 16.3828 42.5 27.3398 42.5H484.66C495.617 42.5 504.5 51.3828 504.5 62.3398V117.41Z" fill="#5E72BF"/>
<path d="M413.012 268.223H252.379C246.145 268.223 241.09 263.168 241.09 256.934V234.609C241.09 228.375 246.145 223.32 252.379 223.32H413.012C419.246 223.32 424.301 228.375 424.301 234.609V256.934C424.301 263.168 419.246 268.223 413.012 268.223Z" fill="#ABFFDB"/>
<path d="M413.012 342.52H252.379C246.145 342.52 241.09 337.465 241.09 331.23V308.902C241.09 302.668 246.145 297.613 252.379 297.613H413.012C419.246 297.613 424.301 302.668 424.301 308.902V331.23C424.301 337.465 419.246 342.52 413.012 342.52Z" fill="#ABFFDB"/>
<path d="M54.3555 462.055H16.5664C15.7031 462.055 15 461.352 15 460.488V62.3398C15 55.5352 20.5352 50 27.3398 50H297.691C301.832 50 305.191 46.6445 305.191 42.5C305.191 38.3594 301.832 35 297.691 35H27.3398C12.2656 35 0 47.2656 0 62.3398V460.488C0 469.625 7.43359 477.055 16.5664 477.055H54.3555C58.5 477.055 61.8555 473.699 61.8555 469.555C61.8555 465.414 58.5 462.055 54.3555 462.055Z" fill="#474D54"/>
<path d="M484.66 35H328.309C324.168 35 320.809 38.3594 320.809 42.5C320.809 46.6406 324.168 50 328.309 50H484.66C491.465 50 497 55.5352 497 62.3398V460.488C497 461.352 496.297 462.055 495.434 462.055H84.9727C80.832 462.055 77.4727 465.414 77.4727 469.555C77.4727 473.695 80.832 477.055 84.9727 477.055H495.434C504.566 477.055 512 469.621 512 460.488V62.3398C512 47.2656 499.734 35 484.66 35V35Z" fill="#474D54"/>
<path d="M341.691 73.8398H74.1602C70.0195 73.8398 66.6602 77.1992 66.6602 81.3398C66.6602 85.4844 70.0195 88.8398 74.1602 88.8398H341.691C345.836 88.8398 349.195 85.4844 349.195 81.3398C349.195 77.1992 345.836 73.8398 341.691 73.8398Z" fill="white"/>
<path d="M377.965 88.1094C382.105 88.1094 385.465 84.75 385.465 80.6094V79.3047C385.465 75.1641 382.105 71.8047 377.965 71.8047C373.824 71.8047 370.465 75.1641 370.465 79.3047V80.6094C370.465 84.75 373.824 88.1094 377.965 88.1094Z" fill="#ABFFDB"/>
<path d="M415.402 80.6094V79.3047C415.402 75.1641 412.043 71.8047 407.902 71.8047C403.762 71.8047 400.402 75.1641 400.402 79.3047V80.6094C400.402 84.75 403.762 88.1094 407.902 88.1094C412.043 88.1094 415.402 84.75 415.402 80.6094Z" fill="#ABFFDB"/>
<path d="M445.34 80.6094V79.3047C445.34 75.1641 441.98 71.8047 437.84 71.8047C433.699 71.8047 430.34 75.1641 430.34 79.3047V80.6094C430.34 84.75 433.699 88.1094 437.84 88.1094C441.98 88.1094 445.34 84.75 445.34 80.6094Z" fill="#ABFFDB"/>
<path d="M113.051 296.195V232.547C113.051 222.621 120.754 214.156 130.672 213.781C141.102 213.391 149.707 221.758 149.707 232.098V296.195C149.707 300.336 153.066 303.695 157.207 303.695C161.352 303.695 164.707 300.336 164.707 296.195V232.762C164.707 214.113 149.449 198.457 130.805 198.773C112.691 199.082 98.0508 213.914 98.0508 232.098V296.195C98.0508 300.336 101.406 303.695 105.551 303.695C109.691 303.695 113.051 300.336 113.051 296.195Z" fill="#ABB0B7"/>
<path d="M251.398 188.227V186.922C251.398 182.781 248.039 179.422 243.898 179.422C239.754 179.422 236.398 182.781 236.398 186.922V188.227C236.398 192.367 239.754 195.727 243.898 195.727C248.039 195.727 251.398 192.367 251.398 188.227Z" fill="#ABB0B7"/>
<path d="M281.336 188.227V186.922C281.336 182.781 277.977 179.422 273.836 179.422C269.691 179.422 266.336 182.781 266.336 186.922V188.227C266.336 192.367 269.691 195.727 273.836 195.727C277.977 195.727 281.336 192.367 281.336 188.227Z" fill="#ABB0B7"/>
<path d="M311.273 188.227V186.922C311.273 182.781 307.914 179.422 303.773 179.422C299.633 179.422 296.273 182.781 296.273 186.922V188.227C296.273 192.367 299.633 195.727 303.773 195.727C307.914 195.727 311.273 192.367 311.273 188.227Z" fill="#ABB0B7"/>
<path d="M340.195 373.016C340.195 368.871 336.836 365.516 332.695 365.516H241.09C236.949 365.516 233.59 368.871 233.59 373.016C233.59 377.156 236.949 380.516 241.09 380.516H332.695C336.836 380.516 340.195 377.156 340.195 373.016Z" fill="#ABB0B7"/>
<path d="M241.09 389.828C236.949 389.828 233.59 393.184 233.59 397.328C233.59 401.469 236.949 404.828 241.09 404.828H265.781C269.922 404.828 273.281 401.469 273.281 397.328C273.281 393.184 269.922 389.828 265.781 389.828H241.09Z" fill="#ABB0B7"/>
<path d="M164.445 374.129H98.3164C92.4531 374.129 87.6992 369.375 87.6992 363.512V297.383C87.6992 291.52 92.4531 286.766 98.3164 286.766H164.445C170.309 286.766 175.062 291.52 175.062 297.383V363.512C175.062 369.375 170.309 374.129 164.445 374.129Z" fill="#5E72BF"/>
</svg>
