<svg width="442" height="468" viewBox="0 0 442 468" fill="none" xmlns="http://www.w3.org/2000/svg">
<path d="M8.32101 107.834L5.17002 102.699C5.17002 102.699 5.17002 101.124 5.17002 99.5482C5.17002 97.9727 4.78101 98.7507 8.32101 95.2107C11.8805 91.6512 11.8805 91.6512 11.8805 91.6512L28.4523 69.147C31.6033 61.6391 35.5518 60.0636 35.5518 60.0636H38.3137L48.5836 54.9286C51.3456 52.9641 57.667 43.4723 57.667 43.4723V39.9128V37.9483C57.667 37.9483 58.8535 30.4404 64.3775 27.2894C69.9014 24.1384 71.4769 25.3249 76.2228 20.19C80.9688 15.055 81.3578 8.34459 82.9333 7.15811C84.5088 5.97162 94.3897 11.4956 94.3897 11.4956L100.303 12.293L106.624 12.6821C106.624 12.6821 110.183 11.1066 114.91 9.12261C119.656 7.15811 118.858 11.1649 122.807 6.98305C126.755 2.80118 131.501 2.80118 133.466 2.80118C135.43 2.80118 136.617 3.98767 145.311 2.80118C154.006 1.6147 151.633 5.17415 157.546 2.80118C163.459 0.428219 170.577 2.54833 170.577 2.54833C170.577 2.54833 175.323 -0.369253 178.474 0.0392086C181.625 0.428219 182.812 14.6466 182.812 14.6466L180.847 18.206L178.474 18.595C178.474 18.595 179.661 19.7815 182.812 22.5435C185.963 25.3055 195.046 26.881 195.046 26.881C195.046 26.881 206.503 27.6784 209.654 29.6429C212.805 31.6074 212.805 31.6074 212.805 31.6074L218.328 39.8934C218.328 39.8934 220.293 37.9289 224.241 39.0959C228.19 40.2824 234.511 43.8418 234.511 43.8418C234.511 43.8418 236.476 45.0283 238.46 41.0798C240.424 37.1314 242.797 28.8455 242.797 28.8455L247.135 28.4564C247.135 28.4564 252.27 25.3055 254.234 26.0835C256.199 26.881 261.742 30.8294 262.929 33.1829C264.115 35.5559 272.79 35.5559 272.79 35.5559C272.79 35.5559 282.262 35.5559 288.584 39.1153C294.905 42.6748 299.632 41.8773 299.632 41.8773L303.191 37.9289C303.191 37.9289 305.156 34.7779 308.326 35.1669C311.477 35.5559 316.612 46.2148 317.41 47.4013C318.207 48.5878 317.41 52.1472 317.41 52.1472C317.41 52.1472 322.155 61.2306 323.323 62.8061C324.509 64.3816 332.406 77.0244 332.406 77.0244L335.168 82.5484L337.541 92.4098L347.441 98.7507C347.441 98.7507 347.441 116.917 351.779 120.068C351.779 120.068 358.489 120.457 360.862 128.763C363.235 137.049 365.997 139.033 369.148 140.997C372.299 142.962 387.315 154.807 389.668 159.553C392.041 164.299 388.482 163.891 389.668 167.839C390.855 171.787 390.855 171.787 390.855 171.787C390.855 171.787 399.141 175.736 401.125 174.16C403.089 172.585 403.089 172.585 403.089 172.585C403.089 172.585 407.038 171.398 410.189 172.196C413.34 172.993 416.899 171.009 416.899 171.009L420.848 169.045C420.848 169.045 427.169 172.196 430.32 169.045C433.471 165.894 435.455 164.707 435.455 164.707L440.59 166.672C440.59 166.672 442.554 167.411 440.59 174.549C438.625 181.688 438.625 181.668 438.625 181.668C438.625 181.668 437.439 189.954 432.304 196.665C427.169 203.375 422.034 210.475 422.443 212.848C422.832 215.221 422.832 215.221 422.832 215.221L418.494 221.931V226.424H405.462L395.192 234.165L377.823 255.483H375.858L372.707 257.856L370.743 259.043C370.743 259.043 366.794 266.142 364.033 270.09C361.271 274.039 360.882 276.003 360.882 276.003C360.882 276.003 365.219 285.865 366.405 288.627C367.592 291.389 367.592 291.389 367.592 291.389C367.592 291.389 364.83 292.575 365.627 296.135C366.425 299.694 372.727 315.877 372.727 315.877C372.727 315.877 371.929 321.401 372.727 332.449C373.524 343.497 370.762 345.072 365.627 348.243C360.493 351.413 358.917 352.191 357.731 352.191C356.544 352.191 351.818 356.937 348.258 358.513C344.699 360.088 339.175 366.021 339.175 366.021C339.175 366.021 338.786 367.985 337.21 368.394C335.635 368.783 334.837 383.39 335.635 385.374C336.432 387.338 336.024 399.981 336.024 399.981L332.075 403.93L322.214 406.303L318.265 409.065C318.265 409.065 317.468 414.978 317.468 419.335C317.468 423.672 302.861 437.501 302.861 437.501V439.466L292.999 452.089L283.527 458.411C283.527 458.411 280.376 460.784 278.781 461.562C277.205 462.359 268.511 461.562 268.511 461.562L245.618 464.713C244.82 467.475 235.756 467.086 235.756 467.086C235.756 467.086 228.248 458.002 228.248 454.462C228.248 450.922 228.248 450.903 228.248 450.903L228.637 448.141C228.637 448.141 223.502 445.768 220.74 437.482C217.978 429.196 217.978 429.196 217.978 429.196L216.403 426.823C213.641 425.636 211.657 424.858 209.692 424.061C207.728 423.264 208.506 426.025 207.728 423.263C206.93 420.502 203.779 416.164 205.355 409.454C206.93 402.743 206.93 402.743 206.93 402.743L205.355 388.933C205.355 388.933 206.152 388.544 204.558 385.782C202.982 383.02 201.796 380.647 201.796 380.647L197.458 378.274L196.272 369.988C196.272 369.988 194.696 369.191 191.137 363.667C187.577 358.143 188.375 345.5 188.375 345.5C188.375 345.5 188.375 335.23 188.764 332.079C189.153 328.928 191.526 326.555 195.085 323.385C198.645 320.234 200.998 317.472 199.423 313.115C197.847 308.778 197.05 306.405 197.05 306.405C197.05 306.405 194.677 306.794 195.085 301.659C195.494 296.524 195.474 296.524 195.474 296.524C195.474 296.524 198.236 292.186 193.101 285.476C187.966 278.765 171.394 250.348 171.394 250.348C171.394 250.348 169.43 247.975 171.005 244.027C172.581 240.078 171.803 241.265 173.767 229.419C175.732 217.574 175.732 215.999 169.43 212.848C163.108 209.697 163.108 209.697 163.108 209.697H158.771L156.398 210.494L148.89 214.443L146.926 213.256L145.739 211.292C145.739 211.292 144.164 206.546 139.826 201.022C135.489 195.498 126.405 197.462 124.83 197.462C123.254 197.462 112.595 203.375 112.595 203.375L110.631 204.562C110.631 204.562 103.123 208.899 101.547 208.899C99.972 208.899 99.972 208.899 99.972 208.899C99.972 208.899 95.6345 214.423 92.4641 212.05C89.3131 209.677 82.6026 208.491 82.6026 208.491C82.6026 208.491 87.7376 208.491 78.6542 208.491C69.5708 208.491 65.2333 212.05 65.2333 212.05L57.7254 212.439L51.404 210.066L48.642 207.693C48.642 207.693 45.0825 205.32 43.507 203.356C41.9315 201.391 39.5586 199.018 39.5586 199.018L32.0507 194.681C32.0507 194.681 27.7132 193.105 25.7292 190.343C23.7647 187.581 28.1022 183.633 22.9673 179.684C17.8323 175.736 10.7329 169.415 10.7329 169.415C10.7329 169.415 7.95145 164.669 5.18947 160.72C2.44694 156.772 5.18947 152.026 5.18947 152.026C5.18947 152.026 -0.723494 147.688 0.0739781 142.942C0.87145 138.196 3.22496 135.843 3.22496 135.843C3.22496 135.843 2.42749 137.807 6.37595 133.878C10.3244 129.93 12.6974 128.354 10.3244 122.033C7.91254 115.731 8.32101 107.834 8.32101 107.834Z" fill="black" fill-opacity="0.2"/>
<path d="M106.624 12.6819V24.1383H110.184C110.184 24.1383 112.148 30.0512 110.184 30.0512C108.219 30.0512 108.219 30.0512 108.219 30.0512L103.454 32.0352L98.7077 35.5946H94.3703V38.7456C94.3703 38.7456 91.6083 41.8966 90.4218 41.8966C89.2353 41.8966 89.2353 41.8966 89.2353 41.8966H86.4733C86.4733 41.8966 84.1004 44.2696 84.1004 45.456C84.1004 46.6425 70.6795 50.202 70.6795 50.202L62.7826 53.353V72.6868H40.2978V92.0401H30.0279V100.734H5.15063" stroke="black" stroke-opacity="0.1" stroke-miterlimit="10"/>
<path d="M268.55 35.3221V97.9723H321.377L325.715 100.734H327.679C327.679 100.734 332.814 97.9723 332.814 95.9884C332.814 94.0239 337.56 92.4289 337.56 92.4289" stroke="black" stroke-opacity="0.1" stroke-miterlimit="10"/>
<path d="M272.031 97.953C273.218 97.953 272.031 110.187 272.031 110.187H265.71V139.791C265.71 139.791 258.611 137.418 258.611 139.791C258.611 142.164 254.273 148.875 254.273 148.875V157.569V164.668L258.222 170.581L263.415 175.327V179.276V182.038L265.71 187.173L275.571 191.121L285.044 201.78C285.044 201.78 288.195 203.744 287.806 204.931C287.417 206.117 290.568 212.828 290.568 212.828L294.905 215.59L302.413 211.252L308.326 215.59C308.326 215.59 307.937 216.776 311.088 218.352C314.239 219.927 322.933 218.352 322.933 218.352C322.933 218.352 329.644 219.927 331.628 215.59C333.612 211.252 341.1 210.455 341.1 210.455C341.1 210.455 344.251 211.641 348.608 212.828C352.946 214.014 356.894 219.052 356.894 219.052C356.894 219.052 363.605 217.788 365.978 219.052C368.35 220.316 374.263 214.403 374.263 214.403L378.601 213.217L382.549 213.606L393.208 212.419L404.665 208.471L412.328 199.388L418.494 192.677L422.442 189.915C422.442 189.915 413.281 188.729 412.328 188.34C411.375 187.951 406.26 185.967 404.665 185.189C403.089 184.391 398.752 182.816 398.752 182.816L388.929 171.768L386.128 170.192H382.569L379.807 165.057C382.18 161.906 375.858 152.434 375.858 152.434L353.354 148.875L350.981 150.45L345.068 148.875L343.882 144.129C343.882 144.129 348.628 135.045 348.628 133.081C348.628 131.116 359.403 125.281 359.403 125.281" stroke="black" stroke-opacity="0.1" stroke-miterlimit="10"/>
<path d="M38.3137 60.0632H62.7825L73.0524 69.9247L76.6118 74.6706C76.6118 74.6706 77.7983 75.0596 82.5248 77.4326C87.2707 79.8055 113.704 97.9529 113.704 97.9529C113.704 97.9529 117.652 101.901 118.839 103.866C120.025 105.83 120.803 108.203 120.803 108.203L131.851 113.338V117.676H141.713L148.034 114.525L158.304 108.612L180.808 93.207L187.13 90.834L189.094 88.8695H193.043C193.043 88.8695 200.94 93.2069 202.904 93.6154C204.869 94.0044 209.615 92.4289 209.615 92.4289C209.615 92.4289 211.579 87.683 215.139 88.8695C218.698 90.056 231.71 94.7824 231.71 94.7824L234.861 100.695C234.861 100.695 238.421 100.306 239.607 100.695C240.794 101.084 246.707 103.068 246.707 103.068L252.231 109.39L257.755 110.187L260.906 107.814L265.652 110.187V111.763" stroke="black" stroke-opacity="0.1" stroke-miterlimit="10"/>
<path d="M170.577 2.56775V9.53104C170.577 9.53104 171.764 10.3285 170.577 12.682C169.391 15.055 165.832 17.817 165.832 17.817V20.1899C165.832 20.1899 166.357 25.7139 168.457 28.0869C170.558 30.4598 172.931 35.3225 172.931 35.3225L174.506 38.3567C174.506 38.3567 170.947 41.5077 174.506 43.1027C178.066 44.6782 178.066 44.6782 178.066 44.6782C178.066 44.6782 180.828 47.8292 180.828 41.5272C180.828 35.2252 179.252 34.8167 182.792 33.2413C186.352 31.6658 190.106 25.7917 190.106 25.7917" stroke="black" stroke-opacity="0.1" stroke-miterlimit="10"/>
<path d="M174.526 43.0829V69.5356C174.526 69.5356 171.375 72.6866 174.526 76.2461C177.677 79.8055 178.474 79.8055 180.05 80.992C181.625 82.1785 189.133 80.603 189.133 88.8889" stroke="black" stroke-opacity="0.1" stroke-miterlimit="10"/>
<path d="M6.33716 133.878H23.3175C23.3175 133.878 27.2659 145.724 31.2144 145.724C35.1629 145.724 38.3139 139.811 38.3139 139.811C38.3139 139.811 40.2783 137.846 43.0598 139.811C45.8218 141.775 75.8339 139.811 75.8339 139.811V78.6193H84.6256" stroke="black" stroke-opacity="0.1" stroke-miterlimit="10"/>
<path d="M31.2144 145.723L34.7738 152.434L38.3332 155.993C38.3332 155.993 37.9442 158.366 38.3332 160.331C38.7223 162.295 53.3296 160.331 53.3296 160.331C53.3296 160.331 59.3398 166.244 58.1145 167.43C56.8891 168.617 56.5001 171.379 56.5001 171.379C56.5001 171.379 56.5973 172.565 58.1145 174.141C59.651 175.716 74.6474 174.141 74.6474 174.141L81.7469 179.276C81.7469 179.276 91.6083 183.613 91.6083 179.276C91.6083 174.938 86.4733 170.99 91.6083 169.803C96.7432 168.617 98.7077 168.228 98.7077 168.228L106.605 170.192L117.264 169.803L123.177 165.057L127.125 163.462C127.125 163.462 132.26 166.594 133.446 163.462C134.633 160.331 142.919 154.398 142.919 154.398L147.256 150.45L152.002 150.839V153.212C152.002 153.212 157.137 155.974 158.324 155.974C159.51 155.974 161.475 154.398 163.459 154.398C165.423 154.398 167.796 156.771 167.796 156.771L182.792 154.009L189.114 155.974C189.114 155.974 201.348 153.601 202.924 155.176C204.499 156.752 207.67 163.443 207.67 163.443L210.821 175.308L203.721 176.105L204.519 181.201C204.519 181.201 206.094 183.613 206.094 185.597C206.094 187.562 210.84 191.918 210.84 191.918C210.84 191.918 212.416 192.716 217.94 191.918C223.463 191.121 232.547 187.581 232.547 187.581C232.547 187.581 235.698 182.057 236.884 182.446C238.071 182.835 238.071 182.835 238.071 182.835L244.392 180.871L257.152 169.006" stroke="black" stroke-opacity="0.1" stroke-miterlimit="10"/>
<path d="M141.752 117.695V140.2H125.569C125.569 140.2 124.382 146.521 122.807 145.724C121.231 144.926 121.231 144.926 121.231 144.926L109.386 145.724H101.878L94.3702 154.807L77.3899 161.128L74.6279 174.16" stroke="black" stroke-opacity="0.1" stroke-miterlimit="10"/>
<path d="M109.386 145.723C109.386 145.723 110.572 150.858 114.132 151.636C117.691 152.434 119.656 158.444 120.842 158.6C122.029 158.755 127.164 163.462 127.164 163.462" stroke="black" stroke-opacity="0.1" stroke-miterlimit="10"/>
<path d="M209.654 92.4288C209.654 92.4288 206.094 99.5283 209.654 103.088C213.213 106.647 213.213 106.647 213.213 106.647C213.213 106.647 214.4 107.445 213.213 112.171C212.027 116.917 211.365 119.271 210.918 123.628C210.451 127.965 208.876 132.711 208.098 133.897C207.3 135.084 203.352 137.457 201.776 140.608C200.201 143.759 198.625 140.219 198.625 145.743C198.625 151.267 202.963 155.215 202.963 155.215" stroke="black" stroke-opacity="0.1" stroke-miterlimit="10"/>
<path d="M206.172 158.6C206.172 158.6 206.114 168.189 203.741 168.987C201.368 169.784 200.59 165.855 198.606 171.768C196.641 177.681 197.808 179.665 194.268 181.24C190.709 182.816 189.133 185.189 189.133 185.189V188.748V195.07L187.169 197.832C187.169 197.832 182.598 199.407 181.139 197.832C179.68 196.256 177.696 199.232 175.712 198.532C173.748 197.832 173.125 198.649 173.125 198.649C173.125 198.649 167.426 201.391 167.037 203.764C166.648 206.137 166.648 206.137 166.648 206.137V211.467" stroke="black" stroke-opacity="0.1" stroke-miterlimit="10"/>
<path d="M133.466 163.463L135.041 174.141C135.041 174.141 131.89 178.089 130.704 182.427C129.517 186.764 128.739 197.112 128.739 197.112" stroke="black" stroke-opacity="0.1" stroke-miterlimit="10"/>
<path d="M117.283 169.804C117.283 169.804 113.723 173.752 117.283 176.125C120.842 178.498 118.275 185.033 118.275 185.033L119.17 199.855" stroke="black" stroke-opacity="0.1" stroke-miterlimit="10"/>
<path d="M109.386 170.095C109.386 170.095 109.172 169.414 111.059 174.141C112.945 178.887 109.561 182.855 111.059 184.819C112.556 186.784 114.132 190.635 114.132 192.269C114.132 193.883 114.132 197.131 114.132 197.131L115.707 201.663" stroke="black" stroke-opacity="0.1" stroke-miterlimit="10"/>
<path d="M91.6083 179.276C91.6083 179.276 94.7593 180.579 94.3702 185.85C93.9812 191.121 93.5728 193.086 91.6083 195.069C89.6438 197.034 88.4573 199.835 88.4573 199.835C88.4573 199.835 92.0362 201.78 91.4332 203.355C90.8302 204.931 94.4091 212.614 94.4091 212.614" stroke="black" stroke-opacity="0.1" stroke-miterlimit="10"/>
<path d="M60.04 174.16V184.839V189.954L58.1144 192.288C58.1144 192.288 55.7025 192.911 56.0915 195.984C56.4805 199.057 60.429 199.971 61.6155 201.683C62.802 203.395 61.6155 212.264 61.6155 212.264" stroke="black" stroke-opacity="0.1" stroke-miterlimit="10"/>
<path d="M24.9124 181.882L29.2498 177.72C29.2498 177.72 31.6228 173.382 33.1983 174.16C34.7738 174.958 38.3332 174.16 38.3332 174.16C38.3332 174.16 41.4842 178.945 42.2817 180.307C43.0792 181.668 40.3172 191.043 40.3172 192.269C40.3172 193.494 36.252 197.131 36.252 197.131" stroke="black" stroke-opacity="0.1" stroke-miterlimit="10"/>
<path d="M41.6786 185.85H47.3971L48.9725 187.97V192.269H58.0949" stroke="black" stroke-opacity="0.1" stroke-miterlimit="10"/>
<path d="M4.0614 155.196L9.89656 152.823C9.89656 152.823 13.0476 148.875 14.6425 149.672C16.218 150.47 16.218 150.47 16.218 150.47L22.131 152.395C22.131 152.395 24.5234 155.702 24.8929 158.619C25.2819 161.537 38.3138 160.35 38.3138 160.35" stroke="black" stroke-opacity="0.1" stroke-miterlimit="10"/>
<path d="M24.9123 158.6C24.9123 158.6 21.8391 162.257 21.1973 163.463C20.5554 164.669 15.4399 165.855 15.4399 165.855L10.694 169.414" stroke="black" stroke-opacity="0.1" stroke-miterlimit="10"/>
<path d="M288.759 208.588C288.759 208.588 283.468 209.871 279.928 208.588C276.369 207.304 262.948 205.865 260.983 209.152C259.019 212.439 260.419 217.963 257.152 217.165C253.884 216.368 245.987 213.197 244.801 212.614C243.614 212.03 237.293 209.268 235.717 209.657C234.142 210.046 232.566 211.427 232.566 211.427L230.193 212.594C230.193 212.594 228.618 223.779 228.618 226.385C228.618 228.991 226.595 229.789 226.595 229.789C226.595 229.789 224.261 232.162 224.669 235.702C225.058 239.261 224.63 240.837 224.63 240.837V245.972C221.907 248.345 218.367 251.496 218.367 251.496V254.647L213.232 269.643C210.859 271.218 203.76 273.202 203.76 273.202L200.609 269.254H198.236L196.272 268.456H193.121L190.748 268.845L185.107 273.183" stroke="black" stroke-opacity="0.1" stroke-miterlimit="10"/>
<path d="M311.107 218.371C311.107 218.371 311.905 230.586 309.532 233.562C307.159 236.538 307.159 236.538 304.397 238.502C301.635 240.467 302.433 248.364 302.433 248.364L302.335 251.126C302.335 251.126 298.095 251.923 298.095 255.872C298.095 259.82 298.095 269.682 298.095 269.682L304.669 285.475V290.221C304.669 290.221 305.992 291.019 307.957 292.594C309.921 294.17 319.413 299.305 319.413 299.305L325.326 303.642V315.877L320.191 334.821H317.818L307.957 337.992C307.957 337.992 301.635 341.143 303.211 342.329C304.786 343.516 309.921 346.667 309.921 346.667L320.58 351.004C320.58 351.004 323.342 371.933 321.766 373.898C320.191 375.862 315.853 384.557 315.853 384.557L311.71 386.521L313.889 401.926C313.889 401.926 310.738 409.434 311.71 411.787C312.683 414.141 311.71 417.7 311.71 417.7H317.468" stroke="black" stroke-opacity="0.1" stroke-miterlimit="10"/>
<path d="M188.842 279.232C188.842 279.232 195.844 278.123 198.217 279.232C200.59 280.34 201.893 280.729 206.172 280.729C210.451 280.729 215.178 276.723 217.551 278.726C219.924 280.729 220.721 283.491 220.721 283.491C220.721 283.491 216.773 288.626 220.721 290.591C224.669 292.555 227.023 294.928 229.785 293.353C232.547 291.777 232.547 290.202 234.122 289.015C235.698 287.829 245.17 289.404 245.17 289.404H251.083V303.623C251.083 303.623 253.048 305.996 254.234 307.571C255.421 309.147 257.113 313.484 257.113 313.484H264.893C264.893 313.484 270.417 314.671 273.179 315.449C275.941 316.246 281.076 320 281.076 320H288.72C288.72 320 290.548 323.754 292.513 325.329C294.477 326.905 298.037 327.702 298.037 327.702L303.95 325.329V322.178L299.612 320.019L298.037 318.036C298.037 318.036 295.664 321.789 295.664 318.036C295.664 314.282 295.275 318.619 295.664 314.282C296.053 309.944 298.037 307.182 298.037 307.182C298.037 307.182 299.612 303.623 298.037 300.083C296.461 296.523 300.41 295.337 301.596 295.337C302.783 295.337 307.918 292.575 307.918 292.575" stroke="black" stroke-opacity="0.1" stroke-miterlimit="10"/>
<path d="M210.84 191.919L206.172 199.855V207.148L208.506 216.796L213.213 219.247L217.161 222.32L220.721 219.247L229.415 218.371" stroke="black" stroke-opacity="0.1" stroke-miterlimit="10"/>
<path d="M217.161 222.32V231.792H210.062L206.172 227.046L201.757 226.424C201.757 226.424 200.57 226.19 199.384 226.424C198.197 226.657 194.638 227.046 194.638 227.046L185.049 226.424L183.57 233.562H173.048" stroke="black" stroke-opacity="0.1" stroke-miterlimit="10"/>
<path d="M196.991 226.774L195.124 230.995L196.991 233.543C196.991 233.543 200.979 230.567 203.352 233.543C205.725 236.519 199.248 240.175 199.248 240.175L199.5 242.043C199.5 242.043 201.64 244.805 203.877 246.789C206.114 248.753 205.18 254.685 203.877 255.872C202.574 257.058 200.201 259.023 196.641 255.872C193.082 252.721 192.304 258.498 191.117 257.584C189.931 256.669 186.955 252.332 185.088 255.483C183.22 258.634 186.41 262.991 186.41 262.991L180.4 265.558" stroke="black" stroke-opacity="0.1" stroke-miterlimit="10"/>
<path d="M264.932 313.504V325.738H252.308V347.853L261.392 354.175L262.578 358.123C262.578 358.123 266.916 356.548 269.289 356.159C271.662 355.77 278.761 358.123 278.761 358.123C278.761 358.123 280.337 362.072 284.285 358.123C288.234 354.175 289.031 351.802 291.793 349.837C294.555 347.873 303.249 342.329 303.249 342.329" stroke="black" stroke-opacity="0.1" stroke-miterlimit="10"/>
<path d="M216.364 426.803C216.364 426.803 217.161 427.601 220.721 426.803C224.261 426.006 227.431 428.768 229.007 429.176C230.582 429.565 234.142 429.176 234.142 429.176L236.923 426.667C236.923 426.667 240.055 421.668 238.868 417.72C237.682 413.771 238.615 392.064 239.14 390.081C239.666 388.116 241.63 384.946 244.003 384.168C246.376 383.37 245.968 375.882 245.968 375.882L245.987 359.874H254.254L262.539 358.123" stroke="black" stroke-opacity="0.1" stroke-miterlimit="10"/>
<path d="M188.842 354.564C188.842 354.564 191.331 352.599 192.809 351.802C194.268 351.005 202.963 354.564 202.963 354.564C202.963 354.564 211.657 356.528 216.384 356.139C221.11 355.75 223.891 356.198 223.891 356.198C223.891 356.198 223.794 355.692 226.615 353.942C229.415 352.191 234.161 356.198 234.161 356.198V359.874H246.026" stroke="black" stroke-opacity="0.1" stroke-miterlimit="10"/>
<path d="M281.115 359.874C281.115 359.874 275.202 364.834 281.115 368.782C287.028 372.731 288.525 375.104 288.759 377.866C289.012 380.628 296.111 384.187 296.111 384.187C296.111 384.187 296.909 385.373 298.076 386.56C299.262 387.746 311.691 386.56 311.691 386.56" stroke="black" stroke-opacity="0.1" stroke-miterlimit="10"/>
<path d="M298.095 386.541L289.401 391.287H286.639C286.639 391.287 282.69 393.251 282.69 396.033C282.69 398.814 275.98 403.541 275.98 403.541C275.98 403.541 273.607 410.64 272.421 410.64C271.234 410.64 264.913 407.081 264.913 407.081L257.813 408.656L252.289 414.569H243.595V404.708H238.324" stroke="black" stroke-opacity="0.1" stroke-miterlimit="10"/>
<path d="M382.569 213.625L380.605 222.32C380.605 222.32 375.47 226.19 375.47 226.424C375.47 226.657 375.47 230.606 375.47 230.606C375.47 230.606 374.283 237.549 375.47 240.195C376.656 242.84 377.843 255.483 377.843 255.483" stroke="black" stroke-opacity="0.1" stroke-miterlimit="10"/>
<path d="M331.647 215.609L335.596 219.247V233.562L333.631 234.554C333.631 234.554 331.667 237.55 331.667 240.195C331.667 242.84 331.667 242.84 331.667 242.84C331.667 242.84 332.056 247.975 333.631 250.348C335.207 252.721 340.731 250.348 340.731 250.348C340.731 250.348 351.001 258.245 351.001 260.21C351.001 262.174 352.576 261.007 355.338 263.769C358.1 266.531 364.032 270.09 364.032 270.09" stroke="black" stroke-opacity="0.1" stroke-miterlimit="10"/>
<path d="M320.191 334.822L331.647 336.689C331.647 336.689 330.461 343.108 331.647 344.294C332.834 345.481 333.223 347.854 334.798 348.632C336.374 349.429 341.898 346.259 341.898 346.259L343.473 341.727V339.159L341.898 336.689L338.338 332.06C338.338 332.06 335.965 327.314 335.187 325.738C334.39 324.163 334.001 322.587 335.187 320.02C336.374 317.452 343.473 316.266 343.473 316.266H350.981H357.692C357.692 316.266 362.029 313.504 362.438 313.504C362.827 313.504 364.013 313.504 364.013 313.504L371.035 311.559" stroke="black" stroke-opacity="0.1" stroke-miterlimit="10"/>
<path d="M302.316 251.126H307.957L309.921 249.161V246.166H315.464H332.134" stroke="black" stroke-opacity="0.1" stroke-miterlimit="10"/>
<path d="M309.921 246.166C309.921 246.166 310.31 253.518 311.691 258.245C313.072 262.971 307.937 267.328 307.937 267.328H305.973L302.316 270.09V273.241L300.643 275.847" stroke="black" stroke-opacity="0.1" stroke-miterlimit="10"/>
<path d="M287.028 441.41C287.028 441.41 277.944 437.851 281.115 435.089C284.285 432.327 285.063 433.514 287.028 431.141C288.992 428.768 285.841 426.395 289.401 426.395C292.96 426.395 298.484 427.542 298.095 429.332C297.706 431.121 295.1 438.24 295.1 438.24L291.385 441.391H287.028V441.41Z" stroke="black" stroke-opacity="0.1" stroke-miterlimit="10"/>
<path d="M174.156 226.774L185.068 226.424" stroke="black" stroke-opacity="0.1" stroke-miterlimit="10"/>
<path d="M379.807 165.077L384.553 161.128L389.668 159.553" stroke="black" stroke-opacity="0.1" stroke-miterlimit="10"/>
<path d="M345.068 148.894V155.216L342.734 158.619C342.734 158.619 339.253 161.323 337.58 163.482C335.888 165.641 337.58 174.063 337.58 174.063H331.667C331.667 174.063 332.698 177.603 331.667 180.307C330.636 183.01 325.851 182.407 324.82 185.87C323.789 189.332 329.527 192.872 331.667 193.202C333.806 193.533 337.58 201.663 337.58 201.663L345.088 211.467" stroke="black" stroke-opacity="0.1" stroke-miterlimit="10"/>
</svg>
