<svg xmlns="http://www.w3.org/2000/svg" height="512pt" viewBox="0 0 512 512.001" width="512pt"><path d="m256 390c73.886719 0 134-60.113281 134-134s-60.113281-134-134-134-134 60.113281-134 134 60.113281 134 134 134zm7.5-144.085938 82-39.175781v105.691407l-82 39.175781zm-7.5-13.039062-79.601562-38.03125 79.601562-38.03125 79.601562 38.03125zm-97 42.394531c4.140625 0 7.5-3.355469 7.5-7.5v-61.03125l82 39.175781v105.691407l-82-39.175781v-9.3125c0-4.140626-3.359375-7.5-7.5-7.5s-7.5 3.359374-7.5 7.5v9.765624c-9.242188-16.910156-14.5-36.292968-14.5-56.882812s5.257812-39.972656 14.5-56.882812v68.652343c0 4.140625 3.359375 7.5 7.5 7.5zm97 99.730469c-39.5625 0-74.671875-19.410156-96.320312-49.207031l93.085937 44.472656c.035156.019531.074219.027344.105469.042969.085937.042968.175781.074218.261718.109375.214844.089843.433594.167969.652344.238281.105469.03125.207032.058594.3125.085938.222656.058593.441406.105468.667969.140624.09375.015626.1875.039063.285156.050782.316407.039062.632813.0625.949219.0625.320312 0 .636719-.023438.953125-.0625.09375-.011719.1875-.035156.28125-.046875.226563-.039063.445313-.085938.667969-.144531.105468-.027344.207031-.054688.308594-.085938.222656-.070312.441406-.148438.65625-.242188.085937-.035156.171874-.066406.257812-.105468.035156-.015625.074219-.027344.109375-.042969l93.085937-44.472656c-21.648437 29.796875-56.757812 49.207031-96.320312 49.207031zm104.5-62.117188v-113.765624c9.242188 16.910156 14.5 36.292968 14.5 56.882812s-5.257812 39.972656-14.5 56.882812zm-104.5-175.882812c39.5625 0 74.671875 19.410156 96.320312 49.207031l-93.085937-44.476562c-2.046875-.976563-4.421875-.976563-6.46875 0l-93.085937 44.476562c21.648437-29.796875 56.757812-49.207031 96.320312-49.207031zm0 0" style="&#10;    fill: #fff;&#10;"/><path d="m509.804688 65-18.550782-18.550781v-38.949219c0-4.144531-3.355468-7.5-7.5-7.5-4.140625 0-7.5 3.355469-7.5 7.5v42.058594c0 1.988281.792969 3.894531 2.199219 5.304687l18.546875 18.546875v135.433594l-39.65625 39.65625h-37.523438c-1.21875-26.964844-8.976562-52.257812-21.726562-74.316406l32.28125-32.28125c1.40625-1.40625 2.195312-3.3125 2.195312-5.304688v-93.832031c0-4.144531-3.359374-7.5-7.5-7.5-4.140624 0-7.5 3.355469-7.5 7.5v90.726563l-27.773437 27.773437c-3.871094-5.453125-8.070313-10.664063-12.5625-15.59375v-62.828125c0-1.988281-.789063-3.894531-2.195313-5.304688l-26.507812-26.507812v-25.40625c0-4.144531-3.359375-7.5-7.5-7.5s-7.5 3.355469-7.5 7.5v28.515625c0 1.988281.789062 3.894531 2.195312 5.304687l26.507813 26.503907v45.21875c-26.859375-22.894531-61.167969-37.289063-98.734375-38.988281v-48.46875c8.730469-3.097657 15-11.433594 15-21.210938 0-12.40625-10.09375-22.5-22.5-22.5s-22.5 10.09375-22.5 22.5c0 9.777344 6.273438 18.113281 15 21.210938v48.464843c-20.382812.914063-40.183594 5.554688-58.605469 13.683594v-26.503906c0-1.988281-.789062-3.894531-2.195312-5.304688l-22.078125-22.074219v-26.351562c0-4.144531-3.355469-7.5-7.5-7.5-4.140625 0-7.5 3.355469-7.5 7.5v29.460938c0 1.988281.792968 3.894531 2.199218 5.300781l22.074219 22.074219v30.96875c-4.21875 2.410156-8.347656 5.007812-12.375 7.804687-3.398437 2.363281-4.242187 7.035156-1.878906 10.4375 2.367187 3.402344 7.039063 4.242187 10.441406 1.878906 4.753907-3.304687 9.667969-6.308593 14.71875-9.015625.074219-.035156.152344-.074218.226563-.113281 21.4375-11.433594 45.3125-17.421875 69.972656-17.421875 97.574219 0 169.421875 92.941406 143.898438 187.816406-1.078126 3.996094 1.292968 8.113282 5.292968 9.1875.652344.175782 1.304688.261719 1.953125.261719 3.308594 0 6.335938-2.207031 7.234375-5.554687 3.085938-11.460938 4.890625-23.273438 5.429688-35.210938h40.640625c1.988281 0 3.894531-.789062 5.300781-2.195312l44.050781-44.050782c1.410157-1.410156 2.199219-3.316406 2.199219-5.304687v-141.644531c0-1.992188-.789062-3.898438-2.195312-5.304688zm-253.804688-50c4.136719 0 7.5 3.363281 7.5 7.5s-3.363281 7.5-7.5 7.5-7.5-3.363281-7.5-7.5 3.363281-7.5 7.5-7.5zm0 0" style="&#10;    fill: #fff;&#10;"/><path d="m431.71875 429.5v-57.417969c0-1.988281-.789062-3.898437-2.195312-5.304687l-30.503907-30.5c1.164063-2.074219 2.304688-4.164063 3.378907-6.289063 1.871093-3.695312.394531-8.207031-3.300782-10.078125-3.699218-1.871094-8.210937-.394531-10.082031 3.304688-25.484375 50.335937-76.46875 81.785156-133.015625 81.785156-82.160156 0-149-66.839844-149-149 0-39.625 15.464844-75.777344 40.972656-102.621094 2.855469-3.003906 2.730469-7.75-.269531-10.605468-3.003906-2.851563-7.75-2.730469-10.605469.273437-6.382812 6.71875-12.140625 13.898437-17.234375 21.457031l-17.507812-17.507812v-98.390625c0-4.140625-3.359375-7.5-7.5-7.5s-7.5 3.359375-7.5 7.5v101.496093c0 1.992188.789062 3.898438 2.195312 5.304688l22.296875 22.292969c-11.78125 21.644531-18.546875 45.765625-19.675781 70.800781h-44.59375l-32.578125-32.578125v-105.390625l23.042969-23.042969c1.40625-1.40625 2.199219-3.3125 2.199219-5.304687v-56.558594c0-4.144531-3.359376-7.5-7.5-7.5-4.144532 0-7.5 3.355469-7.5 7.5v53.453125l-23.042969 23.042969c-1.410157 1.40625-2.199219 3.3125-2.199219 5.304687v111.601563c0 1.988281.789062 3.898437 2.199219 5.304687l36.96875 36.972657c1.40625 1.40625 3.316406 2.195312 5.304687 2.195312h47.707032c.886718 19.589844 5.222656 38.296875 12.421874 55.523438l-23.046874 23.046874c-1.40625 1.40625-2.195313 3.3125-2.195313 5.300782v96.640625l-23.496094 23.496093c-1.410156 1.40625-2.199219 3.3125-2.199219 5.304688v31.6875c0 4.144531 3.359376 7.5 7.5 7.5 4.140626 0 7.5-3.355469 7.5-7.5v-28.582031l23.496094-23.496094c1.410156-1.40625 2.199219-3.3125 2.199219-5.304687v-96.636719l17.085937-17.089844c13.753907 25.589844 34.105469 47.125 58.761719 62.324219l-31.480469 31.476562c-1.40625 1.40625-2.195312 3.316406-2.195312 5.304688v72.003906c0 4.144531 3.355469 7.5 7.5 7.5 4.140625 0 7.5-3.355469 7.5-7.5v-68.898438l32.339844-32.339843c19.664062 9.667969 41.53125 15.515625 64.628906 16.558593v48.46875c-8.730469 3.097657-15 11.433594-15 21.210938 0 12.40625 10.09375 22.5 22.5 22.5s22.5-10.09375 22.5-22.5c0-9.777344-6.273438-18.113281-15-21.210938v-48.480468c22.554688-1.023438 44.542969-6.636719 64.671875-16.511719l28.992187 28.992187v72.210938c0 4.144531 3.359376 7.5 7.5 7.5 4.144532 0 7.5-3.355469 7.5-7.5v-75.316406c0-1.988282-.789062-3.894532-2.195312-5.300782l-28.132812-28.136718c.402343-.246094.8125-.476563 1.210937-.730469 18.941406-11.882813 35.1875-27.449219 47.820313-45.675781l25.851562 25.847656v57.421875c0 1.988281.789062 3.894531 2.195312 5.300781l32.40625 32.40625v34.183594c0 4.144531 3.359376 7.5 7.5 7.5 4.144532 0 7.5-3.355469 7.5-7.5v-37.289062c0-1.988282-.789062-3.898438-2.195312-5.304688zm-175.71875 67.5c-4.136719 0-7.5-3.363281-7.5-7.5s3.363281-7.5 7.5-7.5 7.5 3.363281 7.5 7.5-3.363281 7.5-7.5 7.5zm0 0" style="&#10;    fill: #fff;&#10;"/></svg>