<svg width="53" height="41" viewBox="0 0 53 41" fill="none" xmlns="http://www.w3.org/2000/svg">
<path d="M40.6485 19.5876C44.7647 19.911 48.8515 20.264 52.2286 21.3179C48.8785 20.7694 44.8115 19.9356 40.6485 19.8188C38.9304 23.2131 35.466 24.8808 30.6881 25.2313C31.2021 26.348 32.186 26.7735 32.427 28.5727C32.7825 31.2599 31.865 35.1929 32.7702 36.9823C33.2055 37.8395 33.9139 37.8617 34.3911 38.5959C33.2215 39.9795 30.3191 38.4397 29.9907 36.9823C29.4238 34.4858 30.8516 30.6118 29.2971 28.9159C29.4078 31.6424 28.6551 35.466 29.4139 37.9023C29.7128 38.8578 30.5774 39.2305 30.3412 40.0926C24.9017 40.6448 27.1756 33.0518 26.2865 28.5727C25.465 28.6305 25.8253 29.8026 25.8228 30.2994C25.7982 34.6764 26.7194 40.6768 22.0017 40.0926C21.8652 39.1751 22.6376 38.8578 22.929 38.0191C23.7887 35.557 22.7679 31.8871 23.1627 28.9159C21.3622 30.2736 23.3509 35.0121 22.2342 37.4435C21.5934 38.8406 19.5212 39.4494 17.9519 38.8246C18.156 37.7817 19.2321 37.9527 19.6884 36.9823C20.3255 35.6271 19.6909 33.679 19.9196 31.6805C16.5868 32.3459 14.0017 31.5871 12.7374 29.4927C12.1729 28.5531 12.0315 27.4462 11.3489 26.6148C10.6651 25.7786 9.58041 25.6679 9.26557 24.5389C13.3904 23.5439 13.5491 28.7855 17.2558 28.9159C18.3934 28.9564 18.9825 28.5863 20.0352 28.3415C20.3279 27.0207 20.9601 26.0331 21.8886 25.3432C17.2767 24.7098 13.4679 23.2734 11.6982 19.8151C7.50691 20.0217 3.67106 20.5813 0.115604 21.4286C3.34146 20.2554 7.31751 19.8372 11.5826 19.7007C11.3305 18.1892 9.12783 18.6049 7.76148 18.6627C5.22188 18.7759 2.02062 19.0919 0 19.4707C2.9307 18.4254 7.03834 18.5557 11.0033 18.5484C9.79071 14.7445 10.2089 8.70231 12.8555 6.45171C12.1065 4.56392 12.3389 1.47088 13.3191 0C16.2707 0.132822 18.0626 1.42046 19.9196 2.65029C22.2206 1.99602 24.641 1.67011 27.793 1.84475C29.1188 1.921 30.4999 2.51255 31.4985 2.41908C32.4787 2.33054 33.5597 1.22737 34.5092 0.808001C35.7501 0.259495 36.7966 0.0528829 38.2171 0C38.8984 1.54713 39.3387 4.11257 38.6807 5.99052C41.3716 8.28785 42.294 13.8701 40.9965 18.434C44.8299 18.7255 49.3963 18.2938 52.3467 19.4707C49.5918 19.1153 45.8273 18.4205 42.2756 18.664C41.5955 18.7107 40.6005 18.6418 40.6485 19.5876Z" fill="black" fill-opacity="0.5"/>
</svg>
