<svg width="396" height="302" viewBox="0 0 396 302" fill="none" xmlns="http://www.w3.org/2000/svg">
<path d="M254.255 209.445C254.231 209.385 254.191 204.664 252.993 202.426C252.993 202.426 252.77 201.898 252.993 202.011C253.218 202.123 254.094 203.171 254.35 204.194C254.606 205.217 254.928 205.367 255.342 206.056C255.759 206.743 255.823 211.075 255.807 211.141C255.79 211.205 255.167 211.219 255.136 211.141C255.103 211.06 254.255 209.445 254.255 209.445Z" fill="#325F46"/>
<path d="M255.805 211.14C255.801 211.155 255.755 211.169 255.691 211.18L254.476 206.328C254.311 205.035 254.031 203.606 253.542 202.599C253.856 203.02 254.202 203.61 254.348 204.194C254.604 205.217 254.926 205.367 255.341 206.056C255.757 206.743 255.821 211.077 255.805 211.14Z" fill="#243B2D"/>
<path d="M256.07 204.46C256.07 204.46 255.742 201.962 255.742 201.211C255.742 200.46 255.647 198.876 255.742 198.798C255.839 198.717 255.883 198.717 255.885 199.068C255.887 199.421 256.957 204.377 257.213 204.872C257.469 205.367 257.085 205.879 257.454 207.271C257.822 208.661 259.076 210.357 258.168 210.196C257.263 210.037 255.678 209.381 255.934 207.991C256.19 206.599 256.07 204.46 256.07 204.46Z" fill="#325F46"/>
<path d="M257.36 209.445C257.39 209.317 256.974 206.312 257.182 205.367C257.39 204.425 257.677 204.024 257.566 202.682C257.454 201.339 257.677 199.901 257.805 199.868C257.933 199.835 258.044 201.067 258.044 201.739C258.044 202.409 258.253 204.825 258.317 205.208C258.381 205.592 257.36 209.445 257.36 209.445Z" fill="#243B2D"/>
<path d="M257.359 209.445C257.359 209.445 257.421 206.582 258.093 205.081C258.764 203.577 259.02 201.5 259.02 200.716C259.02 199.932 259.389 197.381 259.389 197.209C259.389 197.038 259.467 197.038 259.579 197.327C259.692 197.614 259.579 201.386 259.579 202.618C259.579 203.849 259.403 205.128 259.317 205.912C259.228 206.696 257.852 211.312 257.468 211.194C257.085 211.075 256.59 210.452 256.734 210.293C256.879 210.132 257.359 209.445 257.359 209.445Z" fill="#325F46"/>
<path d="M264.888 197.23C264.888 197.23 264.777 197.15 264.657 197.302C264.536 197.455 261.227 202.37 260.619 203.853L260.716 205.528L261.897 203.162L264.888 197.23Z" fill="#325F46"/>
<path d="M255.807 211.811C255.751 211.801 255.691 211.79 255.629 211.776C255.547 211.757 255.464 211.737 255.38 211.714C255.188 211.66 255.043 211.704 254.932 211.749C254.814 211.795 254.734 211.84 254.674 211.776C254.515 211.599 253.602 209.734 253.265 209.27C252.929 208.806 252.785 208.069 252.69 207.766C252.593 207.463 252.065 206.071 252.114 205.8C252.154 205.574 252.094 205.305 252.065 205.083C252.026 204.759 251.978 204.437 251.931 204.115C251.918 204.037 251.879 203.915 251.902 203.87C251.914 203.847 251.941 203.845 251.995 203.876C252.145 203.963 252.253 204.303 252.323 204.458C252.385 204.6 252.529 205.048 252.69 205.239C252.849 205.431 252.993 205.704 253.057 205.912C253.121 206.12 253.313 206.615 253.488 206.904C253.666 207.191 254.336 208.358 254.544 208.742C254.674 208.981 255.13 210.109 255.458 210.928C255.47 210.959 255.481 210.988 255.493 211.015C255.672 211.471 255.807 211.811 255.807 211.811Z" fill="#42845F"/>
<path d="M257.448 210.786L256.386 211.811L256.153 211.795L255.901 211.778L255.518 211.751C255.518 211.751 255.402 208.022 255.103 206.667C254.804 205.312 254.072 201.714 253.509 200.695C252.945 199.676 252.081 198.035 251.71 197.639C251.71 197.639 251.169 197.146 251.506 197.111C251.842 197.075 252.848 198.356 253.125 198.598C253.401 198.837 254.527 200.935 254.804 201.475C255.08 202.016 255.571 202.806 255.678 203.094C255.788 203.381 256.254 205.145 256.326 205.421C256.398 205.695 256.423 206.044 256.59 206.248C256.757 206.452 256.697 206.632 256.662 206.836C256.625 207.038 256.867 207.339 256.914 207.434C256.961 207.531 256.914 207.663 256.914 207.95C256.914 208.239 257.263 208.453 257.203 208.705C257.141 208.958 257.213 209.113 257.322 209.293C257.43 209.472 257.273 209.616 257.322 209.893C257.339 209.996 257.362 210.144 257.382 210.291C257.388 210.347 257.397 210.398 257.403 210.45C257.428 210.635 257.448 210.786 257.448 210.786Z" fill="#42845F"/>
<path d="M260.74 205.144C260.74 205.144 260.971 204.808 261.002 204.569C261.035 204.33 261.082 204.377 261.291 204.121C261.499 203.866 261.499 203.721 261.499 203.61C261.499 203.496 261.513 203.482 261.641 203.338C261.769 203.193 261.819 202.97 261.833 202.857C261.841 202.812 261.841 202.822 261.85 202.832C261.864 202.847 261.893 202.861 261.978 202.698C262.122 202.426 262.122 202.09 262.266 202.011C262.409 201.931 262.537 201.834 262.553 201.723C262.57 201.611 262.442 201.467 262.553 201.372C262.664 201.275 262.761 201.308 262.809 201.195C262.856 201.083 262.906 200.86 262.92 200.763C262.937 200.669 263.081 200.46 263.129 200.427C263.178 200.396 263.225 200.235 263.24 200.14C263.256 200.044 263.506 200.093 263.51 199.932C263.512 199.773 263.459 199.66 263.51 199.579C263.562 199.501 263.657 199.501 263.704 199.388C263.753 199.276 263.64 199.181 263.704 199.068C263.768 198.957 263.896 198.957 263.929 198.845C263.96 198.734 263.976 198.62 264.073 198.492C264.11 198.443 264.112 198.457 264.116 198.47C264.123 198.49 264.127 198.511 264.265 198.286C264.488 197.917 264.696 197.311 264.888 197.23C264.888 197.23 264.904 197.327 264.807 197.469C264.713 197.614 264.42 198.237 264.253 198.825C264.084 199.412 262.186 202.698 261.691 204.152C261.194 205.609 260.459 207.319 260.332 207.463L260.74 205.144Z" fill="#42845F"/>
<path d="M263.51 202.319C263.51 202.319 263.102 202.277 262.611 203.226C262.118 204.173 261.012 206.547 260.678 207.11C260.344 207.673 259.948 210.528 259.42 210.936C258.892 211.343 259.395 211.402 259.828 211.044C260.259 210.685 261.126 208.393 261.353 207.698C261.501 207.242 262.068 205.278 262.646 203.843C262.949 203.088 263.213 202.444 263.51 202.319Z" fill="#325F46"/>
<path d="M263.226 202.746C262.667 203.307 261.883 206.968 261.338 209.092C260.796 211.219 259.418 211.621 259.373 211.636C259.276 211.665 258.478 211.811 258.478 211.811H258.467C258.5 211.799 258.533 211.786 258.568 211.772L258.572 211.77C259.938 211.137 260.971 208.389 261.083 208.166C261.194 207.942 261.083 207.958 261.083 207.832C261.083 207.706 261.244 207.735 261.322 207.574C261.402 207.413 261.386 207.191 261.371 206.976C261.355 206.764 261.45 206.807 261.53 206.696C261.611 206.582 261.675 206.135 261.658 205.959C261.642 205.784 261.691 205.72 261.85 205.623C262.011 205.528 262.011 205.289 262.011 205.033C262.011 204.777 262.089 204.744 262.25 204.6C262.409 204.458 262.937 202.874 263.162 202.554C263.385 202.234 263.785 202.187 263.226 202.746Z" fill="#42845F"/>
<path d="M260.635 207.558C260.54 208.014 260.448 210.914 258.573 211.77L258.569 211.772C258.538 211.786 258.507 211.799 258.478 211.811H256.386H256.388C256.407 211.786 256.714 211.401 257.061 210.928C257.174 210.776 257.29 210.613 257.403 210.45C257.642 210.105 257.861 209.763 257.981 209.509C258.333 208.758 258.253 208.63 258.286 208.47C258.317 208.311 258.414 208.406 258.525 208.197C258.637 207.991 258.606 207.655 258.606 207.51C258.606 207.366 258.845 207.143 258.909 207.03C258.973 206.918 259.02 206.296 259.229 206.023C259.262 205.98 259.29 205.945 259.317 205.912C259.458 205.737 259.517 205.683 259.612 205.481C259.724 205.239 260.443 203.849 260.38 202.907C260.316 201.962 260.46 200.939 260.588 200.986C260.716 201.036 260.716 202.315 260.747 202.857C260.78 203.402 260.73 207.096 260.635 207.558Z" fill="#42845F"/>
<path d="M256.153 211.794L255.901 211.778C256.413 211.417 257.11 210.852 257.382 210.291C257.389 210.346 257.397 210.398 257.403 210.45C257.366 210.505 257.327 210.561 257.287 210.615C257.089 210.885 256.66 211.427 256.153 211.794Z" fill="#35664B"/>
<path d="M257.288 210.615C257.327 210.561 257.366 210.505 257.403 210.45C257.403 210.45 257.362 210.514 257.288 210.615Z" fill="#35664B"/>
<path d="M255.629 211.776C255.592 211.768 255.557 211.759 255.52 211.751L255.625 211.757C255.627 211.764 255.627 211.77 255.629 211.776ZM255.518 211.749C255.473 211.739 255.425 211.726 255.38 211.714C255.374 211.456 255.458 210.928 255.458 210.928C255.468 210.955 255.479 210.982 255.489 211.009C255.508 211.448 255.518 211.735 255.518 211.749Z" fill="#35664B"/>
<path d="M255.625 211.757L255.52 211.751L255.518 211.749C255.518 211.735 255.508 211.448 255.489 211.009C255.491 211.011 255.491 211.013 255.493 211.015C255.51 211.108 255.582 211.516 255.625 211.757Z" fill="#35664B"/>
<path d="M260.012 210.206C260.012 210.206 259.752 210.6 259.422 210.957C259.039 211.372 258.572 211.759 258.478 211.811C258.478 211.811 259.631 211.13 260.276 209.852L260.012 210.206Z" fill="#325F46"/>
<path d="M260.74 205.144C260.744 204.93 260.748 204.717 260.751 204.513C260.755 204.482 260.757 204.464 260.757 204.46C260.761 204.443 262.291 201.766 263.488 199.674C263.49 199.742 263.512 199.827 263.51 199.932C263.508 199.982 263.484 200.013 263.449 200.031C263.395 200.064 263.314 200.072 263.271 200.099C263.255 200.109 263.244 200.122 263.24 200.14C263.226 200.235 263.176 200.396 263.129 200.427C263.081 200.46 262.937 200.668 262.92 200.763C262.904 200.86 262.857 201.083 262.809 201.194C262.762 201.308 262.665 201.275 262.553 201.372C262.442 201.467 262.57 201.611 262.553 201.722C262.537 201.834 262.409 201.931 262.267 202.011C262.122 202.09 262.122 202.426 261.978 202.698C261.922 202.803 261.889 202.834 261.871 202.838C261.869 202.84 261.869 202.84 261.866 202.84C261.858 202.84 261.854 202.836 261.85 202.832C261.848 202.828 261.844 202.824 261.842 202.824C261.84 202.824 261.838 202.832 261.833 202.857C261.819 202.97 261.769 203.193 261.642 203.338C261.514 203.482 261.497 203.498 261.497 203.61C261.497 203.721 261.497 203.866 261.291 204.121C261.083 204.377 261.035 204.33 261.002 204.569C260.971 204.804 260.751 205.13 260.74 205.144Z" fill="#2A4937"/>
<path d="M261.867 202.84C261.859 202.84 261.855 202.836 261.851 202.832C261.846 202.828 261.844 202.824 261.842 202.824C261.844 202.824 261.848 202.828 261.851 202.832C261.855 202.836 261.859 202.84 261.867 202.84C261.869 202.84 261.869 202.84 261.871 202.838C261.869 202.84 261.869 202.84 261.867 202.84ZM263.272 200.099C263.315 200.072 263.395 200.064 263.449 200.031C263.395 200.064 263.315 200.072 263.272 200.099Z" fill="#2F5741"/>
<path d="M260.672 205.53C260.672 205.281 260.73 204.693 260.75 204.513C260.748 204.718 260.744 204.93 260.74 205.145L260.672 205.53Z" fill="#2F5741"/>
<path d="M261.308 212.054V213.038C261.308 213.106 261.254 213.16 261.186 213.16H261.176C261.116 213.16 261.066 213.203 261.056 213.263L260.617 215.88C260.412 217.095 259.391 217.997 258.172 218.057C258.129 218.061 258.086 218.061 258.04 218.061H256.722C255.433 218.061 254.338 217.12 254.14 215.847L253.742 213.265C253.738 213.234 253.723 213.209 253.701 213.191C253.68 213.172 253.653 213.16 253.622 213.16C253.554 213.16 253.5 213.106 253.5 213.038V212.054C253.5 211.807 253.701 211.609 253.946 211.609H260.862C261.108 211.609 261.308 211.807 261.308 212.054Z" fill="#F2D77C"/>
<path d="M261.175 213.16C261.116 213.16 261.066 213.203 261.056 213.263L260.616 215.88C260.412 217.095 259.391 217.997 258.172 218.057C259.604 216.776 259.532 214.833 259.313 214.049C259.092 213.265 257.448 213.16 257.448 213.16H261.175Z" fill="#ECC349"/>
<path d="M350.298 302C349.596 302 348.87 301.99 348.116 301.967C323.821 301.257 322.855 296.204 304.185 296.204C302.037 296.204 299.658 296.27 296.977 296.418C287.198 296.959 275.687 297.904 265.871 297.904C249.618 297.904 238.004 295.317 246.557 284.034C252.699 275.93 276.359 272.071 301.171 272.071C331.772 272.071 364.13 277.935 367.602 288.937C367.602 288.937 374.788 302 350.298 302" fill="#E2E0F0"/>
<path d="M327.147 282.677L314.79 218.447C314.744 218.213 314.515 218.057 314.276 218.1C314.039 218.145 313.882 218.376 313.927 218.614L316.413 231.53C316.343 231.377 316.192 231.272 316.015 231.272H266.268L268.704 218.614C268.747 218.376 268.593 218.145 268.349 218.098C268.116 218.057 267.887 218.213 267.842 218.447L255.484 282.677C255.439 282.915 255.594 283.146 255.831 283.191C255.858 283.195 255.887 283.199 255.916 283.199C256.124 283.199 256.305 283.049 256.345 282.842L266.099 232.149H316.015C316.25 232.149 316.442 231.961 316.45 231.728L326.285 282.842C326.326 283.049 326.505 283.199 326.716 283.199C326.745 283.199 326.772 283.195 326.798 283.191C327.036 283.146 327.192 282.915 327.147 282.677Z" fill="#376BA1"/>
<path d="M300.172 44.5552C273.005 4.36449 264.451 17.1137 211.922 19.2485C159.393 21.3834 168.218 10.3585 116.949 1.07044C104.054 -1.26653 90.2746 -0.144446 79.6031 8.13295C69.4761 15.9896 68.7864 29.6298 61.3516 37.9382C60.8002 38.5549 60.2115 39.1407 59.5793 39.6955C56.8321 42.0965 53.4842 43.6682 50.3075 45.4565C39.8047 51.3701 27.4973 62.6115 26.7946 75.6578C26.0886 88.7638 38.0498 98.1318 43.0087 109.174C50.1442 125.063 28.1545 157.953 43.1165 169.827L43.1196 169.83C46.3588 172.397 52.5571 174.274 56.6126 175.034C60.2707 175.72 64.532 174.212 68.7841 172.704C73.1963 171.14 77.599 169.575 81.3081 170.462C88.7765 172.246 96.274 176.733 103.324 179.843C118.944 186.735 135.143 195.991 151.537 200.421C168.508 205.006 185.13 204.128 202.603 202.81C213.714 201.974 224.982 201.089 235.098 196.811C244.829 192.697 255.091 188.19 266.21 187.106C272.015 186.54 277.98 187.497 283.885 188.454C292.34 189.824 300.669 191.194 308.222 188.095C332.898 177.971 332.357 141.509 329.488 122.325C325.437 95.257 315.887 67.8094 300.172 44.5552" fill="#273773"/>
<path d="M213.759 271.741C195.076 271.741 175.318 268.957 173.199 263.734C173.199 263.734 168.811 257.532 183.764 257.532C184.192 257.532 184.635 257.536 185.096 257.546C199.93 257.882 200.516 260.283 211.919 260.283C213.229 260.283 214.683 260.25 216.319 260.18C222.29 259.924 229.318 259.477 235.312 259.477C245.235 259.477 252.325 260.704 247.104 266.063C243.354 269.909 228.909 271.741 213.759 271.741Z" fill="#E2E0F0"/>
<path d="M306.125 216.231V216.605C306.125 216.963 305.834 217.254 305.477 217.254H271.714L278.943 216.124L306.125 216.231Z" fill="#4C4D4E"/>
<path d="M278.925 216.124L270.938 197.203L262.249 195.816L271.714 217.254L278.925 216.124Z" fill="#D8D9D9"/>
<path d="M270.559 197.812C270.812 198.348 277.706 215.006 277.706 215.006L272.093 215.322L264.055 196.71L270.559 197.812Z" fill="#4C4D4E"/>
<path d="M278.943 216.124L306.125 216.231L304.046 216.908C303.342 217.137 302.606 217.254 301.866 217.254H271.697L278.943 216.124Z" fill="#D8D9D9"/>
<path d="M282.4 216.767H292.93L289.252 216.396H280.769L282.4 216.767Z" fill="#4C4D4E"/>
<path d="M295.137 216.767H295.871L292.237 216.396H290.849L295.137 216.767Z" fill="#4C4D4E"/>
<path d="M365.019 275.235C355.092 275.235 347.044 274.024 347.044 272.529C347.044 271.036 355.092 269.823 365.019 269.823C374.949 269.823 382.994 271.036 382.994 272.529C382.994 274.024 374.949 275.235 365.019 275.235Z" fill="#E2E0F0"/>
<path d="M354.978 208.124C356.619 210.697 356.961 213.883 358.269 216.639C359.366 218.951 361.163 220.925 363.345 222.258C363.948 222.625 364.319 222.817 364.552 223.093C364.766 223.343 364.869 223.664 364.935 224.25C365.159 226.27 365.189 228.32 365.249 230.35C365.463 237.441 365.492 244.539 365.51 251.632C365.517 253.414 365.519 255.198 365.519 256.981H366.409C366.396 253.565 366.202 250.131 366.124 246.758C365.912 237.73 365.155 228.584 365.519 219.576C365.613 217.219 365.487 214.748 364.328 212.693C363.615 211.429 362.556 210.404 361.513 209.397C358.962 206.934 356.372 204.445 353.266 202.737C353.009 203.826 353.135 205.002 353.619 206.01C353.98 206.767 354.527 207.419 354.978 208.124Z" fill="#8BD8BD"/>
<path d="M364.731 256.981H366.174C366.873 246.15 368.719 222.135 371.494 217.97C372.094 217.97 379.309 213.933 379.601 212.7C379.895 211.464 379.909 209.125 380.512 207.514C381.211 205.637 381.71 203.837 381.914 201.846C382.037 200.66 383.673 198.934 383.258 197.791C382.915 196.846 380.166 199.338 379.137 200.367C378.106 201.399 376.475 203.631 374.844 204.575C373.21 205.52 371.066 210.157 370.56 212.044C370.053 213.933 370.56 217.446 370.56 217.446C370.56 217.446 366.078 236.771 365.405 247.418C365.146 251.521 364.915 254.662 364.731 256.981Z" fill="#374175"/>
<path d="M364.799 248.623C364.774 252.509 364.754 255.165 364.742 256.981H366.609C366.953 250.093 366.415 235.834 357.129 228.244C357.129 228.244 358.488 228.068 357.98 225.781C357.473 223.493 354.155 220.861 354.267 219.601C354.371 218.434 353.299 217.415 352.779 216.338C351.69 214.077 349.886 214.434 348.38 212.724C347.98 212.268 346.444 209.597 345.677 209.997C344.913 210.395 345.174 213.968 345.233 214.379C345.422 215.657 345.841 217.33 347.025 218.054C348.572 218.999 348.916 223.293 350.118 224.151C351.318 225.009 355.785 228.53 356.728 228.617C357.673 228.701 364.886 236.344 364.799 248.623Z" fill="#374175"/>
<path d="M391.803 216.046C390.87 216.436 389.898 216.739 388.906 216.951C388.225 217.098 387.513 217.211 386.933 217.599C386.371 217.974 385.995 218.575 385.447 218.973C384.822 219.426 384.032 219.581 383.343 219.938C382.233 220.52 381.462 221.611 380.961 222.762C380.457 223.913 380.178 225.146 379.778 226.336C379.657 226.695 379.521 227.058 379.274 227.347C379.009 227.659 378.643 227.859 378.29 228.063C373.912 230.577 370.388 234.574 368.092 239.044C366.175 242.78 365.045 246.893 364.548 251.053C364.313 253.017 364.211 255.003 364.272 256.981H366.112C365.911 253.792 365.969 250.583 366.427 247.419C366.817 244.719 367.506 242.052 368.589 239.544C369.433 237.594 370.514 235.75 371.842 234.092C372.872 232.809 374.045 231.641 375.342 230.624C376.256 229.907 377.228 229.269 378.241 228.7C378.949 228.302 380.086 227.461 380.837 227.551C381.85 227.675 382.856 228.05 383.877 227.741C384.604 227.518 385.19 226.99 385.758 226.481C387.597 224.826 389.5 223.228 391.173 221.401C392.843 219.573 394.287 217.488 395.049 215.13C395.073 215.054 395.097 214.975 395.085 214.895C395.061 214.715 394.855 214.606 394.673 214.619C394.489 214.633 394.329 214.734 394.171 214.831C393.415 215.297 392.625 215.706 391.803 216.046Z" fill="#8BD8BD"/>
<path d="M358.431 239.847C361.142 241.239 362.646 245.754 363.511 248.237C364.248 250.354 364.331 255.506 364.34 256.981H365.193C365.211 243.452 358.696 239.207 358.696 239.207C358.546 234.277 354.555 234.053 352.637 234.053C350.719 234.053 348.761 233.186 347.484 232.811C346.202 232.433 345.562 232.433 345.562 233.036C345.562 233.638 348.853 234.539 350.341 235.445C350.529 235.558 355.796 239.094 356.496 239.376C357.19 239.659 358.431 239.847 358.431 239.847Z" fill="#374175"/>
<path d="M385.406 229.346C383.946 229.777 381.713 230.763 379.523 230.763C377.333 230.763 372.781 231.02 372.61 236.645C372.61 236.645 365.156 241.501 365.198 256.981H366.171C366.178 255.378 366.264 249.392 367.115 246.948C368.104 244.114 369.819 238.964 372.912 237.375C372.912 237.375 374.329 237.161 375.124 236.837C375.918 236.515 381.927 232.481 382.141 232.351C383.841 231.32 387.593 230.29 387.593 229.603C387.593 228.916 386.863 228.917 385.406 229.346Z" fill="#9273C1"/>
<path d="M361.535 233.052C362.377 232.941 366.083 249.956 364.928 256.981H365.842C365.901 254.615 366.011 242.204 361.934 232.768C361.791 232.43 361.896 231.584 361.84 231.194C361.647 229.864 361.503 228.414 360.382 227.52C358.918 226.357 357.294 225.146 355.471 224.637C353.609 224.115 351.63 224.144 349.8 223.494C348.025 222.865 345.737 220.689 345.564 221.662C345.564 221.662 348.654 227.558 350.087 228.073C351.518 228.589 354.779 230.076 355.754 231.049C356.726 232.023 360.677 233.168 361.535 233.052Z" fill="#9273C1"/>
<path d="M386.359 209.833C386.342 209.816 386.326 209.8 386.304 209.783C383.117 212.428 378.523 212.479 374.828 214.358C372.989 215.295 371.415 216.666 369.859 218.022C369.188 218.607 368.497 219.216 368.104 220.014C367.527 221.182 367.67 222.576 368.037 223.826C368.13 224.135 368.234 224.445 368.239 224.766C368.244 225.024 368.187 225.28 368.13 225.532C366.353 233.322 365.051 241.191 364.518 249.17C364.342 251.769 364.235 254.376 364.259 256.981H365.732C364.98 249.605 365.796 242.047 366.868 234.741C367.319 231.687 367.895 228.652 368.459 225.616C368.49 225.453 368.524 225.284 368.616 225.144C368.886 224.731 369.534 224.791 369.956 224.696C370.663 224.535 371.322 224.174 371.958 223.838C374.111 222.7 376.279 221.555 378.205 220.058C381.419 217.558 383.819 214.185 386.172 210.862C386.39 210.555 386.591 210.097 386.359 209.833Z" fill="#9273C1"/>
<path d="M373.492 255.491H364.734H355.976C355.976 255.491 355.478 269.882 360.98 273.177C361.173 273.292 361.393 273.352 361.618 273.352H364.734H367.85C368.074 273.352 368.295 273.292 368.485 273.177C373.987 269.882 373.492 255.491 373.492 255.491Z" fill="#273773"/>
<path d="M368.487 273.177C368.297 273.292 368.074 273.352 367.849 273.352H365.022C365.247 273.352 365.465 273.292 365.66 273.177C371.16 269.883 370.664 255.491 370.664 255.491H373.491C373.491 255.491 373.987 269.883 368.487 273.177Z" fill="#376BA1"/>
<path d="M345.618 232.786C346.843 232.982 348.049 233.279 349.234 233.646C349.823 233.836 350.404 234.055 350.987 234.263C351.57 234.476 352.153 234.686 352.729 234.913C353.31 235.133 353.877 235.383 354.433 235.661C354.713 235.798 354.983 235.95 355.258 236.099C355.527 236.258 355.793 236.419 356.048 236.596C356.565 236.944 357.055 237.339 357.488 237.788C357.92 238.24 358.287 238.764 358.505 239.346L358.487 239.354C358.221 238.795 357.834 238.308 357.392 237.883C356.952 237.456 356.459 237.087 355.949 236.742C354.926 236.062 353.82 235.507 352.691 234.999C352.128 234.748 351.554 234.515 350.967 234.319C350.384 234.117 349.786 233.952 349.192 233.783C348.005 233.442 346.812 233.112 345.614 232.803L345.618 232.786Z" fill="#9273C1"/>
<path d="M346.047 221.639C346.162 222.034 346.355 222.403 346.586 222.739C346.648 222.821 346.703 222.908 346.767 222.988L346.965 223.224C347.107 223.37 347.249 223.518 347.404 223.65C347.551 223.793 347.724 223.904 347.886 224.03L348.143 224.193C348.229 224.247 348.316 224.302 348.409 224.346C348.593 224.436 348.768 224.54 348.959 224.612L349.243 224.731C349.338 224.77 349.436 224.797 349.534 224.83C349.92 224.969 350.323 225.072 350.72 225.185L351.916 225.515C352.715 225.74 353.509 225.975 354.288 226.258C355.071 226.534 355.823 226.897 356.548 227.304C356.896 227.528 357.264 227.731 357.593 227.988C357.761 228.11 357.93 228.234 358.094 228.362L358.567 228.772C359.815 229.873 360.823 231.235 361.581 232.708L361.568 232.716L360.894 231.674L360.155 230.682L359.749 230.214C359.614 230.061 359.489 229.894 359.336 229.756L358.902 229.319C358.831 229.247 358.76 229.17 358.684 229.102L358.451 228.902L357.981 228.5L357.489 228.129C357.169 227.871 356.81 227.669 356.468 227.44C355.754 227.029 355.022 226.65 354.254 226.344C353.489 226.037 352.701 225.779 351.901 225.573C351.102 225.354 350.29 225.206 349.489 224.962C348.697 224.711 347.932 224.321 347.318 223.745C347.005 223.469 346.734 223.141 346.515 222.788C346.291 222.436 346.115 222.05 346.029 221.642L346.047 221.639Z" fill="#8BD8BD"/>
<path d="M353.119 224.185C352.998 223.548 352.781 222.931 352.54 222.331C352.28 221.691 351.981 221.07 351.652 220.464C351.332 219.856 350.955 219.276 350.56 218.711C350.168 218.141 349.724 217.609 349.232 217.125C348.992 216.877 348.725 216.659 348.45 216.448C348.171 216.246 347.874 216.075 347.631 215.829C347.144 215.353 346.826 214.732 346.576 214.105C346.076 212.836 345.825 211.479 345.684 210.116H345.667C345.671 210.805 345.744 211.492 345.866 212.17C345.994 212.849 346.169 213.521 346.442 214.159C346.719 214.794 347.092 215.394 347.59 215.873C347.842 216.114 348.145 216.294 348.413 216.496C348.559 216.591 348.676 216.718 348.803 216.828C348.933 216.937 349.048 217.069 349.167 217.191C350.092 218.195 350.829 219.358 351.498 220.549C351.823 221.151 352.142 221.757 352.417 222.382C352.677 222.968 352.924 223.562 353.091 224.181L353.119 224.185Z" fill="#9273C1"/>
<path d="M353.231 203.055C353.269 203.16 353.347 203.263 353.408 203.365C353.477 203.465 353.544 203.565 353.616 203.663L354.039 204.256C354.325 204.647 354.62 205.031 354.916 205.417C355.511 206.182 356.126 206.931 356.766 207.657C357.086 208.02 357.415 208.377 357.76 208.717C357.932 208.886 358.111 209.049 358.293 209.208C358.476 209.363 358.678 209.509 358.848 209.684C359.532 210.381 360.087 211.188 360.618 212.001C361.146 212.82 361.627 213.667 362.07 214.532C362.513 215.4 362.929 216.281 363.294 217.182C363.67 218.081 363.997 218.999 364.267 219.936C364.527 220.872 364.755 221.833 364.742 222.811H364.724C364.711 222.326 364.625 221.848 364.52 221.375C364.417 220.903 364.281 220.437 364.14 219.975C363.849 219.051 363.502 218.145 363.133 217.25C362.381 215.464 361.531 213.717 360.537 212.05C360.289 211.636 360.025 211.227 359.74 210.835C359.456 210.443 359.154 210.062 358.807 209.728C358.635 209.556 358.44 209.416 358.25 209.264C358.06 209.109 357.872 208.952 357.695 208.785C357.337 208.455 356.992 208.111 356.661 207.752C356.003 207.036 355.395 206.273 354.811 205.495C354.517 205.108 354.24 204.707 353.965 204.307C353.828 204.107 353.696 203.903 353.566 203.697C353.502 203.593 353.437 203.49 353.376 203.385C353.345 203.334 353.316 203.28 353.285 203.226C353.26 203.171 353.224 203.123 353.213 203.053L353.231 203.055Z" fill="#374175"/>
<path d="M386.313 209.907C386.19 210.126 386.036 210.324 385.877 210.516C385.716 210.706 385.548 210.891 385.368 211.064C385.01 211.413 384.635 211.745 384.237 212.046C383.443 212.655 382.6 213.191 381.727 213.674C380.851 214.146 379.948 214.569 379.037 214.971C378.58 215.171 378.135 215.388 377.687 215.6C377.464 215.707 377.246 215.831 377.028 215.949C376.812 216.071 376.589 216.18 376.378 216.314C375.956 216.574 375.528 216.825 375.125 217.112C374.918 217.253 374.71 217.384 374.511 217.533L373.916 217.978C373.712 218.121 373.53 218.288 373.335 218.442C373.143 218.599 372.949 218.754 372.771 218.925L372.221 219.422L371.693 219.946C371.005 220.658 370.363 221.415 369.809 222.234C369.254 223.051 368.773 223.927 368.465 224.874L368.448 224.87C368.704 223.904 369.157 222.999 369.697 222.159C370.24 221.32 370.873 220.54 371.565 219.823C372.958 218.385 374.589 217.197 376.333 216.231C376.544 216.104 376.774 216 376.992 215.883C377.217 215.774 377.433 215.652 377.658 215.544L379.014 214.915L379.689 214.6C379.912 214.495 380.13 214.375 380.353 214.262C380.796 214.041 381.225 213.791 381.661 213.55C382.519 213.053 383.363 212.533 384.159 211.941C384.557 211.646 384.941 211.335 385.306 210.998C385.669 210.662 386.02 210.31 386.299 209.899L386.313 209.907Z" fill="#8BD8BD"/>
<path d="M382.981 197.707C381.722 199.132 380.514 200.6 379.335 202.094C378.745 202.838 378.155 203.585 377.61 204.363C377.06 205.14 376.541 205.939 376.052 206.755C375.573 207.574 375.113 208.406 374.68 209.251C374.257 210.099 373.87 210.967 373.52 211.848C373.181 212.731 372.895 213.636 372.692 214.563C372.603 214.99 372.526 215.421 372.479 215.856C372.446 215.881 372.415 215.903 372.382 215.928C372.413 215.46 372.474 214.996 372.563 214.536C372.742 213.597 373.007 212.675 373.355 211.784C374.039 209.998 374.95 208.311 375.975 206.706C376.485 205.902 377.023 205.116 377.561 204.33C378.104 203.548 378.649 202.766 379.224 202.007C379.798 201.248 380.406 200.514 381.029 199.79C381.654 199.07 382.29 198.365 382.97 197.696L382.981 197.707Z" fill="#9273C1"/>
<path d="M394.673 214.729L394.69 214.754L394.683 214.773L394.664 214.808C394.649 214.828 394.635 214.849 394.618 214.868C394.586 214.907 394.555 214.944 394.521 214.981C394.453 215.055 394.385 215.127 394.315 215.198C394.175 215.338 394.029 215.476 393.884 215.612C393.591 215.881 393.296 216.146 392.99 216.4C392.383 216.912 391.76 217.409 391.107 217.867C390.45 218.317 389.782 218.754 389.048 219.075C388.862 219.15 388.673 219.205 388.496 219.292C388.32 219.379 388.143 219.472 387.973 219.571C387.625 219.765 387.295 219.981 386.966 220.204C385.661 221.101 384.414 222.083 383.235 223.139C382.942 223.403 382.653 223.675 382.373 223.954C382.089 224.23 381.818 224.515 381.559 224.814C381.302 225.113 381.048 225.416 380.833 225.746C380.617 226.076 380.416 226.423 380.317 226.804L380.3 226.802C380.38 226.41 380.554 226.043 380.76 225.701C380.963 225.358 381.203 225.036 381.457 224.727C381.961 224.11 382.528 223.543 383.116 223.007C383.702 222.469 384.319 221.963 384.954 221.485C385.586 221.002 386.242 220.546 386.915 220.125C387.249 219.911 387.596 219.713 387.942 219.517C388.116 219.42 388.293 219.331 388.475 219.245C388.654 219.16 388.845 219.094 389.027 219.02C389.387 218.863 389.726 218.655 390.056 218.436C390.385 218.219 390.707 217.986 391.024 217.751C391.661 217.279 392.291 216.798 392.906 216.299C393.213 216.05 393.523 215.802 393.823 215.544L394.274 215.154C394.349 215.088 394.422 215.022 394.492 214.954C394.528 214.919 394.562 214.884 394.598 214.849C394.613 214.831 394.63 214.812 394.644 214.794L394.671 214.746L394.673 214.729Z" fill="#8BD8BD"/>
<path d="M387.416 229.182C386.144 229.673 384.87 230.142 383.592 230.606C382.952 230.835 382.308 231.053 381.681 231.313C381.365 231.437 381.056 231.579 380.744 231.715L379.808 232.128C378.569 232.683 377.329 233.246 376.169 233.939C375.877 234.11 375.596 234.3 375.32 234.492C375.045 234.683 374.776 234.89 374.524 235.115C374.023 235.562 373.566 236.076 373.274 236.69L373.257 236.684C373.502 236.045 373.942 235.49 374.434 235.016C374.931 234.543 375.492 234.141 376.079 233.786C376.659 233.429 377.272 233.122 377.89 232.836C378.51 232.549 379.138 232.289 379.772 232.041C380.407 231.794 381.034 231.532 381.657 231.258C382.284 230.994 382.909 230.723 383.542 230.474C384.813 229.985 386.101 229.548 387.409 229.166L387.416 229.182Z" fill="#8BD8BD"/>
<path d="M258.812 146.688H107.634C103.698 146.688 100.477 143.468 100.477 139.531V47.9358C100.477 44.0002 103.698 40.7784 107.634 40.7784H258.812C262.75 40.7784 265.97 44.0002 265.97 47.9358V139.531C265.97 143.468 262.75 146.688 258.812 146.688Z" fill="white"/>
<path d="M166.4 104.119H151.695C151.399 104.119 151.158 103.879 151.158 103.582V102.933C151.158 102.637 151.399 102.396 151.695 102.396H166.4C166.696 102.396 166.937 102.637 166.937 102.933V103.582C166.937 103.879 166.696 104.119 166.4 104.119Z" fill="#273773"/>
<path d="M123.009 129.521H120.113V102.826H123.009V129.521Z" fill="#273773"/>
<path d="M128.088 129.521H125.192V104.116H128.088V129.521Z" fill="#273773"/>
<path d="M133.167 129.521H130.271V118.188H133.167V129.521Z" fill="#273773"/>
<path d="M138.246 129.521H135.35V108.555H138.246V129.521Z" fill="#273773"/>
<path d="M116.147 129.821H115.548V99.8588H116.147V129.821Z" fill="#273773"/>
<path d="M143.698 129.222V129.821H115.548V129.222H143.698Z" fill="#273773"/>
<path d="M145.68 129.522L142.439 127.651V131.393L145.68 129.522Z" fill="#273773"/>
<path d="M115.847 97.2085L113.976 100.449H117.718L115.847 97.2085Z" fill="#273773"/>
<path d="M249.908 119.991H195.872C195.575 119.991 195.334 119.75 195.334 119.453V117.062C195.334 116.765 195.575 116.525 195.872 116.525H249.908C250.203 116.525 250.444 116.765 250.444 117.062V119.453C250.444 119.75 250.203 119.991 249.908 119.991Z" fill="#8BD8BD"/>
<path d="M234.935 127.719H195.872C195.575 127.719 195.334 127.479 195.334 127.182V124.791C195.334 124.494 195.575 124.253 195.872 124.253H234.935C235.232 124.253 235.471 124.494 235.471 124.791V127.182C235.471 127.479 235.232 127.719 234.935 127.719Z" fill="#8BD8BD"/>
<path d="M240.739 89.0031H206.268C205.97 89.0031 205.73 88.7617 205.73 88.4647V87.4293C205.73 87.1322 205.97 86.893 206.268 86.893H240.739C241.034 86.893 241.275 87.1322 241.275 87.4293V88.4647C241.275 88.7617 241.034 89.0031 240.739 89.0031Z" fill="#8BD8BD"/>
<path d="M239.512 93.7058H206.268C205.97 93.7058 205.73 93.4645 205.73 93.1695V92.1341C205.73 91.8371 205.97 91.5957 206.268 91.5957H239.512C239.807 91.5957 240.048 91.8371 240.048 92.1341V93.1695C240.048 93.4645 239.807 93.7058 239.512 93.7058Z" fill="#8BD8BD"/>
<path d="M250.064 98.4103H206.268C205.97 98.4103 205.73 98.1698 205.73 97.8732V96.8379C205.73 96.5413 205.97 96.3008 206.268 96.3008H250.064C250.359 96.3008 250.6 96.5413 250.6 96.8379V97.8732C250.6 98.1698 250.359 98.4103 250.064 98.4103Z" fill="#8BD8BD"/>
<path d="M230.997 103.114H206.268C205.97 103.114 205.73 102.874 205.73 102.577V101.542C205.73 101.245 205.97 101.005 206.268 101.005H230.997C231.294 101.005 231.535 101.245 231.535 101.542V102.577C231.535 102.874 231.294 103.114 230.997 103.114Z" fill="#8BD8BD"/>
<path d="M237.044 69.2221C237.044 75.6452 231.838 80.8513 225.417 80.8513C218.994 80.8513 213.788 75.6452 213.788 69.2221C213.788 62.8011 218.994 57.595 225.417 57.595V69.2221H237.044Z" fill="#273773"/>
<path d="M226.958 55.8728V67.5536H238.639L226.958 55.8728ZM238.639 67.5536C238.639 61.1016 233.41 55.8728 226.958 55.8728L238.639 67.5536Z" fill="#8BD8BD"/>
<path d="M181.956 87.7614H113.988C113.014 87.7614 112.224 86.9734 112.224 85.9978V55.5861C112.224 54.6105 113.014 53.8226 113.988 53.8226H181.956C182.93 53.8226 183.72 54.6105 183.72 55.5861V85.9978C183.72 86.9734 182.93 87.7614 181.956 87.7614Z" fill="#8BD8BD"/>
<path d="M179.531 61.8608H136.722C136.425 61.8608 136.185 61.6216 136.185 61.3246V60.6748C136.185 60.3799 136.425 60.1385 136.722 60.1385H179.531C179.828 60.1385 180.069 60.3799 180.069 60.6748V61.3246C180.069 61.6216 179.828 61.8608 179.531 61.8608Z" fill="white"/>
<path d="M163.955 65.7035H136.722C136.425 65.7035 136.185 65.4622 136.185 65.1651V64.5175C136.185 64.2204 136.425 63.9791 136.722 63.9791H163.955C164.252 63.9791 164.493 64.2204 164.493 64.5175V65.1651C164.493 65.4622 164.252 65.7035 163.955 65.7035Z" fill="white"/>
<path d="M172.66 69.5441H136.722C136.425 69.5441 136.185 69.3048 136.185 69.0078V68.358C136.185 68.0631 136.425 67.8218 136.722 67.8218H172.66C172.957 67.8218 173.197 68.0631 173.197 68.358V69.0078C173.197 69.3048 172.957 69.5441 172.66 69.5441Z" fill="white"/>
<path d="M147.109 73.3846H136.722C136.425 73.3846 136.185 73.1454 136.185 72.8484V72.2007C136.185 71.9037 136.425 71.6623 136.722 71.6623H147.109C147.406 71.6623 147.646 71.9037 147.646 72.2007V72.8484C147.646 73.1454 147.406 73.3846 147.109 73.3846Z" fill="white"/>
<path d="M179.532 79.494H118.337C118.041 79.494 117.8 79.2527 117.8 78.9557V78.308C117.8 78.011 118.041 77.7717 118.337 77.7717H179.532C179.829 77.7717 180.069 78.011 180.069 78.308V78.9557C180.069 79.2527 179.829 79.494 179.532 79.494Z" fill="white"/>
<path d="M177.581 83.3348H118.337C118.041 83.3348 117.8 83.0956 117.8 82.7986V82.1509C117.8 81.8539 118.041 81.6125 118.337 81.6125H177.581C177.878 81.6125 178.118 81.8539 178.118 82.1509V82.7986C178.118 83.0956 177.878 83.3348 177.581 83.3348Z" fill="white"/>
<path d="M130.172 66.3241C130.172 69.7399 127.403 72.51 123.986 72.51C120.57 72.51 117.8 69.7399 117.8 66.3241C117.8 62.9084 120.57 60.1383 123.986 60.1383C127.403 60.1383 130.172 62.9084 130.172 66.3241Z" fill="#273773"/>
<path d="M122.666 27.5794C121.096 27.5794 119.817 28.8583 119.817 30.4279C119.817 31.9997 121.096 33.2785 122.666 33.2785C124.237 33.2785 125.515 31.9997 125.515 30.4279C125.515 28.8583 124.237 27.5794 122.666 27.5794ZM122.666 33.8127C120.8 33.8127 119.282 32.2946 119.282 30.4279C119.282 28.5633 120.8 27.0452 122.666 27.0452C124.532 27.0452 126.051 28.5633 126.051 30.4279C126.051 32.2946 124.532 33.8127 122.666 33.8127Z" fill="#8BD8BD"/>
<path d="M251.958 27.7858C250.388 27.7858 249.109 29.0647 249.109 30.6344C249.109 32.2061 250.388 33.4849 251.958 33.4849C253.53 33.4849 254.809 32.2061 254.809 30.6344C254.809 29.0647 253.53 27.7858 251.958 27.7858ZM251.958 34.0192C250.093 34.0192 248.575 32.501 248.575 30.6344C248.575 28.7697 250.093 27.2516 251.958 27.2516C253.825 27.2516 255.343 28.7697 255.343 30.6344C255.343 32.501 253.825 34.0192 251.958 34.0192Z" fill="#8BD8BD"/>
<path d="M278.075 89.2877C276.503 89.2877 275.227 90.5665 275.227 92.1362C275.227 93.7079 276.503 94.9847 278.075 94.9847C279.645 94.9847 280.924 93.7079 280.924 92.1362C280.924 90.5665 279.645 89.2877 278.075 89.2877ZM278.075 95.521C276.209 95.521 274.69 94.0029 274.69 92.1362C274.69 90.2695 276.209 88.7514 278.075 88.7514C279.94 88.7514 281.458 90.2695 281.458 92.1362C281.458 94.0029 279.94 95.521 278.075 95.521Z" fill="#8BD8BD"/>
<path d="M338.48 92.4034H281.208C281.05 92.4034 280.923 92.2829 280.923 92.1354C280.923 91.9878 281.05 91.8672 281.208 91.8672H338.48C338.636 91.8672 338.765 91.9878 338.765 92.1354C338.765 92.2829 338.636 92.4034 338.48 92.4034Z" fill="#8BD8BD"/>
<path d="M77.4552 286.316C42.2963 286.316 5.11724 281.075 1.12916 271.246C1.12916 271.246 -7.12715 259.574 21.0113 259.574C21.8169 259.574 22.65 259.584 23.5163 259.602C51.4291 260.236 52.5365 264.753 73.9885 264.753C76.4575 264.753 79.1917 264.693 82.2714 264.561C93.5071 264.076 106.732 263.235 118.009 263.235C136.684 263.235 150.025 265.545 140.2 275.627C133.143 282.867 105.962 286.316 77.4552 286.316Z" fill="#E2E0F0"/>
<path d="M119.496 207.601C119.451 207.364 119.217 207.205 118.97 207.244C118.727 207.292 118.568 207.527 118.614 207.77L120.978 220.053H72.6254C72.4874 220.053 72.3651 220.117 72.2826 220.216L74.6773 207.77C74.7235 207.527 74.5639 207.292 74.3114 207.242C74.0676 207.205 73.8413 207.362 73.7949 207.601L61.7765 270.064C61.7303 270.308 61.89 270.543 62.1319 270.59C62.1608 270.596 62.1892 270.598 62.2179 270.598C62.4326 270.598 62.6183 270.446 62.6589 270.233L72.2007 220.643C72.2597 220.823 72.4266 220.953 72.6254 220.953H121.15L130.632 270.233C130.673 270.446 130.858 270.598 131.073 270.598C131.102 270.598 131.131 270.596 131.159 270.59C131.401 270.543 131.561 270.308 131.515 270.064L119.496 207.601Z" fill="#376BA1"/>
<path d="M36.8662 156.346C36.8662 156.346 38.4155 151.135 38.4155 148.6C38.4155 146.762 40.0359 144.857 41.3209 143.726C43.7519 141.585 46.9853 140.823 50.155 141.333C52.0826 141.643 54.7762 142.266 55.9805 143.911C57.5174 146.01 58.9858 148.904 58.1327 151.557C57.8483 152.442 57.5937 153.54 57.0401 154.311C56.9747 154.402 56.8646 154.483 56.8066 154.571C56.339 155.282 56.8687 156.672 56.9318 157.462C56.9714 157.956 57.2157 159.595 56.5131 159.796C55.5272 160.078 55.9498 159.303 55.5272 160.078C55.1701 160.733 54.8428 161.405 54.4342 162.03C54.0283 162.651 53.3715 163.054 53.1401 163.771C52.8591 164.641 53.1056 167.717 51.5135 167.472C49.6825 167.19 47.0771 163.387 44.894 164.796C42.7111 166.204 42.4294 167.19 42.4294 167.19L36.8662 156.346Z" fill="#FCD0C8"/>
<path d="M63.1748 205.243V205.683C63.1748 206.104 63.5153 206.444 63.9353 206.444H103.528L95.0495 205.118L63.1748 205.243Z" fill="#4C4D4E"/>
<path d="M95.0718 205.118L104.437 182.931L114.629 181.305L103.527 206.444L95.0718 205.118Z" fill="#D8D9D9"/>
<path d="M104.881 183.644C104.585 184.273 96.501 203.808 96.501 203.808L103.083 204.179L112.509 182.353L104.881 183.644Z" fill="#4C4D4E"/>
<path d="M95.0495 205.118L63.1748 205.243L65.6118 206.038C66.4381 206.308 67.3017 206.444 68.1707 206.444H103.547L95.0495 205.118Z" fill="#D8D9D9"/>
<path d="M90.9953 205.873H78.6475L82.9605 205.437H92.909L90.9953 205.873Z" fill="#4C4D4E"/>
<path d="M76.0594 205.873H75.1968L79.4607 205.437H81.0873L76.0594 205.873Z" fill="#4C4D4E"/>
<path d="M104.519 206.444H137.479C137.316 209.387 132.901 208.896 132.901 208.896H109.547H104.519H55.1292C55.1292 208.896 50.7141 209.387 50.5508 206.444H104.519Z" fill="#273773"/>
<path d="M9.83206 224.251C9.83206 224.251 9.55313 227.46 11.0271 227.817C12.5012 228.172 18.0569 226.817 17.853 224.251C17.6491 221.683 17.7122 219.3 15.5996 219.018C13.487 218.737 9.81104 223.446 9.81104 223.446" fill="#376BA1"/>
<path d="M52.3034 230.259V230.222C52.3034 230.222 52.193 230.224 51.9903 230.237C51.7877 230.224 51.6773 230.222 51.6773 230.222V230.259C47.7365 230.577 26.499 233.673 26.7781 263.311H28.4938C29.2351 262.185 28.7849 233.784 51.9903 232.658C75.1958 233.784 74.7458 262.185 75.4869 263.311H77.2026C77.4817 233.673 56.2443 230.577 52.3034 230.259Z" fill="#273773"/>
<path d="M33.6373 238.667V238.632C33.6373 238.632 33.5269 238.634 33.3244 238.646C33.1218 238.634 33.0115 238.632 33.0115 238.632V238.667C29.0704 238.986 7.83317 242.082 8.1121 271.721H9.82781C10.5691 270.594 10.1188 242.194 33.3244 241.068C56.53 242.194 56.0797 270.594 56.821 271.721H58.5365C58.8156 242.082 37.5784 238.986 33.6373 238.667Z" fill="#376BA1"/>
<path d="M7.16957 232.518C7.16957 232.518 5.17792 236.299 8.69876 237.307C12.2198 238.314 52.8302 240.566 55.1294 240.144C57.4289 239.723 60.0418 235.517 60.0412 235.498L7.99463 232.518H7.16957Z" fill="#273773"/>
<path d="M0.00146484 169.716C0.736846 187.261 1.48037 204.806 2.24097 222.351C2.32725 224.343 4.21474 225.765 6.1521 225.29C11.4546 223.991 16.6773 222.044 19.8245 217.729C23.5347 212.64 23.2455 205.734 22.3672 199.499C21.1016 190.513 18.9247 181.6 15.1465 173.348C13.791 170.388 12.0845 167.365 9.23786 165.785C5.68027 163.811 2.55818 165.457 0.00146484 168.021" fill="#376BA1"/>
<path d="M61.7345 236.637C61.7345 236.637 17.7354 232.967 9.26143 233.665C0.787333 234.364 19.8899 219.422 29.0488 217.328C38.2075 215.235 71.9864 214.538 70.1808 218.259C68.3752 221.982 67.9744 235.007 61.7345 236.637Z" fill="#376BA1"/>
<path d="M66.44 196.52C66.7536 196.568 75.528 197.886 77.5127 198.183C79.4974 198.482 83.5817 201.869 84.4511 202.482C85.3205 203.094 82.8601 204.54 81.3952 203.626C79.9304 202.713 79.8311 201.949 77.1101 202.29C74.3888 202.628 71.6466 203.818 69.6359 202.983C67.625 202.147 65.7266 201.275 65.7266 201.275L66.346 197.148L66.44 196.52Z" fill="#FCD0C8"/>
<path d="M65.9438 200.004C66.2607 200.004 75.1333 200.004 77.1403 200.004C79.1475 200.004 83.6894 202.75 84.6401 203.226C85.5908 203.703 83.3724 205.497 81.7881 204.812C80.2037 204.125 79.9923 203.385 77.3517 204.125C74.7109 204.864 72.1759 206.448 70.0634 205.92C67.9508 205.392 65.9438 204.812 65.9438 204.812V200.64V200.004Z" fill="#FCD0C8"/>
<path d="M65.9172 200.004H65.7266L65.9504 198.519L66.0436 197.894C66.0657 197.898 66.1294 197.907 66.2298 197.923L65.9172 200.004Z" fill="#F5B4B2"/>
<path d="M79.598 200.664C78.6549 200.277 77.7721 200.004 77.1403 200.004C75.1334 200.004 66.2607 200.004 65.9439 200.004H65.9175L66.2302 197.923C67.5577 198.121 75.2714 199.28 77.1158 199.557C77.7767 199.656 78.6692 200.097 79.598 200.664Z" fill="#F5A5A0"/>
<path d="M80.5127 201.254C79.1184 200.582 77.6648 200.004 76.7439 200.004H65.9438C66.2607 200.004 75.1333 200.004 77.1403 200.004C77.7721 200.004 78.6549 200.276 79.5979 200.664C79.9014 200.85 80.2085 201.048 80.5127 201.254Z" fill="#F5A5A0"/>
<path d="M68.6919 258.336C68.6919 258.608 68.6919 261.727 68.6919 261.931C68.6919 262.133 73.6431 264.711 74.05 264.78C74.457 264.848 74.8029 261.298 74.8029 261.298L75.4066 257.115L68.6919 258.336Z" fill="#FCD0C8"/>
<path d="M68.5624 261.298C68.5624 261.298 66.3919 265.368 66.7989 269.573C67.2058 273.779 69.3761 272.558 71.5467 272.828C73.7164 273.1 73.446 272.016 73.446 272.016C73.494 272.207 74.5852 272.521 74.7454 272.583C75.876 273.02 77.0488 273.354 78.2402 273.579C79.749 273.864 81.2939 273.936 82.8252 273.841C84.0733 273.765 86.1032 273.754 87.178 273.076C88.8781 271.999 88.6198 269.953 87.0277 268.985C83.9077 267.086 79.2581 267.81 77.7084 265.368C76.1587 262.925 74.8024 261.298 74.8024 261.298C74.8024 261.298 70.0546 262.113 68.5624 261.298Z" fill="#273773"/>
<path d="M57.147 264.58C57.147 264.86 57.147 268.1 57.147 268.311C57.147 268.523 62.2875 271.199 62.7101 271.269C63.1326 271.339 63.4917 267.655 63.4917 267.655L64.1185 263.311L57.147 264.58Z" fill="#FCD0C8"/>
<path d="M77.624 235.839C77.624 240.771 76.0184 259.485 75.7375 259.908C75.6065 260.104 74.2883 260.149 72.7883 260.098C71.0602 260.038 69.0912 259.852 68.4132 259.627C68.1659 259.545 68.0182 258.831 67.9337 257.754C67.9209 257.598 67.9104 257.433 67.9019 257.261C67.6781 253.19 68.1766 245.218 68.0244 244.409C68.0011 244.285 67.9632 244.327 67.9062 244.572C67.3442 246.967 65.878 263.289 65.033 265.118C64.8197 265.582 64.3803 265.883 63.8119 266.071C62.1325 266.628 59.325 266.209 57.8504 266.104C55.8791 265.964 56.2446 264.493 56.3861 262.523C56.3989 262.356 56.4179 262.133 56.4412 261.863C56.6927 258.978 57.4954 250.595 56.4179 245.783C56.401 245.704 56.3843 245.63 56.3674 245.556C55.1081 240.348 56.0757 231.897 56.3589 230.14C56.6398 228.382 49.738 228.234 44.9152 229.5C40.0921 230.769 20.1622 230.065 18.4826 228.094C17.5531 227.002 17.1749 223.446 17.0227 220.493C16.9004 218.112 16.9219 215.124 16.9219 215.124C16.9219 215.124 16.9236 216.122 17.7685 215.699C18.6136 215.276 40.5844 209.08 45.7959 208.375C51.0057 207.671 64.1035 210.349 69.1737 211.194C74.2439 212.038 76.217 214.433 76.6395 216.968C77.0621 219.503 77.624 230.911 77.624 235.839Z" fill="#273773"/>
<path d="M37.1996 155.324C37.1996 155.324 36.4494 148.67 37.1996 146.874C37.9498 145.078 37.8426 144.973 39.2359 142.966C40.629 140.959 42.0221 138.318 46.2016 138.212C50.3814 138.107 50.4884 139.163 52.0961 139.163C53.7037 139.163 59.3826 141.029 60.24 143.247C61.0972 145.466 60.7715 148.85 59.3782 149.589C57.9851 150.329 54.7773 147.508 53.0626 146.663C51.3479 145.818 51.7745 146.98 51.8817 147.93C51.9888 148.881 51.2386 150.994 50.4884 151.31C49.7382 151.627 48.6529 151.205 48.7669 152.261C48.881 153.317 47.3806 156.697 47.3806 157.965C47.3806 159.232 48.6667 161.979 49.6312 161.451C50.5957 160.923 52.5216 159.149 53.918 159.338C55.3082 159.526 55.7133 159.756 55.7133 159.756C55.7133 159.756 55.5042 162.16 54.2895 162.23C54.2895 162.23 51.8461 161.204 51.2029 162.12C51.2029 162.12 52.2747 163.106 53.3464 163.246C54.418 163.387 53.8464 171.063 49.2024 168.598C44.5585 166.133 42.2723 162.12 43.7727 159.585C45.273 157.05 45.8446 157.12 46.2732 155.923C46.7018 154.726 47.4163 152.05 46.3446 151.346C45.273 150.642 43.5584 149.867 42.6295 151.979C41.7007 154.092 40.7006 156.979 38.7 156.205C36.6994 155.43 37.1996 155.324 37.1996 155.324Z" fill="#313C6A"/>
<path d="M26.3604 185.822C25.735 184.552 25.3506 183.728 25.3252 183.671C25.7942 183.939 26.128 184.723 26.3604 185.822Z" fill="#273773"/>
<path d="M68.6121 196.791C67.7037 196.5 62.7645 194.906 60.7934 193.949C58.6175 192.892 54.6395 191.555 52.9496 189.337C51.2594 187.119 50.2032 188.433 49.4637 185.822C48.7308 183.236 46.0308 174.612 45.5682 173.626L45.5556 173.598C45.3592 173.205 44.5014 172.204 43.6373 171.243C43.1761 170.727 42.7145 170.226 42.3513 169.836C40.3491 166.305 34.362 159.092 32.9625 159.867C32.9625 159.867 23.1392 164.303 21.0266 175.288C18.9139 186.274 14.8275 215.542 17.3625 216.598C18.0322 216.877 20.2736 217.399 23.2312 218.007C31.485 219.705 45.1773 220.913 45.9549 220.602C47.0112 220.181 47.5392 208.455 47.6448 206.871C47.6492 206.815 47.6512 206.739 47.6512 206.636C47.6533 206.529 47.6543 206.392 47.6545 206.236C51.0198 206.405 66.2311 207.158 66.8565 206.908C67.3868 206.694 66.8755 202.345 66.4721 199.928C66.3411 199.142 66.2227 198.558 66.1532 198.385C66.2208 198.047 67.3953 196.473 68.6121 196.791Z" fill="#273773"/>
<path d="M36.4476 155.641C36.4476 155.641 32.6451 159.866 32.9621 159.866C33.279 159.866 41.8348 165.465 42.1516 172.014L45.2149 168.422C45.2149 168.422 38.9828 156.486 36.4476 155.641Z" fill="white"/>
<path d="M47.2143 213.702C46.9354 217.048 46.5256 220.381 45.9721 220.602C45.1947 220.913 31.197 219.731 22.9454 217.943C22.9918 216.522 23.3866 214.109 23.6846 212.962C24.5295 209.721 21.1494 204.229 21.5719 202.539C21.9945 200.85 25.9387 203.665 26.3611 200.708C26.6949 198.375 27.2464 189.917 26.378 185.821C28.6849 190.498 34.2685 201.238 37.3466 202.116C41.2887 203.243 46.9228 206.623 47.6264 206.623L47.6685 206.636C47.6685 206.737 47.6664 206.815 47.6623 206.871C47.6241 207.444 47.5292 209.358 47.3749 211.582L47.2143 213.702Z" fill="#273773"/>
<path d="M49.4653 189.654C50.2047 192.265 51.261 190.951 52.9509 193.169C54.455 195.142 63.9087 197.383 66.1525 198.385C61.3378 197.632 49.2307 195.736 48.7576 195.675C47.9568 195.569 42.9923 172.261 43.6366 171.243C44.5007 172.204 44.2395 173.417 44.4359 173.809" fill="#273773"/>
<path d="M63.8116 266.071C62.1322 266.628 59.3247 266.209 57.8502 266.104C55.8789 265.964 56.2444 264.493 56.3859 262.523C56.3987 262.356 56.4176 262.133 56.4409 261.863C56.6924 258.978 57.4952 250.595 56.4176 245.783C56.4007 245.704 56.384 245.63 56.3671 245.556C55.1079 240.348 56.0754 231.897 56.3586 230.14C56.6396 228.382 49.7378 228.234 44.9149 229.5C40.0918 230.769 20.1619 230.065 18.4824 228.094C17.5528 227.002 17.1747 223.446 17.0225 220.493C17.0458 220.947 17.8697 221.955 18.1063 222.347C18.8351 223.556 19.6822 224.618 20.7132 225.583C23.9877 228.636 29.9619 227.929 34.1175 227.887C40.7318 227.821 47.3358 227.611 53.9418 227.611C57.8502 227.611 60.968 229.857 61.7075 229.857C62.447 229.857 60.9681 231.443 60.9681 232.182C60.9681 232.922 62.2906 232.922 62.4744 233.238C62.6582 233.555 59.4893 233.661 60.1232 236.09C60.7568 238.52 61.4963 239.892 60.7568 244.223C60.0174 248.555 58.8557 260.566 59.912 262.785C60.6535 264.345 63.5055 264.963 63.8116 266.071Z" fill="#1E2745"/>
<path d="M72.7884 260.097C71.0603 260.038 69.0913 259.852 68.4133 259.627C68.166 259.545 68.0184 258.831 67.9338 257.754C67.9528 257.523 67.9484 257.346 67.902 257.261C67.6782 253.19 68.1768 245.217 68.0245 244.409C68.6499 237.018 69.8941 224.195 69.8941 223.877C69.8941 223.877 70.9504 233.489 71.056 237.821C71.1616 242.15 70.4224 253.031 72.3237 258.311C72.5898 259.052 72.7377 259.64 72.7884 260.097Z" fill="#1E2745"/>
<path d="M70.0374 223.023C70.0413 221.773 69.1742 220.689 68.2155 219.888C65.1894 217.364 60.6511 216.794 56.9169 215.905C56.2323 215.742 47.1825 213.869 47.1963 213.702C47.2555 212.987 47.3083 212.269 47.357 211.582C51.189 212.306 60.5435 214.185 64.961 216.06C67.9841 217.345 69.9535 219.723 70.0374 223.023Z" fill="#1E2745"/>
<path d="M77.2059 279.037C77.0093 279.35 76.7222 279.641 76.3398 279.882C75.2243 280.588 73.1181 280.598 71.8209 280.678C70.2323 280.775 68.6267 280.699 67.0614 280.406C65.8234 280.173 64.6066 279.827 63.432 279.373C63.2671 279.307 62.1327 278.981 62.0842 278.781C62.0842 278.783 62.3652 279.907 60.1111 279.627C57.8591 279.344 55.6048 280.612 55.1824 276.246C55.1442 275.852 55.1273 275.462 55.1296 275.078C55.1465 271.157 57.014 267.657 57.014 267.657C58.5625 268.501 63.4911 267.657 63.4911 267.657C63.4911 267.657 64.9001 269.346 66.51 271.881C68.1177 274.416 72.9449 273.663 76.1855 275.635C77.4806 276.423 77.9241 277.898 77.2059 279.037Z" fill="#273773"/>
<path d="M77.2059 279.037C77.0093 279.35 76.7222 279.641 76.3398 279.882C75.2243 280.588 73.1181 280.598 71.8209 280.678C70.2323 280.775 68.6267 280.699 67.0614 280.406C65.8234 280.173 64.6066 279.827 63.432 279.373C63.2671 279.307 62.1327 278.981 62.0842 278.781C62.0842 278.783 62.3652 279.907 60.1111 279.627C57.8591 279.344 55.6048 280.612 55.1824 276.246C55.1442 275.852 55.1273 275.462 55.1296 275.078C57.1089 275.835 66.3114 279.311 69.2585 279.437C72.0788 279.558 75.5116 279.73 77.2059 279.037Z" fill="#313C6A"/>
<path d="M88.0007 272.261C87.8116 272.564 87.535 272.842 87.1668 273.076C86.093 273.754 84.0654 273.764 82.8167 273.841C81.2874 273.936 79.7417 273.861 78.2347 273.579C77.0429 273.356 75.8715 273.022 74.7408 272.585C74.582 272.521 73.49 272.209 73.4432 272.015C73.4432 272.017 73.7138 273.098 71.5437 272.828C69.3759 272.558 67.2057 273.779 66.799 269.575C66.7625 269.196 66.746 268.82 66.7483 268.449C68.6537 269.179 77.5128 272.525 80.3498 272.649C83.0648 272.764 86.3698 272.929 88.0007 272.261Z" fill="#313C6A"/>
<path d="M347.379 282.76L341.331 246.074C341.314 245.956 341.203 245.878 341.086 245.896C340.969 245.915 340.89 246.026 340.909 246.142L346.945 282.76H347.379Z" fill="#376BA1"/>
<path d="M325.8 282.76L331.836 246.142C331.856 246.026 331.776 245.915 331.66 245.896C331.543 245.877 331.433 245.956 331.413 246.073L325.367 282.76H325.8Z" fill="#376BA1"/>
<path d="M333.321 282.76L333.488 245.49C333.488 245.372 333.393 245.275 333.275 245.275H333.273C333.156 245.275 333.059 245.37 333.059 245.488L332.892 282.76H333.321Z" fill="#273773"/>
<path d="M340.15 282.76L340.313 246.436C340.313 246.317 340.217 246.222 340.098 246.22C339.979 246.22 339.883 246.317 339.883 246.435L339.72 282.76H340.15Z" fill="#273773"/>
<path d="M354.081 242.317C354.081 243.178 353.034 243.98 351.226 244.65C348.954 245.498 345.483 246.137 341.395 246.432C341.256 246.445 341.11 246.455 340.964 246.463C340.749 246.478 340.532 246.49 340.315 246.502C340.172 246.511 340.028 246.519 339.885 246.527C338.72 246.585 337.513 246.614 336.279 246.614C335.327 246.614 334.395 246.597 333.483 246.562C333.34 246.556 333.196 246.552 333.055 246.544C332.623 246.527 332.199 246.502 331.782 246.476C331.637 246.465 331.498 246.459 331.354 246.449C327.071 246.15 323.447 245.475 321.147 244.58C319.452 243.92 318.477 243.147 318.477 242.317C318.477 242.276 318.479 242.237 318.484 242.202C318.501 242.043 318.553 241.886 318.642 241.734C319.124 241.156 320.675 240.632 322.963 240.218C326.223 239.624 330.978 239.25 336.279 239.25C341.972 239.25 347.04 239.681 350.299 240.352C352.199 240.746 353.488 241.218 353.918 241.734C354.007 241.886 354.059 242.043 354.076 242.202C354.078 242.237 354.081 242.276 354.081 242.317Z" fill="#273773"/>
<path d="M354.081 242.119C354.081 242.146 354.078 242.175 354.076 242.202C353.987 242.715 353.058 243.194 351.502 243.607C348.378 244.436 342.731 244.99 336.279 244.99C329.855 244.99 324.223 244.44 321.092 243.619C319.515 243.202 318.57 242.717 318.484 242.202C318.479 242.175 318.477 242.146 318.477 242.119C318.477 241.989 318.531 241.861 318.642 241.734C319.124 241.156 320.675 240.632 322.963 240.218C326.223 239.623 330.978 239.25 336.279 239.25C341.972 239.25 347.04 239.681 350.299 240.352C352.199 240.746 353.488 241.218 353.918 241.734C354.029 241.861 354.081 241.989 354.081 242.119Z" fill="#376BA1"/>
<path d="M345.269 272.028C345.231 272.028 345.193 272.016 345.159 271.989L329.34 259.145C329.265 259.085 329.255 258.974 329.316 258.899C329.378 258.823 329.488 258.813 329.564 258.873L345.38 271.717C345.456 271.778 345.466 271.888 345.407 271.964C345.371 272.008 345.32 272.028 345.269 272.028Z" fill="#376BA1"/>
<path d="M327.389 272.028C327.336 272.028 327.286 272.007 327.252 271.964C327.191 271.888 327.203 271.778 327.277 271.716L343.095 258.872C343.168 258.813 343.28 258.825 343.341 258.899C343.402 258.973 343.39 259.085 343.316 259.145L327.498 271.989C327.467 272.016 327.427 272.028 327.389 272.028Z" fill="#376BA1"/>
<path d="M322.938 240.224C322.941 240.222 322.943 240.22 322.945 240.218C326.204 239.623 330.959 239.25 336.259 239.25C336.261 239.25 336.265 239.25 336.267 239.25C330.972 239.25 326.221 239.623 322.963 240.218C322.955 240.22 322.947 240.222 322.938 240.224Z" fill="#DFB8B7"/>
<path d="M336.259 244.99C329.835 244.99 324.203 244.44 321.074 243.619C321.074 243.617 321.074 243.615 321.074 243.613C321.08 243.615 321.086 243.617 321.092 243.619C324.222 244.44 329.85 244.99 336.268 244.99C336.266 244.99 336.262 244.99 336.259 244.99Z" fill="#D76E7B"/>
<path d="M336.267 244.99C329.849 244.99 324.222 244.44 321.093 243.619C321.086 243.617 321.08 243.614 321.073 243.613C321.131 242.416 321.66 241.22 322.939 240.224C322.947 240.222 322.956 240.22 322.963 240.217C326.221 239.623 330.973 239.25 336.267 239.25C341.959 239.25 347.023 239.681 350.28 240.352C350.924 241.263 351.546 242.453 351.481 243.606C348.36 244.436 342.716 244.99 336.267 244.99Z" fill="#273773"/>
<path d="M335.978 175.094C336.024 175.808 335.648 176.577 335.117 177.345C334.155 178.745 332.689 180.125 332.364 181.103C331.86 182.617 333.185 185.56 333.185 185.56C333.185 185.56 332.573 188.586 330.806 189.469C330.701 189.523 330.58 189.57 330.45 189.611C328.461 190.207 323.555 189.081 324.25 186.99C324.465 186.346 324.503 185.665 324.453 185.017C324.32 183.432 324.25 182.072 324.25 182.072C322.738 183.248 320.341 182.868 319.798 182.406C319.248 181.946 318.24 180.81 317.274 178.877C316.308 176.942 316.391 175.177 316.438 174.381C316.484 173.581 316.685 173.624 316.438 172.487C316.194 171.352 316.223 168.574 316.438 168.409C316.606 167.526 316.83 166.648 317.09 165.788C317.349 164.926 317.581 164.036 318.033 163.251C318.547 162.359 319.174 162.052 320.181 161.949C323.254 161.633 326.838 160.777 329.747 162.231C332.476 163.447 333.697 167.973 334.97 168.663C337.996 170.301 335.851 173.075 335.978 175.094Z" fill="#FCD0C8"/>
<path d="M333.187 185.56C333.187 185.56 332.597 184.249 332.354 182.926C332.597 184.248 333.187 185.56 333.187 185.56C333.187 185.56 333.187 185.56 333.187 185.56ZM332.537 180.717C333.049 179.779 334.276 178.571 335.12 177.346C335.12 177.346 335.12 177.346 335.12 177.345C334.276 178.57 333.051 179.779 332.537 180.717Z" fill="#F8CACA"/>
<path d="M331.615 186.738C331.586 186.028 331.396 185.037 331.2 183.247C330.759 179.194 334.913 177.5 335.119 177.346C334.276 178.571 333.048 179.779 332.537 180.717C332.465 180.852 332.407 180.98 332.366 181.103C332.197 181.606 332.232 182.267 332.353 182.926C332.597 184.248 333.187 185.56 333.187 185.56C332.648 186.036 332.122 186.424 331.615 186.738Z" fill="#F6B1AA"/>
<path d="M331.935 160.791C331.935 160.791 333.171 158.383 336.049 158.736C338.932 159.089 340.978 163.033 340.566 164.856C340.156 166.678 338.731 168.09 336.263 166.672C333.794 165.253 331.935 161.278 331.935 161.278V160.791Z" fill="#1D2745"/>
<path d="M316.791 163.964C316.791 163.964 318.838 157.44 327.009 158.968C335.181 160.497 337.357 164.436 337.887 167.787C338.416 171.138 336.006 174.607 336.006 174.607C336.006 174.607 335.653 170.08 332.27 173.02C330.524 174.54 328.604 170.36 328.342 168.72C328.079 167.079 318.036 162.785 316.791 163.964Z" fill="#1D2745"/>
<path d="M315.885 169.015C315.885 169.015 314.077 162.025 321.073 161.319C328.07 160.614 328.364 169.08 328.364 169.08L323.777 168.962L323.249 166.199L323.121 169L319.074 169.021L318.664 167.492L318.544 168.962L318.074 168.316L317.956 168.962L315.885 169.015Z" fill="#1C233D"/>
<path d="M305.042 185.61L305.04 185.62C305.007 185.726 304.968 185.834 304.926 185.943C304.829 186.182 304.751 186.409 304.689 186.624C304.283 188.011 304.502 188.914 304.551 189.559C304.611 190.306 301.511 190.132 301.511 190.132L301.319 189.33C301.319 189.33 300.816 188.521 300.129 187.643C299.815 187.239 299.465 186.823 299.102 186.465L299.099 186.46C297.864 185.224 297.602 183.395 296.831 181.892C296.121 180.51 294.593 178.952 295.987 177.393C297.377 175.845 299.407 178.049 300.267 179.128C300.492 179.406 302.028 182.2 302.371 181.754C302.946 181.007 302.829 178.483 303.633 177.966C304.44 177.449 305.184 177.736 304.84 178.767C304.493 179.801 304.093 180.606 304.44 181.524C304.671 182.144 305.139 183.133 305.199 184.258V184.263C305.221 184.697 305.18 185.148 305.042 185.61Z" fill="#FCD0C8"/>
<path d="M301.168 189.097C300.97 188.794 300.591 188.234 300.129 187.643C300.568 187.96 301.158 188.217 301.913 188.217C302.216 188.217 302.544 188.176 302.901 188.081C303.802 187.842 304.353 187.282 304.689 186.624C304.504 187.258 304.448 187.791 304.448 188.244C304.448 188.325 304.45 188.403 304.452 188.479C304.419 188.478 304.386 188.477 304.351 188.477C303.363 188.477 301.928 188.867 301.168 189.097Z" fill="#F6B1AA"/>
<path d="M290.08 282.221C289.591 282.659 288.438 285.827 287.204 288.632C286.202 290.917 285.144 292.96 284.345 293.094C282.854 293.343 281.456 291.367 280.412 290.585C278.269 288.981 275.651 288.605 273.329 287.353C271.747 286.503 266.609 282.1 270.647 281.188C272.038 280.872 273.368 281.06 274.657 281.475C276.328 282.009 277.924 282.925 279.492 283.632C280.251 283.977 281.037 284.43 281.85 283.968C282.369 283.671 283.496 280.544 283.557 280.544C283.557 280.544 290.969 281.433 290.08 282.221Z" fill="#FCD0C8"/>
<path d="M287.204 288.632C286.202 290.917 285.144 292.96 284.345 293.094C282.854 293.343 281.456 291.367 280.412 290.585C278.269 288.981 275.651 288.605 273.329 287.353C271.747 286.503 266.609 282.1 270.647 281.188C272.038 280.872 273.368 281.06 274.657 281.475C274.257 284.876 277.627 285.286 281.678 287.461C284.257 288.845 286.117 288.828 287.204 288.632Z" fill="#1E2745"/>
<path d="M326.85 292.605C325.819 293.636 323.614 292.877 322.358 292.848C319.776 292.795 317.513 293.966 314.99 294.288C313.344 294.5 307.305 293.987 309.143 291.316C309.225 291.196 309.32 291.076 309.425 290.959C310.341 289.932 311.49 289.331 312.734 288.935C314.343 288.416 316.108 288.238 317.736 287.912C318.524 287.758 319.394 287.671 319.771 286.85C320.013 286.328 319.138 283.244 319.19 283.209C319.19 283.209 325.499 279.748 325.244 280.866C325.105 281.481 325.98 284.612 326.589 287.502V287.506L326.595 287.529C327.086 289.876 327.397 292.056 326.85 292.605Z" fill="#FCD0C8"/>
<path d="M326.85 292.605C325.819 293.636 323.614 292.877 322.358 292.848C319.776 292.795 317.513 293.966 314.99 294.288C313.344 294.5 307.305 293.987 309.143 291.316C309.225 291.196 309.32 291.076 309.425 290.959C310.341 289.932 311.49 289.331 312.734 288.935C314.328 291.825 317.201 290.255 321.597 289.686C324.396 289.323 325.842 288.269 326.589 287.506L326.595 287.529C327.086 289.876 327.397 292.056 326.85 292.605Z" fill="#1E2745"/>
<path d="M349.843 237.837C346.801 243.223 338.093 242.653 332.846 243.549C332.388 243.627 330.746 243.831 328.694 244.141C326.475 244.477 323.779 244.939 321.586 245.5C320.757 245.712 320.001 245.939 319.368 246.178C318.156 246.636 317.402 247.144 317.473 247.684C317.812 250.207 328.91 285.515 328.91 286.524C328.91 287.062 325.669 287.266 322.636 287.06C319.975 286.879 317.471 286.382 317.471 285.515C317.473 283.667 313.777 271.163 311.422 266.401C309.141 261.791 305.916 249.654 305.717 248.901L305.712 248.889L305.706 248.862L305.7 248.87L289.731 284.34C289.731 284.34 287.061 283.762 284.468 282.925C282.021 282.137 279.642 281.116 279.642 280.136C279.642 278.119 283.343 272.682 284.857 269.264C286.369 265.844 293.766 242.503 297.132 239.293C300.491 236.084 315.795 228.687 318.987 227.342C322.183 225.995 324.328 224.82 324.602 217.254L328.46 217.017L332.932 216.744L340.264 216.295L344.256 216.051C344.256 216.051 344.377 220.952 347.069 224.317C349.726 227.637 352.126 233.788 349.843 237.837Z" fill="#313B6A"/>
<path d="M327.715 228.819L324.704 229.725C325.687 229.37 327.092 228.723 328.062 227.677C329.01 226.656 327.8 221.324 326.61 217.017L331.081 216.745C331.083 216.772 331.088 216.802 331.09 216.833C331.226 218.756 331.213 221.835 331.174 224.242C331.139 226.359 329.743 228.209 327.715 228.819Z" fill="#1E2745"/>
<path d="M349.844 237.837C346.802 243.223 338.094 242.653 332.846 243.549C332.388 243.627 330.747 243.831 328.694 244.141C329.764 243.46 333.183 243.012 341.345 237.765C350.764 231.713 340.001 218.093 340.001 216.745C340.001 216.745 340.101 216.573 340.265 216.295L344.257 216.052C344.257 216.052 344.378 220.952 347.07 224.317C349.727 227.637 352.127 233.788 349.844 237.837Z" fill="#1E2745"/>
<path d="M303.945 240.216C303.926 240.308 303.85 240.663 303.726 241.234C303.804 240.663 303.914 240.306 303.945 240.216Z" fill="#1E2745"/>
<path d="M305.699 248.87L289.73 284.34C289.73 284.34 287.059 283.762 284.466 282.925C284.06 282.03 284.489 281.081 285.665 279.158C288.439 274.618 293.862 274.29 297.393 264.429C300.353 256.156 302.962 244.71 303.725 241.235C303.525 242.701 303.542 245.576 305.699 248.87Z" fill="#1E2745"/>
<path d="M305.716 248.893V248.901L305.712 248.889L305.716 248.893Z" fill="#1E2745"/>
<path d="M328.909 286.524C328.909 287.493 323.288 287.077 322.661 287.06C323.8 286.893 324.363 284.364 324.633 283.494C325.247 281.512 325.646 279.352 325.435 277.273C325.217 275.12 324.439 273.076 323.87 271.001C322.085 264.481 319.942 258.053 317.731 251.667C317.698 251.57 317.086 249.984 317.133 249.955C317.131 249.955 315.454 250.964 316.294 249.619C317.133 248.274 316.463 248.19 314.445 248.107C312.426 248.023 310.324 247.519 312.845 247.014C315.367 246.511 316.463 247.684 315.706 247.014C314.949 246.342 313.35 244.745 316.124 245.836C317.304 246.3 318.439 246.319 319.367 246.179C318.156 246.637 317.401 247.144 317.473 247.684C317.812 250.207 328.909 285.513 328.909 286.524Z" fill="#1E2745"/>
<path d="M346.468 197.496C345.799 202.962 346.051 216.076 344.2 216.915C342.349 217.757 316.29 217.336 315.785 216.915C315.348 216.553 315.668 214.362 315.762 213.78C315.776 213.691 315.838 213.619 315.923 213.591L322.091 211.454C322.091 211.454 322.072 211.427 322.034 211.381C321.589 210.814 318.558 206.928 318.558 206.07C318.558 206.07 312.337 218.139 307.799 217.402C303.258 216.664 300.653 189.259 300.653 189.259C300.653 189.259 304.855 187.828 305.36 188.837C305.863 189.848 309.647 204.139 309.647 204.139C309.647 204.139 312.81 197.52 315.193 193.783C315.921 192.646 316.575 191.776 317.046 191.444C319.065 190.014 324.329 186.743 324.329 186.743L324.332 186.747C324.353 186.768 324.487 186.879 324.719 187.025L324.728 187.032C324.77 187.057 324.815 187.083 324.864 187.112C326.084 187.822 329.27 189.02 333.187 185.559C333.187 185.559 335.102 186.04 337.321 186.661C339.376 187.234 341.691 187.925 342.99 188.457L342.992 188.459C343.333 188.598 343.601 188.723 343.78 188.837C345.378 189.848 347.143 192.034 346.468 197.496Z" fill="#273773"/>
<path d="M315.192 193.784C314.999 194.661 314.671 195.834 314.289 197.496C313.472 201.073 310.593 208.342 310.593 206.828C310.593 205.316 309.646 204.14 309.646 204.14C309.646 204.14 312.81 197.521 315.192 193.784Z" fill="#273773"/>
<path d="M322.089 211.454C322.089 211.454 335.644 209.771 337.746 209.435C337.746 209.435 338.081 201.889 338.923 200.408C338.923 200.408 337.291 205.346 333.051 208.51C330.452 210.449 326.876 211.006 322.089 211.454Z" fill="#273773"/>
<path d="M322.034 211.382C321.589 210.815 318.561 206.929 318.561 206.071C318.561 206.071 320.704 209.268 323.635 209.519C326.003 209.723 324.369 211.025 322.034 211.382Z" fill="#273773"/>
<path d="M346.468 197.496C345.799 202.962 346.051 216.076 344.2 216.916C342.351 217.757 316.29 217.337 315.785 216.916C315.785 216.916 338.842 217.254 341.278 214.985C343.714 212.714 345.399 206.324 345.312 202.374C345.229 198.422 346.136 192.704 342.992 188.46C343.333 188.598 343.601 188.724 343.78 188.838C345.378 189.847 347.143 192.033 346.468 197.496Z" fill="#273773"/>
<path d="M337.321 186.661C335.802 187.986 331.332 189.797 328.455 189.048C325.322 188.233 324.742 187.117 324.72 187.026L324.728 187.033C324.749 187.049 324.794 187.076 324.865 187.113C326.083 187.823 329.27 189.021 333.188 185.56C333.188 185.56 335.102 186.04 337.321 186.661Z" fill="#283B82"/>
<path d="M316.214 216.99C315.636 217.141 314.817 217.349 313.974 217.549C312.798 217.826 311.445 217.267 310.013 216.755C309.545 216.586 309.067 216.425 308.584 216.295C307.101 215.903 306.655 216.107 306.012 216.437C305.808 216.541 305.585 216.658 305.302 216.776C304.304 217.184 302.969 216.336 303.027 215.866C303.035 215.786 303.089 215.718 303.194 215.668C303.473 215.536 304.174 215.152 305.005 214.74C306.272 214.115 307.843 213.418 308.739 213.418C309.506 213.418 311.637 213.537 313.547 213.653C314.394 213.7 315.199 213.752 315.818 213.789C315.772 214.061 315.675 214.662 315.63 215.266C315.578 215.988 315.593 216.72 315.844 216.916C315.877 216.941 316.001 216.968 316.214 216.99Z" fill="#FCD0C8"/>
<path d="M313.309 217.623C312.346 217.623 311.288 217.215 310.18 216.815C310.125 216.794 310.069 216.774 310.013 216.755C309.545 216.586 309.066 216.425 308.584 216.295C308.006 216.142 307.587 216.081 307.251 216.081C306.89 216.081 306.628 216.153 306.371 216.264C306.253 216.314 306.135 216.373 306.012 216.437C305.807 216.541 305.585 216.658 305.302 216.776C305.116 216.85 304.92 216.883 304.725 216.883C304.576 216.883 304.425 216.864 304.281 216.831C303.813 216.724 303.392 216.47 303.178 216.219C303.081 216.107 303.027 215.996 303.025 215.899C303.025 215.889 303.027 215.878 303.027 215.866C303.213 216.062 303.477 216.243 303.939 216.243C304.192 216.243 304.506 216.188 304.902 216.052C305.937 215.693 306.552 215.324 307.398 215.324C307.831 215.324 308.328 215.421 308.974 215.668C309.97 216.048 311.261 216.32 312.464 216.32C313.555 216.32 314.572 216.095 315.23 215.522C315.364 215.406 315.498 215.321 315.63 215.266C315.615 215.472 315.605 215.678 315.605 215.874C315.605 216.361 315.665 216.776 315.844 216.916C315.877 216.941 316.001 216.967 316.213 216.99C316.203 216.992 316.193 216.994 316.185 216.996C315.609 217.147 314.803 217.353 313.973 217.549C313.757 217.601 313.536 217.623 313.309 217.623Z" fill="#F6B1AA"/>
<path d="M305.042 185.61C305.148 185.139 305.185 184.667 305.199 184.263C305.222 184.697 305.181 185.149 305.042 185.61Z" fill="#376BA1"/>
<path d="M339.011 167.062V167.065C338.654 167.225 338.246 167.288 337.778 167.227C337.275 164.864 335.867 162.295 332.092 160.527C332.237 160.313 332.485 159.995 332.843 159.685C335.544 161.026 338.941 163.42 339.011 167.062Z" fill="#1C233D"/>
<path d="M324.454 185.017C324.322 183.431 324.252 182.072 324.252 182.072C324.252 182.072 328.751 180.011 329.043 178.289C329.338 176.563 329.297 176.185 329.297 176.185C329.297 176.185 330.095 178.751 329.004 179.929C328.206 180.787 325.941 183.454 324.454 185.017Z" fill="#F6B1AA"/>
<path d="M316.793 170.709C315.411 170.709 314.287 171.833 314.287 173.214C314.287 174.597 315.411 175.721 316.793 175.721C318.175 175.721 319.299 174.597 319.299 173.214C319.299 171.833 318.175 170.709 316.793 170.709ZM316.793 175.958C315.279 175.958 314.05 174.727 314.05 173.214C314.05 171.701 315.279 170.471 316.793 170.471C318.305 170.471 319.536 171.701 319.536 173.214C319.536 174.727 318.305 175.958 316.793 175.958Z" fill="white"/>
<path d="M323.635 170.557C322.168 170.557 320.976 171.749 320.976 173.214C320.976 174.68 322.168 175.872 323.635 175.872C325.099 175.872 326.292 174.68 326.292 173.214C326.292 171.749 325.099 170.557 323.635 170.557ZM323.635 176.125C322.03 176.125 320.725 174.819 320.725 173.214C320.725 171.61 322.03 170.304 323.635 170.304C325.24 170.304 326.545 171.61 326.545 173.214C326.545 174.819 325.24 176.125 323.635 176.125Z" fill="white"/>
<path d="M283.219 217.254H243.119C243.286 220.28 247.826 219.775 247.826 219.775H278.048H283.219H330.843C330.843 219.775 335.383 220.28 335.55 217.254H283.219Z" fill="#273773"/>
<path d="M227.746 105.149C226.732 102.345 224.459 100.3 221.674 99.3088C219.981 98.7061 217.53 98.0169 215.83 98.8123C213.661 99.8269 211.196 101.513 210.709 104.032C210.548 104.873 210.268 105.872 210.373 106.739C210.385 106.842 210.439 106.956 210.447 107.053C210.509 107.833 209.467 108.721 209.067 109.331C208.815 109.712 207.893 110.927 208.372 111.4C209.042 112.064 209.044 111.251 209.042 112.064C209.042 112.75 209.009 113.438 209.061 114.123C209.114 114.804 209.467 115.42 209.335 116.101C209.178 116.928 207.619 119.302 209.011 119.809C210.614 120.391 214.401 118.474 215.54 120.577C216.678 122.68 216.47 123.601 216.47 123.601L217.301 123.069C218.324 124.583 220.071 126.001 220.453 126.001C221.129 126.001 225.89 123.853 225.843 122.342C225.783 120.459 226.325 118.298 226.581 116.402C226.814 114.682 226.938 112.902 227.538 111.267C227.652 110.96 227.777 110.656 227.936 110.369C228.749 108.886 228.283 106.631 227.746 105.149Z" fill="#FCD0C8"/>
<path d="M175.244 107.61C175.244 107.637 175.242 107.666 175.242 107.695C175.169 110.286 177.011 112.022 177.568 110.492C177.744 110.009 177.886 109.51 178.016 109.073C178.292 108.124 178.503 107.472 178.843 107.953C179.014 108.196 178.991 108.784 178.905 109.541V109.543C178.744 110.974 178.365 113.008 178.659 114.473C179.06 116.457 183.478 122.531 184.499 123.916C184.635 124.099 184.711 124.2 184.711 124.2L179.175 131.949C179.175 131.949 178.845 130.273 178.354 128.053C177.482 124.12 176.1 118.481 175.141 117.466C173.639 115.879 171.219 112.786 171.139 109.518C171.061 106.253 171.873 105.352 173.451 104.192C174.703 103.275 175.143 104.386 175.231 106.177" fill="#FCD0C8"/>
<path d="M216.571 255.572C216.571 255.572 220.372 262.154 220.372 263.356C220.372 264.559 214.535 267.477 213.504 267.304C212.474 267.133 212.573 265.12 211.445 265.933C210.263 266.782 209.931 268.507 204.323 269.194C202.547 269.412 200.196 268.548 199.887 267.028C199.759 266.395 200.049 266.075 200.97 265.275C202.434 264.002 204.429 264.037 206.133 263.01C207.161 262.389 209.108 260.908 208.788 259.464C208.444 257.919 215.541 256.257 216.571 255.572Z" fill="#1E2745"/>
<path d="M232.22 256.828C232.22 257.348 233.765 263.185 233.594 264.215C233.421 265.246 226.872 265.302 226.872 264.788C226.872 264.272 226.816 264.043 225.442 264.043C224.069 264.043 219.857 265.993 217.454 265.448C215.051 264.901 210.243 264.039 212.819 262.668C215.393 261.296 219.17 261.296 220.372 260.093C221.575 258.893 222.843 256.146 222.843 256.146L232.22 256.828Z" fill="#1E2745"/>
<path d="M234.827 190.5C233.453 196.91 232.121 192.103 233.474 206.526C234.827 220.948 231.393 221.864 231.853 229.189C232.309 236.513 234.136 241.55 233.453 247.503C232.767 253.456 233.598 256.43 231.807 256.89C230.201 257.303 224.116 259.376 222.406 256.962C222.214 256.69 222.076 256.364 222.008 255.974C221.797 254.788 221.568 253.027 221.327 251.036C220.785 246.488 220.195 240.742 219.716 237.881C219.031 233.766 216.971 220.948 216.971 217.283V202.152C216.971 201.588 216.971 201.261 216.971 201.261C216.971 201.261 211.476 216.14 210.333 220.948C210.207 221.477 210.15 222.05 210.15 222.66C210.15 222.788 210.152 222.918 210.158 223.05C210.16 223.155 210.166 223.263 210.174 223.37V223.374C210.176 223.42 210.181 223.467 210.185 223.514C210.193 223.628 210.203 223.741 210.214 223.857V223.861C210.228 223.997 210.245 224.135 210.263 224.273C210.28 224.412 210.3 224.55 210.321 224.69C210.35 224.861 210.379 225.035 210.41 225.212C210.428 225.309 210.447 225.408 210.465 225.509C210.878 227.607 211.633 229.95 212.402 232.347C212.466 232.551 212.532 232.753 212.598 232.957C212.645 233.104 212.691 233.248 212.736 233.392C212.819 233.656 212.903 233.92 212.986 234.184C213.05 234.389 213.112 234.593 213.176 234.797C213.182 234.818 213.188 234.836 213.192 234.855C213.246 235.024 213.295 235.195 213.347 235.364L213.361 235.412C213.452 235.719 213.543 236.024 213.629 236.33L213.644 236.381C213.739 236.719 213.831 237.056 213.92 237.392C213.959 237.545 213.999 237.695 214.038 237.848L214.048 237.893C214.083 238.029 214.116 238.165 214.149 238.302C214.182 238.438 214.213 238.574 214.244 238.708C214.275 238.844 214.304 238.978 214.333 239.112C214.421 239.518 214.498 239.921 214.564 240.317C214.584 240.424 214.601 240.529 214.617 240.636C214.64 240.789 214.663 240.942 214.683 241.094C215.597 247.963 215.597 247.045 216.971 249.793C218.345 252.54 218.805 255.974 217.658 256.203C217.608 256.214 217.557 256.226 217.501 256.24C217.474 256.249 217.445 256.257 217.416 256.265C217.328 256.29 217.233 256.321 217.132 256.358C217.024 256.395 216.911 256.436 216.793 256.482C216.717 256.511 216.637 256.544 216.556 256.577C216.49 256.601 216.424 256.63 216.356 256.657C216.28 256.688 216.201 256.721 216.123 256.754C216.065 256.779 216.003 256.803 215.944 256.828C215.923 256.836 215.904 256.845 215.884 256.855C215.756 256.907 215.628 256.962 215.496 257.018C215.376 257.067 215.253 257.119 215.131 257.171C214.873 257.278 214.613 257.383 214.355 257.484C214.271 257.519 214.184 257.55 214.1 257.583C213.254 257.903 212.462 258.144 211.936 258.113C210.562 258.033 208.502 260.551 207.355 257.117C206.212 253.683 201.635 243.825 200.488 237.881C199.344 231.936 196.367 227.359 195.454 224.839C194.538 222.322 196.596 207.442 197.283 202.861C197.97 198.284 201.404 188.212 203.465 184.318C205.525 180.428 206.212 173.149 206.212 173.149H231.853C231.853 173.149 236.199 184.091 234.827 190.5Z" fill="#8BD8BD"/>
<path d="M217.658 256.203C217.608 256.213 217.557 256.226 217.501 256.24C217.474 256.248 217.445 256.255 217.416 256.265C217.328 256.29 217.233 256.321 217.132 256.358C217.026 256.393 216.913 256.436 216.793 256.482C216.717 256.51 216.637 256.543 216.556 256.576C216.49 256.601 216.424 256.63 216.356 256.657C216.28 256.688 216.201 256.721 216.123 256.754C216.045 256.787 215.964 256.82 215.884 256.855C215.756 256.906 215.628 256.962 215.496 257.018C215.376 257.067 215.253 257.119 215.131 257.17C214.873 257.278 214.613 257.383 214.355 257.484C214.271 257.519 214.184 257.55 214.1 257.583C214.584 256.477 214.995 255.366 215.158 254.369C215.865 250.021 213.536 250.248 211.476 244.298C209.415 238.347 209.415 236.744 208.042 227.586C206.668 218.43 202.549 223.238 208.042 213.164C213.536 203.092 211.705 200.574 215.158 199.427C218.611 198.284 217.513 201.857 217.513 201.857C217.513 201.857 217.309 202.337 216.971 203.152V202.151C216.971 201.588 216.971 201.26 216.971 201.26C216.971 201.26 211.476 216.14 210.333 220.948C210.207 221.476 210.15 222.05 210.15 222.66C210.15 222.788 210.152 222.918 210.158 223.05C210.16 223.155 210.166 223.263 210.174 223.37V223.374C210.176 223.421 210.181 223.467 210.185 223.514C210.193 223.628 210.203 223.741 210.214 223.857V223.861C210.228 223.997 210.244 224.133 210.263 224.273C210.28 224.409 210.3 224.55 210.321 224.69C210.35 224.861 210.379 225.034 210.409 225.212C210.428 225.311 210.447 225.41 210.465 225.509C210.878 227.607 211.633 229.95 212.402 232.347C212.466 232.551 212.532 232.753 212.598 232.957C212.645 233.104 212.691 233.248 212.736 233.392C212.819 233.656 212.903 233.92 212.986 234.184C213.05 234.389 213.114 234.593 213.175 234.797C213.182 234.818 213.188 234.836 213.192 234.855C213.246 235.024 213.295 235.195 213.347 235.364L213.361 235.412C213.452 235.719 213.543 236.024 213.629 236.33L213.644 236.381C213.739 236.719 213.831 237.056 213.92 237.392C213.959 237.544 213.998 237.695 214.038 237.848L214.048 237.893C214.083 238.029 214.116 238.165 214.149 238.301C214.182 238.438 214.213 238.574 214.244 238.708C214.275 238.844 214.304 238.978 214.333 239.112C214.421 239.518 214.498 239.921 214.564 240.317C214.584 240.424 214.601 240.529 214.617 240.636C214.64 240.789 214.663 240.942 214.683 241.094C215.597 247.963 215.597 247.045 216.971 249.792C218.344 252.54 218.804 255.974 217.658 256.203Z" fill="#8BD8BD"/>
<path d="M216.971 217.283C216.971 220.949 219.032 233.766 219.719 237.881C220.195 240.742 220.785 246.488 221.328 251.036C221.569 253.027 221.798 254.788 222.008 255.974C222.076 256.364 222.214 256.692 222.406 256.962C224.116 259.378 230.201 257.303 231.808 256.89C233.598 256.43 232.767 253.456 233.454 247.503C234.137 241.552 232.309 236.513 231.853 229.189C231.393 221.864 234.828 220.949 233.474 206.527C232.121 192.103 233.454 196.91 234.828 190.5C236.201 184.092 231.853 173.148 231.853 173.148H224.292C224.426 178.642 227.674 193.649 217.959 200.114C217.398 200.487 217.276 201.372 216.971 202.152V217.283Z" fill="#47C79A"/>
<path d="M214.048 237.893C214.358 244.689 215.007 251.321 215.944 256.828C216.651 256.533 217.27 256.279 217.658 256.203C218.805 255.974 218.345 252.54 216.971 249.792C215.597 247.045 215.597 247.963 214.684 241.094C214.545 240.057 214.323 238.986 214.048 237.893Z" fill="#8BD8BD"/>
<path d="M177.872 129.009C178.023 130.403 180.396 135.042 182.594 138.792C182.917 139.338 183.233 139.867 183.538 140.362C185.942 144.266 202.253 138.944 203.798 140.719C204.656 141.701 205.353 150.711 205.745 159.141C206.064 165.913 205.946 172.465 205.792 174.045C205.448 177.592 207.06 175.13 208.949 175.26C210.837 175.391 213.584 175.487 214.787 175.26C215.989 175.034 219.25 174.955 221.14 174.882C222.095 174.845 223.221 174.594 224.302 174.481C225.366 174.367 226.383 174.391 227.148 174.882C228.693 175.875 231.785 174.776 232.985 173.179C234.188 171.582 233.672 168.389 233.672 166.26C233.672 165.951 233.722 165.662 233.817 165.394C234.274 164.124 235.83 163.269 238.656 162.428C239.326 162.229 240.066 162.029 240.883 161.827C245.862 160.584 243.288 157.747 243.115 152.425C242.944 147.103 241.57 136.282 240.883 132.556C240.196 128.834 229.38 125.108 227.319 124.398C225.261 123.69 226.119 120.85 226.119 120.85C225.442 121.348 222.965 121.286 220.659 121.139C218.869 121.019 217.179 120.85 216.503 120.85C214.958 120.85 215.989 122.626 214.1 124.398C212.21 126.173 210.837 124.398 207.404 124.398C203.97 124.398 190.062 129.899 188.689 129.72C187.315 129.542 185.255 123.512 185.255 123.512C185.255 123.512 177.7 127.412 177.872 129.009Z" fill="#273773"/>
<path d="M220.391 154.313C225.885 158.969 230.865 158.798 227.944 164.12C225.434 168.698 222.035 171.623 224.301 174.484C225.366 174.37 226.383 174.394 227.148 174.885C228.693 175.878 231.785 174.779 232.985 173.182C234.188 171.585 233.672 168.392 233.672 166.263C233.672 165.954 233.721 165.665 233.816 165.398C234.274 164.127 235.83 163.272 238.655 162.431C239.326 162.232 240.066 162.033 240.883 161.83C245.862 160.587 243.288 157.75 243.115 152.428C242.944 147.105 241.57 136.285 240.883 132.559C240.196 128.837 229.38 125.111 227.319 124.401C225.261 123.693 226.119 120.853 226.119 120.853C225.442 121.351 222.965 121.289 220.659 121.142C222.022 122.701 225.737 128.147 223.825 135.962C221.764 144.375 214.896 149.66 220.391 154.313Z" fill="#202E62"/>
<path d="M215.159 157.249C215.159 157.249 219.595 159.825 220.373 162.915C221.151 166.006 216.015 167.894 216.178 170.47C216.343 173.045 217.896 166.692 217.807 163.86C217.716 161.027 214.835 158.451 215.159 157.249Z" fill="#1E2745"/>
<path d="M182.594 138.792C182.917 139.338 183.233 139.867 183.538 140.361C185.942 144.266 202.253 138.943 203.798 140.719C204.656 141.701 205.353 150.711 205.745 159.141C206.453 155.371 207.109 152.969 207.771 148.058C208.629 141.706 207.757 137.249 203.208 137.593C198.661 137.936 192.133 140.423 186.81 140.08C184.534 139.932 183.418 139.472 182.594 138.792Z" fill="#1E2745"/>
<path d="M226.222 116.26C226.466 116.168 226.66 115.979 226.75 115.734C227.412 113.967 230.162 106.465 230.055 104.299C229.931 101.839 227.47 102.331 226.61 100.609C225.748 98.8864 225.995 97.5331 223.042 97.1641C220.09 96.7951 213.456 96.4999 211.355 101.479C210.224 104.154 213.271 103.404 213.149 104.757C213.025 106.11 214.251 106.447 213.634 106.816C213.019 107.185 212.18 109.437 212.18 110.913C212.18 112.39 212.801 115.195 210.711 115.564C208.62 115.933 209.766 115.202 209.276 114.833C208.865 114.525 207.947 118.76 208.048 119.23C208.568 121.615 211.359 121.036 213.03 120.393C216.231 119.162 214.931 117.736 214.061 115.125C213.815 114.387 212.772 109.156 214.325 108.445C216.443 107.476 217.06 108.41 216.982 109.853C216.942 110.575 216.746 111.423 216.61 112.227C216.433 113.262 216.355 114.223 216.835 114.74C218.397 116.422 220.95 118.236 226.222 116.26Z" fill="#313C6A"/>
<path d="M166.241 102.986L172.841 105.393C172.841 105.393 172.738 106.38 172.841 106.815C172.817 106.714 172.159 106.493 172.069 106.451C171.46 106.164 170.853 105.875 170.245 105.587C169.131 105.062 168.014 104.545 166.903 104.014C166.549 103.844 165.811 103.676 165.724 103.233C165.649 102.845 165.92 102.87 166.241 102.986Z" fill="#1E2745"/>
<path d="M180.112 107.868C180.112 107.868 179.978 110.116 179.441 109.828C179.351 109.778 179.159 109.677 178.905 109.543V109.541C178.658 109.411 178.35 109.248 178.016 109.073C177.02 108.547 175.792 107.899 175.244 107.61C175.256 107.105 175.256 106.62 175.231 106.177L175.234 106.171L180.112 107.868Z" fill="#1E2745"/>
<path d="M177.088 106.177L177.1 107.61L177.088 106.177Z" fill="#FCD0C8"/>
</svg>
