<svg width="512" height="512" viewBox="0 0 512 512" fill="none" xmlns="http://www.w3.org/2000/svg">
<path d="M482.987 463.767H29.013C12.99 463.767 0 450.777 0 434.754H512C512 450.777 499.01 463.767 482.987 463.767Z" fill="#376BA1"/>
<path d="M75.6431 490.694V463.768H41.9941V490.694C41.9941 494.898 45.4021 498.306 49.6061 498.306H68.0311C72.2351 498.306 75.6431 494.898 75.6431 490.694Z" fill="#4B3F4E"/>
<path d="M470.006 490.694V463.768H436.357V490.694C436.357 494.898 439.765 498.306 443.969 498.306H462.394C466.598 498.306 470.006 494.898 470.006 490.694Z" fill="#4B3F4E"/>
<path d="M475.515 419.911H457.305C453.026 419.911 449.559 416.443 449.559 412.165C449.559 407.887 453.027 404.419 457.305 404.419H475.515C476.261 404.419 476.869 403.812 476.869 403.066V379.486C476.869 378.74 476.262 378.133 475.515 378.133H457.305C453.026 378.133 449.559 374.665 449.559 370.387C449.559 366.109 453.027 362.641 457.305 362.641H475.515C484.804 362.641 492.361 370.198 492.361 379.487V403.067C492.361 412.354 484.805 419.911 475.515 419.911Z" fill="#DAD8DB"/>
<path d="M385.693 434.751H126.307C97.0465 434.751 77.9905 403.993 91.0145 377.79L124.334 310.759C129.395 300.575 138.174 292.736 148.864 288.863L256 250.008L363.136 288.863C373.826 292.736 382.605 300.575 387.666 310.759L420.985 377.79C434.009 403.993 414.953 434.751 385.693 434.751Z" fill="#3B4E95"/>
<path d="M350.2 218.619C350.2 244.172 329.693 264.887 304.396 264.887L254.08 264.305L205.673 264.887C180.376 264.887 159.869 244.172 159.869 218.619V109.823C159.869 56.7324 202.476 13.6934 255.035 13.6934C307.594 13.6934 350.201 56.7324 350.201 109.823V218.619H350.2Z" fill="#313C6A"/>
<path d="M299.494 265.89L255.02 304.712L210.575 265.89V223.896H299.494V265.89Z" fill="#F2C8C0"/>
<path d="M339.514 168.169H325.668V125.668H339.514C345.416 125.668 350.2 130.452 350.2 136.354V157.483C350.2 163.385 345.416 168.169 339.514 168.169Z" fill="#F2C7C0"/>
<path d="M170.555 168.169H184.401V125.668H170.555C164.653 125.668 159.869 130.452 159.869 136.354V157.483C159.869 163.385 164.653 168.169 170.555 168.169Z" fill="#F2C7C0"/>
<path d="M325.652 125.669V170.075C325.652 208.9 294.761 241.257 255.939 241.748C216.502 242.246 184.389 210.43 184.389 171.117V125.668C186.88 125.264 193.923 123.785 199.814 117.671C201.755 115.656 203.16 113.564 204.178 111.654L209.978 87.7101C212.505 77.2781 224.179 72.0141 233.671 77.0271L318.541 121.852L325.652 125.669Z" fill="#FCD0C8"/>
<path d="M235.767 375.229H300.66V434.751H235.767V375.229Z" fill="#FCD0C8"/>
<path d="M325.652 125.668C317.66 127.996 309.203 129.247 300.454 129.247C260.514 129.247 226.656 103.186 214.959 67.1445L262.01 70.0315L325.652 125.668Z" fill="#313C6A"/>
<path d="M285.229 404.995C285.229 416.191 281.242 426.313 274.808 433.656C274.478 434.028 274.147 434.389 273.806 434.751H235.767V375.229H273.806C280.829 382.634 285.229 393.231 285.229 404.995Z" fill="#F2C7C0"/>
<path d="M210.575 375.227H247.668C262.093 375.227 273.786 388.552 273.786 404.99C273.786 421.428 262.093 434.753 247.668 434.753H210.575" fill="#FCD0C8"/>
<path d="M201.663 375.229H168.237L176.988 353.787C178.604 349.826 176.704 345.305 172.743 343.688C168.781 342.071 164.26 343.971 162.643 347.933L152.697 372.301C152.287 373.305 152.105 374.346 152.124 375.366C148.524 376.037 145.806 379.187 145.806 382.975C145.806 387.251 149.266 390.721 153.552 390.721H201.661V434.751H217.154V390.721V375.229H201.663Z" fill="#273773"/>
<path d="M362.9 375.243C362.902 374.262 362.721 373.265 362.327 372.301L352.381 347.933C350.764 343.973 346.242 342.07 342.281 343.688C338.321 345.305 336.42 349.826 338.036 353.787L346.787 375.229H308.404H292.911V390.721V434.751H308.404V390.721H362.617C366.893 390.721 370.364 387.251 370.364 382.975C370.365 378.794 367.044 375.393 362.9 375.243Z" fill="#273773"/>
<path d="M450.742 434.755H397.748C394.123 434.755 391.185 431.817 391.185 428.192V359.28C391.185 355.655 394.123 352.717 397.748 352.717H450.742C454.367 352.717 457.305 355.655 457.305 359.28V428.192C457.305 431.816 454.367 434.755 450.742 434.755Z" fill="#ECEAEC"/>
<path d="M157.491 490.694V463.768H357.678V490.694C357.678 494.898 354.27 498.306 350.066 498.306H165.103C160.899 498.306 157.491 494.898 157.491 490.694Z" fill="#3B4E95"/>
</svg>
