<svg width="2038" height="2038" viewBox="0 0 2038 2038" fill="none" xmlns="http://www.w3.org/2000/svg">
<path d="M1004.32 3.30273H523.512C488.357 3.30273 459.856 31.8029 459.856 66.9584V343.052C459.856 378.207 488.357 406.707 523.512 406.707H526.625C539.928 406.707 550.715 417.49 550.715 430.797V511.386C550.715 524.02 565.403 530.966 575.171 522.953L710.208 412.173C714.515 408.638 719.916 406.707 725.485 406.707H1004.32C1039.47 406.707 1067.97 378.207 1067.97 343.052V66.9584C1067.97 31.8029 1039.47 3.30273 1004.32 3.30273V3.30273Z" fill="#3B4E95"/>
<path d="M1014.7 206.975H1495.51C1530.66 206.975 1559.16 235.475 1559.16 270.63V557.662C1559.16 592.817 1530.66 621.318 1495.51 621.318H1492.4C1479.09 621.318 1468.31 632.101 1468.31 645.407V725.996C1468.31 738.63 1453.62 745.576 1443.85 737.563L1308.81 626.783C1304.51 623.248 1299.1 621.318 1293.54 621.318H1014.7C979.548 621.318 951.048 592.817 951.048 557.662V270.63C951.048 235.475 979.548 206.975 1014.7 206.975V206.975Z" fill="#B0DDD2"/>
<path d="M921.54 100.98H582.48C565.495 100.98 551.727 114.749 551.727 131.734C551.727 148.718 565.495 162.487 582.48 162.487H921.54C938.525 162.487 952.293 148.718 952.293 131.734C952.293 114.749 938.525 100.98 921.54 100.98V100.98Z" fill="#273773"/>
<path d="M803.949 234.086H582.48C565.495 234.086 551.727 247.854 551.727 264.839C551.727 281.824 565.495 295.592 582.48 295.592H803.949C820.934 295.592 834.702 281.824 834.702 264.839C834.702 247.854 820.934 234.086 803.949 234.086Z" fill="#273773"/>
<path d="M1418.65 314.225H1079.58C1062.6 314.225 1048.83 327.993 1048.83 344.978C1048.83 361.962 1062.6 375.731 1079.58 375.731H1418.65C1435.63 375.731 1449.4 361.962 1449.4 344.978C1449.4 327.993 1435.63 314.225 1418.65 314.225Z" fill="#8BD8BD"/>
<path d="M1301.06 447.328H1079.58C1062.6 447.328 1048.83 461.097 1048.83 478.081C1048.83 495.066 1062.6 508.834 1079.58 508.834H1301.05C1318.04 508.834 1331.81 495.066 1331.81 478.081C1331.81 461.097 1318.04 447.328 1301.06 447.328Z" fill="#8BD8BD"/>
<path d="M1581.48 1235.79H443.313C400.623 1235.79 366.017 1201.19 366.017 1158.5V1121.76H1658.78V1158.5C1658.78 1201.18 1624.18 1235.79 1581.48 1235.79Z" fill="#376BA1"/>
<path d="M404.326 1554.92C400.776 1538.31 384.44 1527.72 367.817 1531.28C351.211 1534.83 340.627 1551.18 344.181 1567.79L438.873 2010.37C441.962 2024.81 454.719 2034.69 468.917 2034.69C471.047 2034.69 473.212 2034.47 475.382 2034C491.988 2030.45 502.572 2014.11 499.018 1997.5L404.326 1554.92Z" fill="#DAD8DB"/>
<path d="M132.09 1531.28C115.483 1527.72 99.1354 1538.31 95.5808 1554.91L0.889443 1997.5C-2.66512 2014.11 7.91895 2030.45 24.5255 2034.01C26.6948 2034.47 28.8602 2034.7 30.9897 2034.7C45.1841 2034.7 57.9415 2024.81 61.0343 2010.37L155.726 1567.79C159.28 1551.18 148.696 1534.83 132.09 1531.28Z" fill="#DAD8DB"/>
<path d="M1221.71 1235.79H803.091C819.972 1285.82 854.26 1327.79 898.737 1354.54C927.914 1372.08 946.348 1403.05 946.348 1437.1V2003.93H1073.12V1440.49C1073.12 1405.63 1092.34 1374.04 1122.54 1356.63C1168.74 1330 1204.39 1287.13 1221.71 1235.79V1235.79Z" fill="#DAD8DB"/>
<path d="M1152.57 1973.18H872.222C855.237 1973.18 841.469 1986.94 841.469 2003.93C841.469 2020.91 855.237 2034.68 872.222 2034.68H1152.57C1169.56 2034.68 1183.33 2020.91 1183.33 2003.93C1183.33 1986.94 1169.56 1973.18 1152.57 1973.18Z" fill="#C7C5C9"/>
<path d="M454.053 1561.35H48.2762C21.6707 1561.35 0.100586 1539.78 0.100586 1513.17V1447.31H502.229V1513.17C502.229 1539.78 480.659 1561.35 454.053 1561.35V1561.35Z" fill="#376BA1"/>
<path d="M56.8652 1235.79V887.342C56.8652 831.058 79.2116 777.079 118.992 737.266C176.228 679.987 273.407 693.819 308.124 766.972L390.285 909.883L373.774 1235.79" fill="#B0DDD2"/>
<path d="M650.329 2003.93H584.938C572.587 2003.93 562.142 1994.8 560.49 1982.56L488.332 1447.2H181.199C112.532 1447.2 56.8652 1391.53 56.8652 1322.86V1235.79H527.046C608.753 1235.79 674.992 1302.03 674.992 1383.74V1979.26C674.996 1992.89 663.95 2003.93 650.329 2003.93V2003.93Z" fill="#333333"/>
<path d="M223.574 968.823L366.011 1121.76H716.121C716.121 1058.14 670.119 1003.86 607.367 993.423L420.436 962.335L308.119 766.978C263.379 748.162 214.335 747.183 187.256 771.309C147.873 806.392 148.447 900.371 223.574 968.823V968.823Z" fill="#8BD8BD"/>
<path d="M282.952 537.765V593.858C282.952 654.218 234.076 703.094 173.756 703.094C137.219 703.094 104.909 685.174 85.0627 657.661C80.3061 651.101 76.2858 643.964 73.0895 636.381C67.5964 623.341 64.5195 608.948 64.5195 593.858V537.765C64.5195 477.445 113.439 428.529 173.756 428.529C203.896 428.529 231.202 440.749 250.969 460.512C262.285 471.829 271.142 485.649 276.595 501.065C280.739 512.505 282.952 524.888 282.952 537.765V537.765Z" fill="#FCD0C8"/>
<path d="M276.595 501.065L274.175 500.615L174.408 543.672C168.955 546.009 164.772 550.686 163.092 556.426L159.032 570.122C159.032 570.122 151.198 635.032 93.7522 655.085C90.7589 656.112 87.8491 656.972 85.0588 657.669C80.3022 651.109 76.2819 643.972 73.0856 636.389C67.5925 623.349 64.5156 608.956 64.5156 593.866V537.773C64.5156 477.453 113.436 428.537 173.752 428.537C203.892 428.537 231.198 440.757 250.965 460.52C262.285 471.829 271.142 485.645 276.595 501.065Z" fill="#313C6A"/>
<path d="M1921.46 494.041C1955.59 494.041 1983.25 466.373 1983.25 432.244C1983.25 398.115 1955.59 370.447 1921.46 370.447C1887.33 370.447 1859.66 398.115 1859.66 432.244C1859.66 466.373 1887.33 494.041 1921.46 494.041Z" fill="#313C6A"/>
<path d="M2037.21 1997.5L1942.52 1554.92C1938.97 1538.31 1922.63 1527.72 1906.01 1531.28C1889.41 1534.83 1878.82 1551.18 1882.38 1567.79L1977.07 2010.37C1980.16 2024.81 1992.91 2034.69 2007.11 2034.69C2009.24 2034.69 2011.41 2034.47 2013.58 2034C2030.18 2030.45 2040.77 2014.11 2037.21 1997.5Z" fill="#DAD8DB"/>
<path d="M1670.28 1531.27C1653.67 1527.71 1637.33 1538.3 1633.78 1554.91L1539.09 1997.49C1535.53 2014.1 1546.12 2030.45 1562.72 2034C1564.89 2034.47 1567.06 2034.69 1569.19 2034.69C1583.38 2034.69 1596.14 2024.8 1599.23 2010.36L1693.92 1567.78C1697.48 1551.17 1686.89 1534.82 1670.28 1531.27V1531.27Z" fill="#DAD8DB"/>
<path d="M1584.05 1561.35H1989.82C2016.43 1561.35 2038 1539.78 2038 1513.17V1447.31H1535.87V1513.17C1535.87 1539.78 1557.44 1561.35 1584.05 1561.35Z" fill="#376BA1"/>
<path d="M0 1447.31V1496.29H449.582V1561.35H453.953C480.558 1561.35 502.128 1539.78 502.128 1513.17V1447.31H0Z" fill="#273772"/>
<path d="M1535.77 1447.31V1496.29H1985.36V1561.35H1989.73C2016.33 1561.35 2037.9 1539.78 2037.9 1513.17V1447.31H1535.77Z" fill="#212F64"/>
<path d="M1981.23 1235.79V887.342C1981.23 831.058 1958.89 777.079 1919.11 737.266C1861.87 679.987 1764.69 693.819 1729.97 766.972L1647.81 909.883L1664.32 1235.79" fill="#2C3E82"/>
<path d="M1387.77 2003.93H1453.16C1465.51 2003.93 1475.96 1994.8 1477.61 1982.56L1549.77 1447.2H1856.9C1925.57 1447.2 1981.24 1391.53 1981.24 1322.86V1235.79H1511.05C1429.34 1235.79 1363.1 1302.03 1363.1 1383.74V1979.26C1363.1 1992.89 1374.15 2003.93 1387.77 2003.93V2003.93Z" fill="#273772"/>
<path d="M1814.53 968.825L1672.09 1121.76H1321.98C1321.98 1058.14 1367.98 1003.86 1430.73 993.425L1617.66 962.337L1737.66 753.613C1749.45 750.481 1802.41 737.628 1835.77 765.519C1877.36 800.292 1880.47 891.7 1814.53 968.825V968.825Z" fill="#273773"/>
<path d="M1948.41 536.541V592.633C1948.41 613.67 1942.46 633.31 1932.17 649.96C1912.98 681.083 1878.54 701.873 1839.21 701.873C1778.89 701.873 1729.98 652.953 1729.98 592.637V536.545C1729.98 527.115 1731.17 517.968 1733.42 509.235V509.195C1738.38 490.005 1748.39 472.865 1761.96 459.292C1781.77 439.529 1809.07 427.309 1839.21 427.309C1899.53 427.301 1948.41 476.181 1948.41 536.541V536.541Z" fill="#FCD0C8"/>
<path d="M1948.41 536.537V592.63C1948.41 613.666 1942.46 633.306 1932.17 649.956C1922.25 647.946 1911.63 644.177 1901.21 637.696C1862.5 613.666 1828.72 570.12 1828.72 570.12L1824.62 556.423C1822.94 550.683 1818.79 546.006 1813.3 543.67L1733.42 509.227V509.187C1738.39 489.997 1748.39 472.857 1761.96 459.284C1781.77 439.521 1809.08 427.301 1839.22 427.301C1899.53 427.297 1948.41 476.177 1948.41 536.537V536.537Z" fill="#313C6A"/>
</svg>
