<svg width="25" height="25" viewBox="0 0 25 25" fill="none" xmlns="http://www.w3.org/2000/svg">
<path d="M5.67245 7.81396H0.779809C0.562666 7.81396 0.386719 7.98999 0.386719 8.20706V23.925C0.386719 24.1422 0.562666 24.3181 0.779809 24.3181H5.67245C5.88959 24.3181 6.06554 24.1422 6.06554 23.925V8.20706C6.06554 7.98999 5.88959 7.81396 5.67245 7.81396Z" fill="black" fill-opacity="0.5"/>
<path d="M3.22853 0C1.4483 0 0 1.44673 0 3.22499C0 5.00404 1.4483 6.45132 3.22853 6.45132C5.00735 6.45132 6.45447 5.00396 6.45447 3.22499C6.45455 1.44673 5.00735 0 3.22853 0Z" fill="black" fill-opacity="0.5"/>
<path d="M18.1177 7.42297C16.1526 7.42297 14.7 8.26772 13.8189 9.22757V8.20672C13.8189 7.98965 13.643 7.81363 13.4258 7.81363H8.74026C8.52312 7.81363 8.34717 7.98965 8.34717 8.20672V23.9247C8.34717 24.1418 8.52312 24.3178 8.74026 24.3178H13.6222C13.8393 24.3178 14.0153 24.1418 14.0153 23.9247V16.1479C14.0153 13.5274 14.7271 12.5064 16.5539 12.5064C18.5434 12.5064 18.7015 14.1431 18.7015 16.2828V23.9248C18.7015 24.1419 18.8774 24.3178 19.0946 24.3178H23.9783C24.1955 24.3178 24.3714 24.1419 24.3714 23.9248V15.3032C24.3714 11.4065 23.6284 7.42297 18.1177 7.42297Z" fill="black" fill-opacity="0.5"/>
</svg>
