<svg width="23" height="29" viewBox="0 0 23 29" fill="none" xmlns="http://www.w3.org/2000/svg">
<path d="M2.35493 28.99V18.9612H0V15.9567H2.35493V13.0333H0V10.0288H2.35493V0H8.72948L11.8965 10.0288H15.5913V0H20.0981V10.0288H22.4124V13.0333H20.0981V15.9567H22.4124V18.9612H20.0981V28.99H13.683L10.4348 18.9612H6.86178V28.99H2.35493ZM6.69937 10.0288H7.83623L6.65877 6.13094H6.49636L6.69937 10.0288ZM6.86178 15.9567H9.54153L8.64828 13.0333H6.78057L6.86178 15.9567ZM13.8048 15.9567H15.6725L15.5913 13.0333H12.8709L13.8048 15.9567ZM15.7131 22.6561H15.9161L15.7537 18.9612H14.6574L15.7131 22.6561Z" fill="white"/>
</svg>
