<svg id="_x33_0" enable-background="new 0 0 64 64" height="512" viewBox="0 0 64 64" width="512" xmlns="http://www.w3.org/2000/svg" xmlns:xlink="http://www.w3.org/1999/xlink"><linearGradient xmlns="http://www.w3.org/2000/svg" id="SVGID_1_" gradientUnits="userSpaceOnUse" x1="32" x2="32" y1="63" y2="1"><stop offset="0" stop-color="#8bd4bd"/><stop offset="1" stop-color="#283772"/></linearGradient><path d="m56.117 14 1.272-11.446-11.898 15.468c-1.175.042-2.316.225-3.405.539l-5.355-5.355-1.559 1.559c-.988.987-2.457 1.281-3.749.743l-.303-.125c-1.288-.534-2.12-1.779-2.12-3.173v-2.21h-10v2.21c0 1.396-.877 2.661-2.297 3.247-1.363.568-2.884.296-3.874-.692l-1.559-1.559-7.064 7.064 1.559 1.56c.987.987 1.279 2.458.745 3.746l-.127.307c-.534 1.285-1.779 2.117-3.173 2.117h-2.21v10h2.083c1.471 0 2.785.878 3.374 2.295.567 1.368.258 2.928-.79 3.974l-1.46 1.463 7.063 7.062 1.461-1.461c1.047-1.046 2.608-1.356 3.974-.789l.176.073c1.287.534 2.119 1.779 2.119 3.173v2.21h10v-2.21c0-1.394.832-2.639 2.117-3.172l.307-.127c1.291-.534 2.76-.242 3.747.744l1.559 1.559 2.934-2.934c.038.048.075.095.116.14-.48.532-.78 1.229-.78 2 0 1.371.93 2.517 2.188 2.874l.115.458c.539 2.16 2.471 3.668 4.697 3.668s4.158-1.508 4.698-3.668l.115-.458c1.257-.357 2.187-1.503 2.187-2.874 0-.771-.301-1.468-.78-2 .48-.532.78-1.229.78-2 0-.721-.266-1.374-.691-1.892.838-1.221 1.807-2.244 2.757-3.226 2.426-2.507 4.934-5.099 4.934-10.882 0-3.339-1.193-6.536-3.309-9.019l6.218-8.981zm-1.506-4.554-.728 6.554h5.208l-6.091 8.799v-5.646l-5.19-.865zm-18.026 40.375c-1.561-1.562-3.889-2.022-5.926-1.179l-.307.127c-2.036.846-3.352 2.817-3.352 5.021v.21h-6v-.21c0-2.204-1.316-4.175-3.353-5.021l-.177-.073c-2.116-.879-4.534-.398-6.154 1.223l-.047.047-4.236-4.236.047-.047c1.621-1.62 2.101-4.035 1.198-6.213-.874-2.109-2.913-3.47-5.195-3.47h-.083v-6h.21c2.205 0 4.175-1.315 5.019-3.352l.127-.307c.846-2.039.384-4.365-1.177-5.927l-.145-.144 4.236-4.235.145.145c1.565 1.565 3.943 2.004 6.114 1.102 2.108-.873 3.471-2.863 3.471-5.072v-.21h6v.21c0 2.204 1.316 4.175 3.354 5.021l.303.125c2.037.846 4.365.384 5.928-1.178l.145-.145 3.298 3.297c-1.864.874-3.505 2.152-4.815 3.737-2.831-3.185-6.923-5.067-11.213-5.067-8.271 0-15 6.729-15 15s6.729 15 15 15c4.806 0 9.213-2.245 12.038-6.059.297.318.597.631.896.94.95.982 1.919 2.006 2.758 3.226-.357.435-.59.967-.658 1.554l-2.304 2.304zm-23.585-16.821c0 6.065 4.935 11 11 11 3.942 0 7.54-2.108 9.496-5.458.356.661.755 1.265 1.186 1.824-2.433 3.529-6.364 5.634-10.682 5.634-7.168 0-13-5.832-13-13s5.832-13 13-13c3.875 0 7.561 1.775 10.02 4.752-.377.626-.709 1.285-.988 1.976-2.031-2.922-5.384-4.728-9.032-4.728-6.065 0-11 4.935-11 11zm38 15c0 .552-.449 1-1 1h-8c-.551 0-1-.448-1-1s.449-1 1-1h8c.551 0 1 .448 1 1zm-9-3c-.206 0-.408.021-.603.061-.94-1.389-1.994-2.505-3.026-3.571-1.075-1.112-2.105-2.178-2.891-3.49h3.07l6.222 7zm4 12c-1.252 0-2.337-.818-2.705-2h5.411c-.369 1.182-1.454 2-2.706 2zm4-4h-8c-.551 0-1-.448-1-1s.449-1 1-1h8c.551 0 1 .448 1 1s-.449 1-1 1zm8-21c0 4.974-2.026 7.067-4.372 9.491-1.032 1.066-2.086 2.182-3.025 3.57-.194-.04-.396-.061-.603-.061h-2.551l-8-9h-19.449v2h11.466c-1.652 2.464-4.43 4-7.466 4-4.624 0-8.442-3.507-8.941-8h29.527l1.715 1.715c-.188.391-.301.823-.301 1.285 0 1.654 1.346 3 3 3s3-1.346 3-3-1.346-3-3-3c-.462 0-.894.113-1.285.301l-2.301-2.301h-30.355c.5-4.493 4.317-8 8.941-8 3.036 0 5.814 1.536 7.466 4h-7.466v2h17.414l2.301-2.3c.391.187.823.3 1.285.3 1.654 0 3-1.346 3-3s-1.346-3-3-3-3 1.346-3 3c0 .462.114.894.301 1.286l-1.715 1.714h-5.897c1.665-4.746 6.115-7.97 11.247-7.997l5.064.844v10.354l4.509-6.513c1.609 2.091 2.491 4.65 2.491 7.312zm-9 4c.551 0 1 .448 1 1s-.449 1-1 1-1-.448-1-1 .449-1 1-1zm-5-11c0-.552.449-1 1-1s1 .448 1 1-.449 1-1 1-1-.448-1-1z" fill="url(#SVGID_1_)"/></svg>