<svg width="1238" height="1238" viewBox="0 0 1238 1238" fill="none" xmlns="http://www.w3.org/2000/svg">
<path d="M1158.53 1081.92H79.4717V332.531C79.4717 298.433 107.114 270.793 141.21 270.793H1096.79C1130.89 270.793 1158.53 298.435 1158.53 332.531V1081.92H1158.53Z" fill="#6F6471"/>
<path d="M1085.15 969.48H153.09V349.84C153.09 346.266 155.987 343.369 159.56 343.369H1078.68C1082.25 343.369 1085.15 346.266 1085.15 349.84V969.48H1085.15Z" fill="#B0DDD2"/>
<path d="M459.313 502.268C485.253 502.268 506.282 481.239 506.282 455.299C506.282 429.359 485.253 408.33 459.313 408.33C433.372 408.33 412.344 429.359 412.344 455.299C412.344 481.239 433.372 502.268 459.313 502.268Z" fill="#633C3E"/>
<path d="M386.232 892.284H487.282C518.435 892.284 542.01 864.117 536.526 833.45L529.105 791.962C523.479 760.505 501.516 734.427 471.475 723.531L386.235 692.615L300.312 723.778C270.634 734.54 248.814 760.132 242.881 791.14L234.896 832.855C228.992 863.694 252.63 892.286 284.03 892.286H386.232" fill="#82C8AF"/>
<path d="M433.239 709.785L385.175 751.741L337.14 709.785V645.375H433.239V709.785Z" fill="#ECBD83"/>
<path d="M461.522 531.748V586.351C461.522 629.147 426.473 665.216 383.68 664.393C342.205 663.596 308.827 629.72 308.827 588.07V531.751C308.827 522.858 310.348 514.315 313.163 506.394C323.599 476.701 351.896 455.428 385.177 455.428C406.25 455.428 413.564 472.791 427.387 486.591C441.211 500.414 461.522 510.673 461.522 531.748Z" fill="#F7D4AD"/>
<path d="M461.522 531.748V541.188L460.4 541.662C455.344 545.623 449.64 548.935 443.387 551.453C414.766 562.911 383.006 553.943 364.274 531.451C364.274 531.451 346.763 510.526 316.473 506.742C315.327 506.592 314.231 506.469 313.16 506.394C323.596 476.701 351.894 455.428 385.174 455.428C406.247 455.428 425.33 463.973 439.153 477.772C452.977 491.593 461.522 510.673 461.522 531.748Z" fill="#6E4848"/>
<path d="M1231.02 1039.65H767.272C755.601 1039.65 746.139 1049.11 746.139 1060.78C746.139 1072.46 736.678 1081.92 725.006 1081.92H512.996C501.325 1081.92 491.863 1072.46 491.863 1060.78C491.863 1049.11 482.402 1039.65 470.73 1039.65H6.98068C3.12643 1039.65 0 1042.78 0 1046.63V1059.22C0 1103.62 35.989 1139.6 80.3854 1139.6H1157.61C1202.01 1139.6 1238 1103.62 1238 1059.22V1046.63C1238 1042.78 1234.87 1039.65 1231.02 1039.65Z" fill="#C7C5C9"/>
<path d="M1083.25 969.48H619V343.369H1083.25C1084.3 343.369 1085.15 344.22 1085.15 345.27V967.585C1085.15 968.632 1084.3 969.48 1083.25 969.48Z" fill="#6473AB"/>
<path d="M852.656 892.284H953.705C984.858 892.284 1008.43 864.117 1002.95 833.45L995.529 791.962C989.902 760.505 967.94 734.427 937.899 723.531L852.658 692.615L766.738 723.778C737.06 734.54 715.24 760.132 709.307 791.14L701.323 832.855C695.42 863.694 719.056 892.286 750.456 892.286H852.656" fill="#273773"/>
<path d="M899.663 709.785L899.644 709.802C872.12 733.827 831.078 733.822 803.563 709.785V645.375H899.663V709.785Z" fill="#ECBD83"/>
<path d="M927.927 531.748V586.351C927.927 629.147 892.906 665.216 850.11 664.393C808.634 663.596 775.257 629.72 775.257 588.07V531.751C775.257 489.603 809.432 455.428 851.604 455.428C872.679 455.428 891.759 463.973 905.559 477.772C918.038 490.251 926.208 507.015 927.678 525.672C927.852 527.689 927.927 529.705 927.927 531.748Z" fill="#F7D4AD"/>
<path d="M927.677 525.67C924.764 529.381 922.87 531.748 922.87 531.748C917.466 534.863 911.586 537.752 905.309 540.267C888.156 547.134 871.235 550.038 857.518 549.218C847.249 548.607 837.487 544.324 830.197 537.063C826.34 533.223 820.515 528.354 813.665 525.667C803.428 521.656 788.407 538.57 775.256 541.186V533.308C775.256 491.586 808.085 456.409 849.795 455.445C871.583 454.942 891.362 463.574 905.555 477.767C918.037 490.249 926.207 507.013 927.677 525.67Z" fill="#6E4848"/>
<path d="M823.139 98.3945H531.063C509.707 98.3945 492.395 115.707 492.395 137.063V304.783C492.395 326.138 509.707 343.451 531.063 343.451H532.954C541.034 343.451 547.587 350.004 547.587 358.084V407.041C547.587 414.716 556.509 418.935 562.443 414.068L644.475 346.771C647.091 344.624 650.372 343.451 653.755 343.451H823.139C844.494 343.451 861.807 326.138 861.807 304.783V137.065C861.807 115.71 844.494 98.3945 823.139 98.3945Z" fill="#3B4E95"/>
<path d="M772.855 197.331H566.882C556.565 197.331 548.201 188.967 548.201 178.65C548.201 168.333 556.565 159.969 566.882 159.969H772.855C783.172 159.969 791.536 168.333 791.536 178.65C791.536 188.967 783.172 197.331 772.855 197.331Z" fill="#273773"/>
<path d="M701.421 278.187H566.882C556.565 278.187 548.201 269.823 548.201 259.505C548.201 249.188 556.565 240.824 566.882 240.824H701.421C711.738 240.824 720.102 249.188 720.102 259.505C720.102 269.82 711.738 278.187 701.421 278.187Z" fill="#273773"/>
<path d="M619.121 895.227C678.635 895.227 726.881 846.982 726.881 787.468C726.881 727.954 678.635 679.709 619.121 679.709C559.608 679.709 511.362 727.954 511.362 787.468C511.362 846.982 559.608 895.227 619.121 895.227Z" fill="#FF6B61"/>
<path d="M609.719 838.956C598.759 838.956 587.752 835.327 578.723 827.887L577.567 826.934C569.605 820.372 568.469 808.599 575.031 800.636C581.591 792.676 593.366 791.538 601.329 798.1L602.482 799.05C607.301 803.021 614.514 802.382 618.562 797.626L627.216 787.456C631.203 782.77 630.809 775.804 626.316 771.599C618.784 764.546 618.395 752.724 625.446 745.192C632.499 737.663 644.32 737.271 651.852 744.322C670.93 762.183 672.608 791.765 655.67 811.67L647.016 821.84C637.415 833.129 623.603 838.956 609.719 838.956Z" fill="white"/>
</svg>
