<svg width="20" height="20" viewBox="0 0 20 20" fill="none" xmlns="http://www.w3.org/2000/svg">
<path d="M19.2223 9.88888C19.2223 10.7491 19.1477 11.4444 18.2874 11.4444H11.4446V18.2873C11.4446 19.146 10.7492 19.2222 9.889 19.2222C9.02877 19.2222 8.33344 19.146 8.33344 18.2873V11.4444H1.49055C0.631886 11.4444 0.555664 10.7491 0.555664 9.88888C0.555664 9.02865 0.631886 8.33332 1.49055 8.33332H8.33344V1.49043C8.33344 0.630208 9.02877 0.555542 9.889 0.555542C10.7492 0.555542 11.4446 0.630208 11.4446 1.49043V8.33332H18.2874C19.1477 8.33332 19.2223 9.02865 19.2223 9.88888Z" fill="white"/>
</svg>
