<?xml version="1.0" encoding="UTF-8"?>
<svg version="1.1" viewBox="0 0 522 385" xmlns="http://www.w3.org/2000/svg">
<title>Group 17</title>
<desc>Created with Sketch.</desc>
<g fill="none" fill-rule="evenodd">
<g transform="translate(-91 -944)">
<g transform="translate(102 934)">
<g transform="translate(266.5 197.5) scale(-1 1) translate(-266.5 -197.5)">
<g id="a" transform="translate(399.5 203) scale(-1 1) translate(-133.5 -192)">
<g transform="translate(114.04 54.62) rotate(-8) translate(-60.52 -46.141)">
<g id="f" transform="translate(48.044 27.423)" fill="#B28B67">
<path d="m7.351 30.51c-4.0997-4.7847-6.8744-10.648-6.4108-17.219 1.3359-18.931 27.84-14.767 32.996-5.2117 5.1557 9.5548 4.543 33.791-2.1202 35.499-2.6573 0.68103-8.3181-0.98723-14.08-4.44l3.6163 25.438h-21.353l7.351-34.066z"/>
</g>
<path d="m69.81 24.491c-2.8143-0.45887-10.392-0.77435-11.789-0.77415-0.89302 0-1.8608 0.20285-2.3897-0.61243-0.43314-0.66763-0.27446-1.7968-0.40373-2.5715-0.1501-0.90001-0.36329-1.7884-0.57894-2.6746-0.61366-2.5216-1.5416-4.9206-2.84-7.173-2.4363-4.2257-6.0053-7.5358-10.511-9.4619-4.9756-2.1267-10.606-2.6137-15.958-2.1823-5.7274 0.46151-10.912 2.3414-16.319 4.1105-5.1531 1.6858-10.55 2.3493-15.94 1.5261-5.4302-0.82934-9.5333-3.7557-14.114-6.5331-4.6889-2.8434-10.047-4.7031-15.591-4.2756-5.1743 0.39919-9.9433 2.5235-14.222 5.3612-4.0032 2.655-7.3063 5.8494-9.1712 10.345-2.0062 4.8361-2.0043 10.145 1.2947 14.419 4.7818 6.1952 13.659 7.7973 21.045 7.638 4.2719-0.091855 8.4675-0.86722 12.501-2.2776 5.3788-1.8811 10.027-5.0693 15.059-7.6561 2.3615-1.2139 4.8025-2.2108 7.3611-2.929 2.4828-0.69716 4.9283-1.0169 7.1762 0.47435 2.3781 1.5776 4.509 3.1273 7.2295 4.1149 2.6098 0.94747 5.3743 1.4774 8.1548 1.456 5.41-0.041548 10.743-1.7175 15.997-2.8402 4.2848-0.91529 8.8694-1.8275 13.238-0.94767 1.8228 0.36722 4.4853 1.1253 5.1437 3.0088-11.081 1.9968-15.433 15.622-12.309 25.625 1.686 5.3987 11.821 11.71 15.761 8.8715 2.4964-1.7981 0.98083-4.1586 0-5.7168-1.8783-2.9842-2.521-6.8174 0.95469-8.895 2.998-1.7919 6.1503 2.4634 6.2099 2.4587 0.824-0.064563 7.9441-4.0682 12.85-9.9106 4.8394 0.28523 5.5736-2.8875 4.418-5.4822-1.1556-2.5947-8.3681-5.8601-12.257-6.4945z" fill="#191847"/>
</g>
<g transform="translate(0 171.93)">
<path d="m86.693 87.007c21.351 5.9518 39.771 8.9278 55.262 8.9278 15.491 0 29.879-4.5829 43.165-13.749-20.893-6.109-38.1-9.1635-51.62-9.1635s-29.122 4.6615-46.807 13.984z" fill="#0D47AA"/>
<path id="Leg" d="m160.44 104.51c-0.20587-0.30846-0.37973-0.644-0.51763-1.0075-2.8539-7.5221-48.566-88.67-53.12-103.51h51.465c3.4625 11.28 19.047 82.068 21.24 96.191 6.92 22.278 21.168 94.427 22.987 99.426 1.9134 5.2581-8.8526 10.736-11.721 4.2715-4.5649-10.286-15.442-38.746-20.285-56.124-4.5403-16.292-8.2372-30.948-10.048-39.251z" fill="#997659"/>
<path id="Leg" d="m118.33 114.42c-20.899 5.2644-97.342 14.782-102.59 16.274-5.3964 1.5356-10.128-9.5504-3.4577-11.952 10.613-3.8211 39.858-12.65 57.589-16.253 14.262-2.8979 27.276-5.2626 36.013-6.6473-0.74021-24.461-4.1239-83.165-1.9061-95.844h45.537c-2.1267 12.158-20.105 100.87-23.447 109.75-1.0604 3.1702-4.2245 4.5712-7.7417 4.6702z" fill="#B28B67"/>
<g id="Accessories/Shoe/Flat-Sneaker" transform="translate(21.805 139.26) rotate(80) translate(-27.145 -17.741)" fill="#E4E4E4">
<path id="shoe" d="m2.28 22.468c-0.92987 2.4925-1.3948 4.3673-1.3948 5.6244 0 1.5779 0.26594 3.8804 0.79782 6.9075h49.929c1.2975-4.2398 0.5485-6.5287-2.247-6.8668-2.7955-0.33806-5.1177-0.64331-6.9667-0.91573l-23.105-10.181c-0.50539-0.2227-1.0956 0.0064698-1.3183 0.51186-0.0026765 0.0060739-0.0052924 0.012174-0.0078473 0.0183l-1.4461 3.4674c-2.5879 1.1935-4.6908 1.7902-6.3087 1.7902-1.2762 0-3.0246-0.49462-5.245-1.4839l-8.31e-6 1.86e-5c-1.009-0.44951-2.1913 0.0040094-2.6408 1.013-0.016836 0.03779-0.032496 0.076094-0.046957 0.11486z"/>
</g>
<g id="Accessories/Shoe/Flat-Sneaker" transform="translate(185.12 176.52)" fill="#E4E4E4">
<path id="shoe" d="m2.28 22.468c-0.92987 2.4925-1.3948 4.3673-1.3948 5.6244 0 1.5779 0.26594 3.8804 0.79782 6.9075h49.929c1.2975-4.2398 0.5485-6.5287-2.247-6.8668-2.7955-0.33806-5.1177-0.64331-6.9667-0.91573l-23.105-10.181c-0.50539-0.2227-1.0956 0.0064698-1.3183 0.51186-0.0026765 0.0060739-0.0052924 0.012174-0.0078473 0.0183l-1.4461 3.4674c-2.5879 1.1935-4.6908 1.7902-6.3087 1.7902-1.2762 0-3.0246-0.49462-5.245-1.4839l-8.31e-6 1.86e-5c-1.009-0.44951-2.1913 0.0040094-2.6408 1.013-0.016836 0.03779-0.032496 0.076094-0.046957 0.11486z"/>
</g>
<path d="m104.13 3.5527e-15c20.067-5.722 39.053-5.722 56.96 0 6.23 28.329 21.368 39.573 24.03 83.007-30.26 14.985-67.64-10.687-98.79 3.9263-8.9-20.441 3.56-69.668 17.8-86.934z" fill="#0C66FF"/>
</g>
<g transform="translate(129.29 163.14) rotate(-8) translate(-113.92 -82.965)">
<path id="e" d="m169.54 78.659 26.885 22.718c7.5414 2.603 13.783 5.6226 18.724 9.0588 1.1406 1.1913 2.4557 3.5346-2.5693 2.7952-5.025-0.73936-10.344-1.2918-11.161 0.37717s2.0956 3.9361 0.52386 6.1553c-1.0478 1.4795-5.2143-2.7038-12.499-12.55l-27.25-13.555 7.3478-14.999zm-121.74-9.8305 15.775 2.2834c-16.933 36.617-26.01 55.983-27.233 58.096-2.7516 4.7551 0.48447 13.037 1.7495 17.422-6.3933 1.8401-4.3515-8.0052-12.435-5.5496-7.3786 2.2414-13.467 7.3224-20.775 1.2805-0.89845-0.74282-1.6553-3.1718 1.2004-4.5871 7.1146-3.526 17.56-9.978 19.184-12.356 2.2143-3.2427 9.7261-22.106 22.535-56.589z" fill="#B28B67"/>
<path transform="translate(151.19 54.394) rotate(5) translate(-151.19 -54.394)" d="m109.54 8.1871 9.4566-4.0615c16.086 31.733 38.569 61.83 73.834 85.828l-6.9146 14.708c-30.412-14.453-58.949-25.25-72.29-49.763-4.4776-8.227-3.4963-36.459-4.0868-46.712z" fill="#C5CFD6"/>
<path d="m80.156 97.647c28 2.959 50.039 2.959 66.117 0 1.992-0.3666 2.3062-3.6907 1.3824-5.9467-14.385-35.132-24.25-65.787-24.25-90.189-2.6396 1.3264-7.259 1.5251-13.858 0.59631-17.736 25.147-25.888 54-29.391 95.539z" fill="#323337"/>
<path d="m105.14 5.6732e-14 7.3913-4.4964e-15c1.721 10.089 7.1491 146.7 23.906 191.39h-90.67c1.9657-40.94 17.472-90.118 33.18-131.27-13.89 12.669-25.996 34.134-36.318 64.398l-16.984-4.3453c12.628-54.235 38.591-94.099 77.888-119.59 0.085096-0.19594 0.16979-0.39095 0.25409-0.58503l0.65409-3.8858e-16c0.24075-0.15401 0.482-0.30749 0.72374-0.46043l-0.026029 0.46043z" fill="#DDE3E9"/>
</g>
</g>
<g transform="translate(148.07 59.707) rotate(7) translate(-67.02 -51.641)">
<g transform="translate(53.206 30.702)" fill="#B28B67">
<path d="m8.1408 34.158c-4.5401-5.3567-7.613-11.922-7.0995-19.278 1.4795-21.195 30.832-16.532 36.541-5.8349 5.7096 10.697 5.0311 37.832-2.348 39.744-2.9428 0.76246-9.2118-1.1053-15.592-4.9709l4.0049 28.479h-23.647l8.1408-38.14z"/>
</g>
<path d="m74.03 47.924c0.90517 12.674 3.2996 19.011 7.1833 19.011 5.8259 0 10.769-3.7176 13.325-3.7176 1.8634 0 1.4474 2.3439 0.2122 4.0818-1.0191 1.4338-5.9818 2.8158-5.9818 5.0387 0 2.2229 3.921 0.50316 3.921 1.8215 0 2.1807 0.6891 6.2808-3.0763 6.2808-3.8107 0-14.737-1.3959-16.609-7.0808-1.2084-3.6689-1.9897-11.271-2.3439-22.808-0.23117-0.027611-0.46643-0.041814-0.70498-0.041814-3.265 0-5.9118 2.6605-5.9118 5.9423 0 1.666 0.68211 3.1719 1.7809 4.2509-1.3679 1.9408-2.9009 3.9681-4.6576 6.0601-6.5995-3.9799-11.497-15.63-5.0446-26.822 1.7834-5.4828 5.8207-8.4114 10.589-9.7712 3.8624-1.624 7.872-1.8071 11.257-0.83355 6.6349 0.57204 12.559 2.6056 14.239 3.8134 0 6.3139-1.2171 8.1872-11.613 8.0221-2.5544 1.356-4.5182 3.6911-6.5635 6.7524z" fill="#191847"/>
</g>
<g transform="translate(0 182.93)">
<path id="b" transform="translate(152.48 73.066) rotate(-55) translate(-152.48 -73.066)" d="m184.42-8.7118c-16.961 13.835-10.31 135.38-11.441 136.91-0.50274 0.67928-27.408 6.4238-80.714 17.234l2.3164 9.4104c62.371-3.0012 95.37-6.8166 98.998-11.446 5.1945-6.6281 11.569-43.732 19.124-111.31l-28.284-40.798z" fill="#B28B67"/>
<path id="c" transform="translate(156.86 68.86) rotate(-55) translate(-156.86 -68.86)" d="m101.28 135.54 4.0779 15.157c46.505 5.4181 77.146-1.1498 87.919-11.408 7.1819-6.8385 13.573-43.842 19.174-111.01l-30.256-43.21c-40.379 30.471-16.125 130.47-17.154 132.75-1.0295 2.2855-25.548 4.0554-63.761 17.72z" fill="#2F3676"/>
<g id="g" transform="translate(198.81 166.12) rotate(20) translate(-27.145 -17.741)" fill="#E4E4E4">
<path id="d" d="m2.28 22.468c-0.92987 2.4925-1.3948 4.3673-1.3948 5.6244 0 1.5779 0.26594 3.8804 0.79782 6.9075h49.929c1.2975-4.2398 0.5485-6.5287-2.247-6.8668-2.7955-0.33806-5.1177-0.64331-6.9667-0.91573l-23.105-10.181c-0.50539-0.2227-1.0956 0.0064698-1.3183 0.51186-0.0026765 0.0060739-0.0052924 0.012174-0.0078473 0.0183l-1.4461 3.4674c-2.5879 1.1935-4.6908 1.7902-6.3087 1.7902-1.2762 0-3.0246-0.49462-5.245-1.4839l-8.31e-6 1.86e-5c-1.009-0.44951-2.1913 0.0040094-2.6408 1.013-0.016836 0.03779-0.032496 0.076094-0.046957 0.11486z"/>
</g>
<polygon points="115.7 0 69.646 110.19 24.382 203.35 35.061 203.35 151.9 0" fill="#997659"/>
<g transform="translate(21.36 176.52)" fill="#E4E4E4">
<path d="m2.28 22.468c-0.92987 2.4925-1.3948 4.3673-1.3948 5.6244 0 1.5779 0.26594 3.8804 0.79782 6.9075h49.929c1.2975-4.2398 0.5485-6.5287-2.247-6.8668-2.7955-0.33806-5.1177-0.64331-6.9667-0.91573l-23.105-10.181c-0.50539-0.2227-1.0956 0.0064698-1.3183 0.51186-0.0026765 0.0060739-0.0052924 0.012174-0.0078473 0.0183l-1.4461 3.4674c-2.5879 1.1935-4.6908 1.7902-6.3087 1.7902-1.2762 0-3.0246-0.49462-5.245-1.4839l-8.31e-6 1.86e-5c-1.009-0.44951-2.1913 0.0040094-2.6408 1.013-0.016836 0.03779-0.032496 0.076094-0.046957 0.11486z"/>
</g>
<path d="m28.47 184 23.729 4.4351c18.347-26.884 95.132-137.12 103.55-188.43h-52.827c-28.114 37.096-56.965 156.67-74.453 184z" fill="#5C63AB"/>
</g>
<g transform="translate(133.5 172.73) rotate(7) translate(-113.92 -82.965)">
<path d="m141.29 37.905 30.913-16.876c5.1407-6.0846 10.206-10.81 15.195-14.177 1.5246-0.6344 4.1907-1.0184 1.6974 3.3925-2.4933 4.4109-4.9169 9.1622-3.6466 10.521 1.2702 1.3589 4.4377-0.53942 5.9531 1.7184 1.0103 1.5052-4.4011 3.883-16.234 7.1334l-22.462 20.499-11.416-12.212zm48.416 14.238 13.579-7.4351c1.9053-7.2261 4.1829-10.862 6.8327-10.907 2.0356-0.94404-1.5094 8.1869 2.3495 7.395 3.8589-0.79183 13.277-7.7737 14.9-6.3561 2.4009 2.0972 0.26011 8.5369-2.2622 11.74-4.7143 5.9871-8.6175 8.0346-18.265 10.716-5.0442 1.4018-10.498 4.2117-16.361 8.4295l-0.77326-13.582z" fill="#997659"/>
<path transform="translate(147.75 38.838) rotate(-9) translate(-147.75 -38.838)" d="m127.23 30.837c10.712 1.5812 25.33 1.5887 42.072-5.6286l3.8721 14.23c-12.141 8.72-28.25 14.913-41.098 12.508-10.125-1.8954-13.38-14.979-4.8462-21.109z" fill="#1251BD"/>
<path d="m140.81 55.713c11.495 2.8574 30.772-0.51226 57.83-10.109 6.7115 13.839 9.8141 23.706 9.3077 29.599-23.212 12.085-43.106 17.473-59.497 17.829 0.52087 9.6935-0.6629 18.917-4.6395 27.345-8.1753 17.326-56.046 1.2802-72.142 4.4385-10.08-32.627 9.4096-45.887 9.4252-66.763 0.017173-22.862 18.435-58.053 21.145-58.053l24.712 2.2838e-13c1.3635 17.46 8.2264 36.703 13.859 55.713z" fill="#0C66FF"/>
</g>
</g>
<g transform="translate(268.5 54.116) rotate(-14) translate(-50 -33)">
<path d="m49.828 53.607c-2e-3 5e-3 -4e-3 0.01-7e-3 0.016 3e-3 -5e-3 7e-3 -0.025 7e-3 -0.016" fill="#C5CFD6"/>
<path d="m49.823 53.614c0 1e-3 -1e-3 3e-3 -1e-3 5e-3 0-5e-3 9e-3 -0.02 1e-3 -5e-3" fill="#C5CFD6"/>
<path d="m49.858 53.53c-7e-3 0.02-0.016 0.039-0.024 0.059 4e-3 -0.01 8e-3 -0.018 0.012-0.028-0.104 0.26-0.038 0.091 0.012-0.031" fill="#C5CFD6"/>
<path d="m49.836 53.59c-4e-3 9e-3 -8e-3 0.019-0.012 0.028-0.029 0.056 0.012-0.028 0.012-0.028" fill="#C5CFD6"/>
<polygon points="49.825 53.614 49.825 53.614 49.825 53.613" fill="#C5CFD6"/>
<path d="m49.824 53.615c0-1e-3 0-1e-3 1e-3 -2e-3 -1e-3 1e-3 -1e-3 1e-3 -1e-3 2e-3" fill="#C5CFD6"/>
<path d="m49.819 53.622c-6e-3 0.012 0.028-0.046 0 0" fill="#C5CFD6"/>
<path d="m49.824 53.615 2e-3 -2e-3c-1e-3 1e-3 -1e-3 2e-3 -2e-3 2e-3" fill="#C5CFD6"/>
<rect y="-2.2737e-13" width="100" height="66" rx="4" fill="#D8D4D1"/>
<g transform="translate(49.5 19.5) scale(1 -1) translate(-49.5 -19.5)" fill="#000" fill-opacity=".2">
<polygon points="49.837 0.80729 0.83724 38.807 98.837 38.807"/>
</g>
</g>
</g>
</g>
</g>
</svg>
