<?xml version="1.0" encoding="iso-8859-1"?>
<!-- Generator: Adobe Illustrator 19.0.0, SVG Export Plug-In . SVG Version: 6.00 Build 0)  -->
<svg version="1.1" id="Layer_1" xmlns="http://www.w3.org/2000/svg" xmlns:xlink="http://www.w3.org/1999/xlink" x="0px" y="0px"
	 viewBox="0 0 512 512" style="enable-background:new 0 0 512 512;" xml:space="preserve">
<path style="fill:#D8D7DA;" d="M463.495,156.552L362.505,15.166c-6.766-9.473-17.756-15.129-29.398-15.129H77.903
	c-19.92,0-36.127,16.206-36.127,36.127v439.71c0,19.92,16.206,36.127,36.127,36.127h356.193c19.92,0,36.127-16.206,36.127-36.127
	V177.551C470.223,169.979,467.898,162.717,463.495,156.552z"/>
<path style="fill:#C7C5CA;" d="M463.476,156.515L362.486,15.129C355.72,5.656,344.73,0,333.088,0h-78.079v511.963h179.07
	c19.92,0,36.127-16.206,36.127-36.127V177.514C470.204,169.942,467.878,162.681,463.476,156.515z"/>
<g>
	<path style="fill:#ADACB2;" d="M362.268,15.177c-6.766-9.473-17.756-15.129-29.398-15.129h-43.38v160.454
		c0,19.888,16.122,36.011,36.011,36.011h144.486v-18.951c0-7.574-2.326-14.833-6.729-20.999L362.268,15.177z"/>
	<path style="fill:#ADACB2;" d="M205.415,120.898h-65.184c-11.25,0-20.37-9.12-20.37-20.37s9.12-20.37,20.37-20.37h65.184
		c11.25,0,20.37,9.12,20.37,20.37S216.666,120.898,205.415,120.898z"/>
	<path style="fill:#ADACB2;" d="M369.732,282.499H138.873c-11.25,0-20.37-9.12-20.37-20.37c0-11.25,9.12-20.37,20.37-20.37h230.859
		c11.25,0,20.37,9.12,20.37,20.37C390.102,273.379,380.983,282.499,369.732,282.499z"/>
	<path style="fill:#ADACB2;" d="M369.732,349.041H138.873c-11.25,0-20.37-9.12-20.37-20.37s9.12-20.37,20.37-20.37h230.859
		c11.25,0,20.37,9.12,20.37,20.37S380.983,349.041,369.732,349.041z"/>
	<path style="fill:#ADACB2;" d="M369.732,418.298H138.873c-11.25,0-20.37-9.12-20.37-20.37s9.12-20.37,20.37-20.37h230.859
		c11.25,0,20.37,9.12,20.37,20.37S380.983,418.298,369.732,418.298z"/>
</g>
<g>
	<path style="fill:#7A7780;" d="M369.721,241.758l-114.714,0.001v40.74l114.714-0.001c11.25,0,20.37-9.12,20.37-20.37
		S380.971,241.758,369.721,241.758z"/>
	<path style="fill:#7A7780;" d="M369.721,308.3l-114.714,0.001v40.74l114.714-0.001c11.25,0,20.37-9.12,20.37-20.37
		S380.971,308.3,369.721,308.3z"/>
	<path style="fill:#7A7780;" d="M369.721,377.578l-114.714,0.001v40.74l114.714-0.001c11.25,0,20.37-9.12,20.37-20.37
		S380.971,377.578,369.721,377.578z"/>
</g>
<g>
</g>
<g>
</g>
<g>
</g>
<g>
</g>
<g>
</g>
<g>
</g>
<g>
</g>
<g>
</g>
<g>
</g>
<g>
</g>
<g>
</g>
<g>
</g>
<g>
</g>
<g>
</g>
<g>
</g>
</svg>
