<?xml version="1.0" encoding="UTF-8"?>
<svg version="1.1" viewBox="0 0 517 531" xmlns="http://www.w3.org/2000/svg">
<title>Group 19</title>
<desc>Created with Sketch.</desc>
<defs>
<filter id="b" x="-53%" y="-42%" width="205.9%" height="183.9%">
<feOffset dx="0" dy="7" in="SourceAlpha" result="shadowOffsetOuter1"/>
<feGaussianBlur in="shadowOffsetOuter1" result="shadowBlurOuter1" stdDeviation="36"/>
<feColorMatrix in="shadowBlurOuter1" result="shadowMatrixOuter1" values="0 0 0 0 0   0 0 0 0 0   0 0 0 0 0  0 0 0 0.18 0"/>
<feMerge>
<feMergeNode in="shadowMatrixOuter1"/>
<feMergeNode in="SourceGraphic"/>
</feMerge>
</filter>
<radialGradient id="a" cx="86.341%" cy="11.342%" r="144.79%" gradientTransform="translate(.86341 .11342) scale(1 .79224) rotate(114.61) translate(-.86341 -.11342)">
<stop stop-color="#EDF3FD" offset="0"/>
<stop stop-color="#DCE8FB" offset=".40887"/>
<stop stop-color="#AEBDD8" offset="1"/>
</radialGradient>
</defs>
<g fill="none" fill-rule="evenodd">
<g transform="translate(-133 -2184)">
<g transform="translate(48 2244)">
<g transform="translate(0 45)">
<g transform="translate(82)">
<path d="m61 77.707c11.429 0 15.585-13.683 22.079-21.192 4.6457-5.3723 12.574-3.7704 14.921-11.292 5.9015-18.913-9.8939-32.224-30.5-32.224s-34.5 11.674-37.5 29.224 10.394 35.483 31 35.483z" fill="#191847"/>
<g transform="translate(54 31)" fill="#B28B67">
<path d="m8.2623 34.49c-4.6079-5.4088-7.7266-12.037-7.2055-19.465 1.5016-21.4 31.292-16.693 37.087-5.8915 5.7948 10.801 5.1062 38.199-2.383 40.13-2.9867 0.76987-9.3493-1.116-15.825-5.0192l4.0646 28.756h-24l8.2623-38.51z"/>
</g>
<path d="m72.38 51.723c-0.872-0.46134-1.8711-0.72337-2.9331-0.72337-3.4002 0-6.1566 2.6863-6.1566 6 0 1.3525 0.45918 2.6005 1.2339 3.6039-1.4588 2.4045-2.4544 4.9308-2.7807 7.5278-5.0562 0-23.51-19.132-5.1264-37.132 18.383-18 44.949 7.696 36.966 9.1945-4.5897 0.8616-13.833 5.2434-21.203 11.529z" fill="#191847"/>
</g>
<g transform="translate(0 187)">
<polygon id="f" points="128 9.9476e-14 165.63 123.02 183.86 227.65 198.15 227.65 178.89 9.9476e-14" fill="#997659"/>
<path d="m114.54 0c2.556 67.547-0.45206 102.39-1.0241 108.53-0.57206 6.1369-8.4054 45.929-26.95 121.18l15.23-5.2308c29.308-69.019 39.295-104.89 42.656-113.95 3.3614-9.063 12.289-45.905 26.783-110.53h-56.696z" fill="#B28B67"/>
<g id="d" transform="translate(84 199)" fill="#E4E4E4">
<path id="c" d="m2.6781 25.402c-1.1188 2.9865-1.6781 5.2211-1.6781 6.7037 0 1.8033 0.30041 4.4347 0.90124 7.8943h56.402c1.4657-4.8455 0.61961-7.4614-2.5382-7.8478-3.1578-0.38636-5.7811-0.73521-7.8698-1.0466l-26.215-11.687c-0.50443-0.22488-1.0956 0.0017447-1.3205 0.50617-0.003847 0.0086294-0.0075716 0.017313-0.011172 0.026048l-1.6851 4.0876c-2.9233 1.364-5.2988 2.0459-7.1265 2.0459-1.485 0-3.5357-0.59973-6.1522-1.7992l5.47e-6 -1.19e-5c-1.0041-0.4603-2.1912-0.019454-2.6515 0.98465-0.019839 0.043278-0.038127 0.087251-0.054828 0.13183z"/>
</g>
<g transform="translate(178 199)" fill="#E4E4E4">
<path d="m2.6781 25.402c-1.1188 2.9865-1.6781 5.2211-1.6781 6.7037 0 1.8033 0.30041 4.4347 0.90124 7.8943h56.402c1.4657-4.8455 0.61961-7.4614-2.5382-7.8478-3.1578-0.38636-5.7811-0.73521-7.8698-1.0466l-26.215-11.687c-0.50443-0.22488-1.0956 0.0017447-1.3205 0.50617-0.003847 0.0086294-0.0075716 0.017313-0.011172 0.026048l-1.6851 4.0876c-2.9233 1.364-5.2988 2.0459-7.1265 2.0459-1.485 0-3.5357-0.59973-6.1522-1.7992l5.47e-6 -1.19e-5c-1.0041-0.4603-2.1912-0.019454-2.6515 0.98465-0.019839 0.043278-0.038127 0.087251-0.054828 0.13183z"/>
</g>
<polygon id="e" points="123 0 139 62.68 187.87 62.68 180.58 0" fill="#328581"/>
<path d="m114-3.5527e-15c-5.2646 15.781-6.2646 36.674-3 62.68h49.87l13.713-62.68h-60.584z" fill="#40A19C"/>
</g>
<g transform="translate(22 82)">
<path d="m191.46 2.3408 37.904-11.378c7.071-5.5044 13.741-9.529 20.009-12.074 1.823-0.34313 4.841-0.14385 1.0696 4.1344s-7.546 8.9479-6.4692 10.742c1.0768 1.7939 5.0002 0.44158 6.1357 3.2832 0.757 1.8944-5.7431 3.2512-19.5 4.0705l-29.471 17.344-9.6773-16.122zm-3.3494 66.827 31.898 23.424c8.6515 2.3345 15.879 5.239 21.684 8.7135 1.3711 1.2494 3.0283 3.7797-2.6582 3.3424-5.6865-0.43729-11.687-0.64151-12.472 1.298-0.78462 1.9396 2.6565 4.2591 1.0705 6.876-1.0574 1.7447-6.0528-2.63-14.986-13.124l-31.588-13.099 7.0514-17.431z" fill="#B28B67"/>
<path transform="translate(169.09 54.832) rotate(15) translate(-169.09 -54.832)" d="m126.98 15.65c25.162 26.79 55.851 44.272 97.706 59.778l-9.2947 18.586c-43.185-4.0717-66.272-7.3236-84.371-34.155-4.5425-6.7341-12.665-29.905-17.531-41.938l13.491-2.2711z" fill="#2026A2"/>
<path d="m90 114h77c-17.442-53.195-26.352-89.704-26.73-109.53-0.019275-1.0107-1.8858-2.7916-2.7116-2.5584-6.039 1.7056-12.501 1.0678-19.387-1.9132-18.254 29.358-24.567 65.505-28.172 114z" fill="#F2F2F2"/>
<path d="m124.74 0.047395c22.072 0.18073 57.881 4.2113 99.18-9.0474l4.0773 20.373c-31.213 20.075-62.819 35.626-90.514 33.417 12.026 51.586 11.472 93.815-15.079 93.815h-41.056c-6.5207-43.822 10.617-104.58 26.505-135.23 0.60671-1.1703 1.8985-3.3766 4.941-3.3766h11.93c0.005247 0.015798 0.010494 0.031597 0.015739 0.047395z" fill="#1F28CF"/>
</g>
</g>
<g transform="translate(249)">
<g fill="url(#a)" filter="url(#b)" opacity=".20566">
<path d="m279.05 361h-272.09c-3.8407 0-6.9542-3.6993-6.9542-8.263v-344.47c0-4.5638 3.1135-8.263 6.9542-8.263h272.09c3.841 0 6.9545 3.6993 6.9545 8.263v344.47c0 4.5486-3.0925 8.2384-6.9545 8.263z"/>
</g>
<path d="m79 91h71c2.2091 0 4 1.7909 4 4v8c0 2.2091-1.7909 4-4 4h-71c-2.2091 0-4-1.7909-4-4v-8c0-2.2091 1.7909-4 4-4z" fill="#BFC6D0" opacity=".29439"/>
<path d="m79 55h71c2.2091 0 4 1.7909 4 4v8c0 2.2091-1.7909 4-4 4h-71c-2.2091 0-4-1.7909-4-4v-8c0-2.2091 1.7909-4 4-4z" fill="#BFC6D0" opacity=".29439"/>
<path d="m79 127h101c2.2091 0 4 1.7909 4 4v8c0 2.2091-1.7909 4-4 4h-101c-2.2091 0-4-1.7909-4-4v-8c0-2.2091 1.7909-4 4-4z" fill="#BFC6D0" opacity=".29439"/>
<path d="m79 163h83c2.2091 0 4 1.7909 4 4v8c0 2.2091-1.7909 4-4 4h-83c-2.2091 0-4-1.7909-4-4v-8c0-2.2091 1.7909-4 4-4z" fill="#BFC6D0" opacity=".29439"/>
<path d="m79 199h53c2.2091 0 4 1.7909 4 4v8c0 2.2091-1.7909 4-4 4h-53c-2.2091 0-4-1.7909-4-4v-8c0-2.2091 1.7909-4 4-4z" fill="#BFC6D0" opacity=".29439"/>
<path d="m79 237h89c2.2091 0 4 1.7909 4 4v8c0 2.2091-1.7909 4-4 4h-89c-2.2091 0-4-1.7909-4-4v-8c0-2.2091 1.7909-4 4-4z" fill="#BFC6D0" opacity=".29439"/>
<path d="m227 91h22c2.2091 0 4 1.7909 4 4v8c0 2.2091-1.7909 4-4 4h-22c-2.2091 0-4-1.7909-4-4v-8c0-2.2091 1.7909-4 4-4z" fill="#BFC6D0" opacity=".29439"/>
<path d="m217 55h32c2.2091 0 4 1.7909 4 4v8c0 2.2091-1.7909 4-4 4h-32c-2.2091 0-4-1.7909-4-4v-8c0-2.2091 1.7909-4 4-4z" fill="#BFC6D0" opacity=".29439"/>
<path d="m217 127h32c2.2091 0 4 1.7909 4 4v8c0 2.2091-1.7909 4-4 4h-32c-2.2091 0-4-1.7909-4-4v-8c0-2.2091 1.7909-4 4-4z" fill="#BFC6D0" opacity=".29439"/>
<path d="m227 163h22c2.2091 0 4 1.7909 4 4v8c0 2.2091-1.7909 4-4 4h-22c-2.2091 0-4-1.7909-4-4v-8c0-2.2091 1.7909-4 4-4z" fill="#BFC6D0" opacity=".29439"/>
<path d="m210 199h39c2.2091 0 4 1.7909 4 4v8c0 2.2091-1.7909 4-4 4h-39c-2.2091 0-4-1.7909-4-4v-8c0-2.2091 1.7909-4 4-4z" fill="#BFC6D0" opacity=".29439"/>
<path d="m217 237h32c2.2091 0 4 1.7909 4 4v8c0 2.2091-1.7909 4-4 4h-32c-2.2091 0-4-1.7909-4-4v-8c0-2.2091 1.7909-4 4-4z" fill="#BFC6D0" opacity=".29439"/>
<path d="m36 91h15c2.2091 0 4 1.7909 4 4v8c0 2.2091-1.7909 4-4 4h-15c-2.2091 0-4-1.7909-4-4v-8c0-2.2091 1.7909-4 4-4z" fill="#FF5962"/>
<path d="m36 55h15c2.2091 0 4 1.7909 4 4v8c0 2.2091-1.7909 4-4 4h-15c-2.2091 0-4-1.7909-4-4v-8c0-2.2091 1.7909-4 4-4z" fill="#41C4BD"/>
<path d="m36 127h15c2.2091 0 4 1.7909 4 4v8c0 2.2091-1.7909 4-4 4h-15c-2.2091 0-4-1.7909-4-4v-8c0-2.2091 1.7909-4 4-4z" fill="#FAD53F"/>
<path d="m36 163h15c2.2091 0 4 1.7909 4 4v8c0 2.2091-1.7909 4-4 4h-15c-2.2091 0-4-1.7909-4-4v-8c0-2.2091 1.7909-4 4-4z" fill="#43ACD9"/>
<path d="m36 199h15c2.2091 0 4 1.7909 4 4v8c0 2.2091-1.7909 4-4 4h-15c-2.2091 0-4-1.7909-4-4v-8c0-2.2091 1.7909-4 4-4z" fill="#6C849C"/>
<path d="m36 237h15c2.2091 0 4 1.7909 4 4v8c0 2.2091-1.7909 4-4 4h-15c-2.2091 0-4-1.7909-4-4v-8c0-2.2091 1.7909-4 4-4z" fill="#9F5DBA"/>
<path d="m36 280h212c2.2091 0 4 1.7909 4 4v36c0 2.2091-1.7909 4-4 4h-212c-2.2091 0-4-1.7909-4-4v-36c0-2.2091 1.7909-4 4-4z" fill="#0B61F3"/>
</g>
</g>
</g>
</g>
</svg>
