<?xml version="1.0" encoding="UTF-8"?> <svg xmlns="http://www.w3.org/2000/svg" width="493" height="388" viewBox="0 0 493 388" fill="none"> <g clip-path="url(#clip0)"> <path d="M444.053 344.322C474.09 264.947 467.071 200.511 404.229 176.179C318.588 143.018 327.909 210.147 285.595 100.717C243.281 -8.71323 115.789 8.34799 77.0292 89.9725C51.189 144.389 54.246 229.172 86.2 344.322" stroke="#E7F3FF"></path> <path fill-rule="evenodd" clip-rule="evenodd" d="M434.47 345.285C463.884 255.862 450.608 199.814 394.641 177.142C310.692 143.132 318.313 211.11 275.993 101.68C233.674 -7.75034 106.167 9.31089 67.4023 90.9354C41.5591 145.352 44.6164 230.135 76.5742 345.285H434.47Z" fill="#F6FAFF"></path> <path d="M15.4062 345.767H467.002" stroke="#0D1E54" stroke-linecap="round"></path> <path d="M144.282 124.783H136.73C136.199 124.783 135.768 125.214 135.768 125.746V141.152C135.768 141.684 136.199 142.115 136.73 142.115H144.282C144.814 142.115 145.245 141.684 145.245 141.152V125.746C145.245 125.214 144.814 124.783 144.282 124.783Z" fill="#FFDFE0"></path> <path d="M158.134 119.006H150.583C150.051 119.006 149.62 119.437 149.62 119.969V141.152C149.62 141.684 150.051 142.115 150.583 142.115H158.134C158.666 142.115 159.097 141.684 159.097 141.152V119.969C159.097 119.437 158.666 119.006 158.134 119.006Z" fill="#FFDFE0"></path> <path d="M171.986 112.266H164.434C163.902 112.266 163.471 112.697 163.471 113.229V141.152C163.471 141.684 163.902 142.115 164.434 142.115H171.986C172.517 142.115 172.948 141.684 172.948 141.152V113.229C172.948 112.697 172.517 112.266 171.986 112.266Z" fill="#FFDFE0"></path> <path d="M185.838 105.525H178.286C177.754 105.525 177.323 105.956 177.323 106.488V141.152C177.323 141.684 177.754 142.115 178.286 142.115H185.838C186.37 142.115 186.801 141.684 186.801 141.152V106.488C186.801 105.956 186.37 105.525 185.838 105.525Z" fill="#FFDFE0"></path> <path d="M144.282 128.635H136.73C136.199 128.635 135.768 129.066 135.768 129.598V141.152C135.768 141.684 136.199 142.115 136.73 142.115H144.282C144.814 142.115 145.245 141.684 145.245 141.152V129.598C145.245 129.066 144.814 128.635 144.282 128.635Z" fill="#FF686F"></path> <path d="M158.134 123.82H150.583C150.051 123.82 149.62 124.251 149.62 124.783V141.152C149.62 141.684 150.051 142.115 150.583 142.115H158.134C158.666 142.115 159.097 141.684 159.097 141.152V124.783C159.097 124.251 158.666 123.82 158.134 123.82Z" fill="#FF686F"></path> <path d="M171.986 119.006H164.434C163.902 119.006 163.471 119.437 163.471 119.969V141.152C163.471 141.684 163.902 142.115 164.434 142.115H171.986C172.517 142.115 172.948 141.684 172.948 141.152V119.969C172.948 119.437 172.517 119.006 171.986 119.006Z" fill="#FF686F"></path> <path d="M185.838 114.191H178.286C177.754 114.191 177.323 114.623 177.323 115.154V141.152C177.323 141.684 177.754 142.115 178.286 142.115H185.838C186.37 142.115 186.801 141.684 186.801 141.152V115.154C186.801 114.623 186.37 114.191 185.838 114.191Z" fill="#FF686F"></path> <mask id="mask0" maskUnits="userSpaceOnUse" x="300" y="57" width="150" height="214"> <path d="M440.172 57.3809H309.919C304.674 57.3809 300.422 63.4437 300.422 70.9226V256.638C300.422 264.117 304.674 270.18 309.919 270.18H440.172C445.418 270.18 449.67 264.117 449.67 256.638V70.9226C449.67 63.4437 445.418 57.3809 440.172 57.3809Z" fill="white"></path> </mask> <g mask="url(#mask0)"> <path d="M440.172 57.3809H309.919C304.674 57.3809 300.422 63.4437 300.422 70.9226V256.638C300.422 264.117 304.674 270.18 309.919 270.18H440.172C445.418 270.18 449.67 264.117 449.67 256.638V70.9226C449.67 63.4437 445.418 57.3809 440.172 57.3809Z" fill="#00C1B9"></path> <path opacity="0.7" d="M262.548 195.207C348.566 313.581 398.734 359.133 413.054 331.862C434.535 290.956 225.927 173.112 259.217 134.265C292.506 95.4177 449.564 372.744 483.489 324.083C517.413 275.422 237.4 110.798 277.018 77.2627C316.636 43.7274 468.821 276.187 497.908 247.148C526.995 218.108 284.814 75.0671 315.719 16.3938C346.624 -42.2794 422.295 156.893 517.032 157.324C580.191 157.611 589.211 120.852 544.095 47.0458" stroke="white" stroke-width="3"></path> </g> <path d="M283.09 39.0859H153.1C150.972 39.0859 149.248 40.8103 149.248 42.9375V223.961C149.248 226.088 150.972 227.812 153.1 227.812H283.09C285.217 227.812 286.941 226.088 286.941 223.961V42.9375C286.941 40.8103 285.217 39.0859 283.09 39.0859Z" fill="#7B9FFF"></path> <path d="M218.095 123.171C236.325 123.171 251.104 108.531 251.104 90.4715C251.104 72.4119 236.325 57.7717 218.095 57.7717C199.865 57.7717 185.086 72.4119 185.086 90.4715C185.086 108.531 199.865 123.171 218.095 123.171Z" fill="white"></path> <path d="M171.883 198.85H265.742M171.883 142.792H265.742H171.883ZM171.883 161.478H265.742H171.883ZM171.883 180.164H265.742H171.883Z" stroke="white"></path> <path d="M73.0645 274.792L38.0054 307.299" stroke="#00628A"></path> <path d="M46.6704 274.792L81.7295 307.299" stroke="#00628A"></path> <mask id="mask1" maskUnits="userSpaceOnUse" x="69" y="275" width="25" height="71"> <path d="M76.6561 275.376L93.1047 343.597C93.3421 344.582 92.7365 345.572 91.752 345.81C91.6113 345.843 91.467 345.861 91.3222 345.861C89.9478 345.861 88.7436 344.94 88.3826 343.614L69.8121 275.376H76.6561Z" fill="white"></path> </mask> <g mask="url(#mask1)"> <path d="M76.6561 275.376L93.1047 343.597C93.3421 344.582 92.7365 345.572 91.752 345.81C91.6113 345.843 91.467 345.861 91.3222 345.861C89.9478 345.861 88.7436 344.94 88.3826 343.614L69.8121 275.376H76.6561Z" fill="#A9E5F1"></path> <path d="M24.3945 256.17H86.0195V277.353H24.3945V256.17Z" fill="#00628A"></path> </g> <mask id="mask2" maskUnits="userSpaceOnUse" x="27" y="275" width="25" height="71"> <path d="M44.2053 275.376L27.7566 343.597C27.5192 344.582 28.1249 345.572 29.1093 345.81C29.25 345.843 29.3943 345.861 29.5391 345.861C30.9135 345.861 32.1178 344.94 32.4787 343.614L51.0492 275.376H44.2053Z" fill="white"></path> </mask> <g mask="url(#mask2)"> <path d="M44.2053 275.376L27.7566 343.597C27.5192 344.582 28.1249 345.572 29.1093 345.81C29.25 345.843 29.3943 345.861 29.5391 345.861C30.9135 345.861 32.1178 344.94 32.4787 343.614L51.0492 275.376H44.2053Z" fill="#A9E5F1"></path> <path d="M96.4668 256.17H34.8418V277.353H96.4668V256.17Z" fill="#00628A"></path> </g> <mask id="mask3" maskUnits="userSpaceOnUse" x="14" y="208" width="84" height="69"> <path d="M16.3381 208.597C18.2007 208.964 23.5902 212.924 26.908 225.199C28.25 230.164 29.2835 234.995 30.3403 241.622C31.896 251.377 31.3537 261.563 38.8745 265.19C52.2844 271.656 92.4779 267.036 95.4141 269.126C98.3502 271.215 97.6958 275.012 90.1528 275.487C82.6098 275.962 45.4479 276.854 37.8941 274.386C30.3403 271.919 23.086 266.292 22.0944 251.455C21.1029 236.618 20.173 224.545 16.8512 217.349C13.5294 210.152 14.4755 208.231 16.3381 208.597Z" fill="white"></path> </mask> <g mask="url(#mask3)"> <path d="M16.3381 208.597C18.2007 208.964 23.5902 212.924 26.908 225.199C28.25 230.164 29.2835 234.995 30.3403 241.622C31.896 251.377 31.3537 261.563 38.8745 265.19C52.2844 271.656 92.4779 267.036 95.4141 269.126C98.3502 271.215 97.6958 275.012 90.1528 275.487C82.6098 275.962 45.4479 276.854 37.8941 274.386C30.3403 271.919 23.086 266.292 22.0944 251.455C21.1029 236.618 20.173 224.545 16.8512 217.349C13.5294 210.152 14.4755 208.231 16.3381 208.597Z" fill="#A9E5F1"></path> <path fill-rule="evenodd" clip-rule="evenodd" d="M13.3024 213.301C18.7617 217.381 22.4426 225.837 24.345 238.67C27.1986 257.918 26.6096 272.452 47.8511 272.995C69.0925 273.537 97.0363 274.824 97.0363 270.833C97.0363 266.843 105.578 275.362 97.9043 278.447C92.7884 280.504 75.6567 281.272 46.5093 280.752L9.42331 272.372L5.00529 222.192L13.3024 213.301Z" fill="#0094CF"></path> </g> <path fill-rule="evenodd" clip-rule="evenodd" d="M116.363 166.096L107.923 181.43C107.713 181.811 107.786 182.286 108.1 182.588L114.908 189.128C115.292 189.497 115.901 189.485 116.27 189.101C116.336 189.032 116.391 188.954 116.434 188.87L127.38 167.291C127.62 166.817 127.431 166.237 126.956 165.997C126.831 165.933 126.692 165.897 126.551 165.893L117.237 165.598C116.875 165.587 116.537 165.779 116.363 166.096Z" fill="#DDE3FB" stroke="#C7CCE0"></path> <path fill-rule="evenodd" clip-rule="evenodd" d="M73.0729 153.095C74.2945 148.839 73.0729 143.098 69.0726 140.563C65.0724 138.027 52.8392 134.854 51.1688 147.739C49.4985 160.623 57.0521 164.53 59.6557 163.728C62.1638 162.955 72.1114 156.445 73.0729 153.095Z" fill="#0F0000"></path> <mask id="mask4" maskUnits="userSpaceOnUse" x="50" y="145" width="24" height="43"> <path d="M72.9706 148.238C74.6972 162.877 70.0976 172.225 64.1748 170.199C63.4761 171.612 63.6047 174.537 64.5605 178.975C65.9224 185.298 61.3475 188.1 58.3537 187.731C55.36 187.363 50.49 181.176 50.49 176.886C50.49 175.577 51.2508 171.487 52.7724 164.616C53.0451 162.619 53.1814 161.172 53.1814 160.275C53.1814 157.824 53.0157 157.1 52.7724 156.705C50.6379 153.241 52.6721 151.48 54.0804 152.087C55.4887 152.695 55.6626 154.889 55.7708 155.286C55.879 155.683 55.9134 157.403 56.5222 154.745C57.1309 152.087 58.0033 152.683 58.7696 151.44C59.5359 150.196 59.9379 148.238 61.0697 147.404C63.1581 145.864 65.5216 145.461 69.0728 146.074C71.2221 146.446 72.9559 148.114 72.9706 148.238Z" fill="white"></path> </mask> <g mask="url(#mask4)"> <path d="M72.9706 148.238C74.6972 162.877 70.0976 172.225 64.1748 170.199C63.4761 171.612 63.6047 174.537 64.5605 178.975C65.9224 185.298 61.3475 188.1 58.3537 187.731C55.36 187.363 50.49 181.176 50.49 176.886C50.49 175.577 51.2508 171.487 52.7724 164.616C53.0451 162.619 53.1814 161.172 53.1814 160.275C53.1814 157.824 53.0157 157.1 52.7724 156.705C50.6379 153.241 52.6721 151.48 54.0804 152.087C55.4887 152.695 55.6626 154.889 55.7708 155.286C55.879 155.683 55.9134 157.403 56.5222 154.745C57.1309 152.087 58.0033 152.683 58.7696 151.44C59.5359 150.196 59.9379 148.238 61.0697 147.404C63.1581 145.864 65.5216 145.461 69.0728 146.074C71.2221 146.446 72.9559 148.114 72.9706 148.238Z" fill="#E48673"></path> <path fill-rule="evenodd" clip-rule="evenodd" d="M64.1749 170.199C61.9892 169.724 60.1532 168.378 58.6668 166.162C58.7926 172.569 60.8395 176.182 64.8075 176.999C68.7755 177.816 68.5646 175.549 64.1749 170.199Z" fill="#C06451"></path> <path fill-rule="evenodd" clip-rule="evenodd" d="M72.6011 162.173C71.7586 164.701 70.5543 166.139 68.9881 166.487L68.9348 166.444C68.4629 166.061 67.8801 165.842 67.2733 165.819C66.6692 165.795 66.0759 165.983 65.596 166.351L65.3773 166.518C61.3778 166.746 58.9319 164.826 58.0395 160.759C57.8522 160.235 57.5985 159.916 57.2784 159.802C56.732 158.331 56.5465 156.243 56.7217 153.538C56.0767 153.719 55.7543 153.809 55.7543 153.809L55.4977 154.037C55.6687 159.982 56.1618 163.784 56.9768 165.443C60.128 168.772 64.5071 171.662 68.4357 169.998C71.0547 168.889 72.4432 166.281 72.6011 162.173Z" fill="#0F0000"></path> <path fill-rule="evenodd" clip-rule="evenodd" d="M72.3384 162.842C71.9855 163.651 71.7607 164.027 71.6639 163.969C71.1635 162.754 70.4641 162.054 69.4179 161.508C67.7942 160.661 63.7793 160.29 60.6741 163.566C60.0218 164.171 59.2776 163.758 58.4414 162.326L58.2831 163.969C59.5445 165.108 60.5016 165.839 61.1544 166.162C61.8072 166.485 63.1926 166.646 65.3107 166.645C64.2748 166.466 63.5545 166.251 63.1499 165.998C62.5429 165.618 62.6003 165.047 62.6412 164.718C62.7653 163.721 64.2 162.616 66.6455 162.616C68.9153 162.616 70.7185 163.734 70.6533 165.221C70.5135 165.607 70.355 165.866 70.1777 165.998C70.44 166.191 70.6801 166.172 70.8978 165.939C71.0675 165.758 71.5957 165.22 72.0842 164.067C72.1764 163.849 72.2611 163.441 72.3384 162.842Z" fill="#0F0000"></path> <path fill-rule="evenodd" clip-rule="evenodd" d="M70.0516 164.047C68.4211 164.252 66.5606 163.949 64.4699 163.139C65.4942 164.683 66.4502 165.477 67.3376 165.522C68.2251 165.566 69.1297 165.075 70.0516 164.047Z" fill="#7C2412"></path> </g> <path d="M72.9033 157.81C71.5738 157.81 70.4961 156.733 70.4961 155.403C70.4961 154.074 71.5738 152.996 72.9033 152.996C74.2328 152.996 75.3105 154.074 75.3105 155.403C75.3105 156.733 74.2328 157.81 72.9033 157.81Z" stroke="#0F0000" stroke-width="0.51"></path> <path d="M66.0088 156.847C64.6793 156.847 63.6016 155.77 63.6016 154.44C63.6016 153.111 64.6793 152.033 66.0088 152.033C67.3383 152.033 68.416 153.111 68.416 154.44C68.416 155.77 67.3383 156.847 66.0088 156.847Z" stroke="#0F0000" stroke-width="0.51"></path> <path d="M63.6016 154.073L55.876 153.375M70.3804 154.98L68.4161 154.774L70.3804 154.98Z" stroke="#0F0000" stroke-width="0.51"></path> <mask id="mask5" maskUnits="userSpaceOnUse" x="76" y="175" width="39" height="51"> <path d="M86.2696 203.271L89.5894 207.674L106.906 188.328C105.194 183.553 104.981 180.565 106.266 179.363C108.194 177.56 111.475 175.254 111.923 175.94C112.221 176.398 111.155 178.007 108.724 180.767C108.187 182.182 108.187 183.148 108.724 183.663C109.262 184.178 111.283 186.2 114.789 189.728C101.795 213.277 93.7929 225.052 90.7836 225.052C87.7743 225.052 83.0096 220.059 76.4896 210.074L86.2696 203.271Z" fill="white"></path> </mask> <g mask="url(#mask5)"> <path d="M86.2696 203.271L89.5894 207.674L106.906 188.328C105.194 183.553 104.981 180.565 106.266 179.363C108.194 177.56 111.475 175.254 111.923 175.94C112.221 176.398 111.155 178.007 108.724 180.767C108.187 182.182 108.187 183.148 108.724 183.663C109.262 184.178 111.283 186.2 114.789 189.728C101.795 213.277 93.7929 225.052 90.7836 225.052C87.7743 225.052 83.0096 220.059 76.4896 210.074L86.2696 203.271Z" fill="#E48673"></path> <path fill-rule="evenodd" clip-rule="evenodd" d="M106.906 188.328L89.7538 213.834L81.6357 203.945L106.906 188.328Z" fill="#C06451"></path> </g> <mask id="mask6" maskUnits="userSpaceOnUse" x="98" y="313" width="20" height="24"> <path d="M117.429 318.002L110.177 334.876L99.6775 336.028L98.326 332.297L105.022 313.402L117.429 318.002Z" fill="white"></path> </mask> <g mask="url(#mask6)"> <path d="M117.429 318.002L110.177 334.876L99.6775 336.028L98.326 332.297L105.022 313.402L117.429 318.002Z" fill="#E48673"></path> <path fill-rule="evenodd" clip-rule="evenodd" d="M117.734 321.565L98.5159 325.117L103.178 316.68L117.734 321.565Z" fill="#C06451"></path> </g> <path fill-rule="evenodd" clip-rule="evenodd" d="M98.369 332.129C101.295 335.51 105.62 335.51 111.346 332.129C118.355 337.458 123.38 340.398 126.419 340.949C130.979 341.774 133.842 342.402 133.842 345.542H113.028L105.855 340.949V345.542H98.369C97.6203 342.565 97.2459 340.33 97.2459 338.835C97.2459 337.341 97.6203 335.105 98.369 332.129Z" fill="#0F0000"></path> <mask id="mask7" maskUnits="userSpaceOnUse" x="65" y="239" width="70" height="83"> <path d="M66.7647 239.123C110.533 246.674 133.019 253.801 134.222 260.504C135.425 267.207 130.142 287.531 118.373 321.474L101.727 318.63L112.695 272.44L65.0557 246.473L66.7647 239.123Z" fill="white"></path> </mask> <g mask="url(#mask7)"> <path d="M66.7647 239.123C110.533 246.674 133.019 253.801 134.222 260.504C135.425 267.207 130.142 287.531 118.373 321.474L101.727 318.63L112.695 272.44L65.0557 246.473L66.7647 239.123Z" fill="#170327"></path> <path d="M106.669 315.408L117.937 269.887M120.972 318.367L99.478 314.167L120.972 318.367Z" stroke="#374369" stroke-width="0.55"></path> </g> <mask id="mask8" maskUnits="userSpaceOnUse" x="121" y="314" width="16" height="25"> <path d="M134.178 314.196L136.97 332.349L128.677 338.89L125.553 336.442L121.219 316.87L134.178 314.196Z" fill="white"></path> </mask> <g mask="url(#mask8)"> <path d="M134.178 314.196L136.97 332.349L128.677 338.89L125.553 336.442L121.219 316.87L134.178 314.196Z" fill="#E48673"></path> <path fill-rule="evenodd" clip-rule="evenodd" d="M136.42 321.586L121.909 330.253L121.392 320.627L136.42 321.586Z" fill="#C06451"></path> </g> <path fill-rule="evenodd" clip-rule="evenodd" d="M124.367 332.128C127.293 335.51 131.618 335.51 137.344 332.128C144.353 337.458 149.378 340.398 152.418 340.948C156.977 341.774 159.84 342.402 159.84 345.542H139.026L131.853 340.948V345.542H124.367C123.618 342.565 123.244 340.33 123.244 338.835C123.244 337.341 123.618 335.105 124.367 332.128Z" fill="#0F0000"></path> <mask id="mask9" maskUnits="userSpaceOnUse" x="32" y="240" width="105" height="83"> <path d="M33.9553 240.099C28.9243 260.44 34.5269 270.61 50.7633 270.61C66.9998 270.61 85.7139 271.005 106.906 271.796L119.144 322.796L136.066 321.974C131.188 284.609 127.026 263.108 123.579 257.471C120.133 251.834 101.383 246.886 67.3311 242.628V240.099H33.9553Z" fill="white"></path> </mask> <g mask="url(#mask9)"> <path d="M33.9553 240.099C28.9243 260.44 34.5269 270.61 50.7633 270.61C66.9998 270.61 85.7139 271.005 106.906 271.796L119.144 322.796L136.066 321.974C131.188 284.609 127.026 263.108 123.579 257.471C120.133 251.834 101.383 246.886 67.3311 242.628V240.099H33.9553Z" fill="#300A4F"></path> <path d="M115.547 319.33H137.992M69.4147 240.099C57.7692 242.519 45.6249 243.728 32.9817 243.728L69.4147 240.099ZM44.2933 240.711C43.0259 253.66 45.3275 260.533 51.1982 261.329C57.0688 262.125 76.5265 264.151 109.571 267.409L121.532 319.194L44.2933 240.711Z" stroke="#4C2B66" stroke-width="0.55"></path> </g> <mask id="mask10" maskUnits="userSpaceOnUse" x="30" y="176" width="60" height="65"> <path d="M64.1044 177.161L70.8612 178.818C76.5778 180.22 81.3394 184.159 83.7876 189.512L89.0444 201.006L79.1092 208.982L70.911 240.181L33.831 240.711L35.3871 211.529L32.9815 212.29L30.4469 199.512C28.3775 189.08 35.1571 178.945 45.5896 176.875C46.202 176.754 46.8199 176.662 47.4411 176.601L50.49 176.299C51.8475 183.195 54.4265 186.52 58.227 186.275C62.0276 186.03 63.9867 182.992 64.1044 177.161Z" fill="white"></path> </mask> <g mask="url(#mask10)"> <path d="M64.1044 177.161L70.8612 178.818C76.5778 180.22 81.3394 184.159 83.7876 189.512L89.0444 201.006L79.1092 208.982L70.911 240.181L33.831 240.711L35.3871 211.529L32.9815 212.29L30.4469 199.512C28.3775 189.08 35.1571 178.945 45.5896 176.875C46.202 176.754 46.8199 176.662 47.4411 176.601L50.49 176.299C51.8475 183.195 54.4265 186.52 58.227 186.275C62.0276 186.03 63.9867 182.992 64.1044 177.161Z" fill="#FFCF00"></path> <path fill-rule="evenodd" clip-rule="evenodd" d="M79.6823 197.143C73.285 212.855 67.3031 223.596 61.7364 229.366C56.1698 235.136 46.8387 240.023 33.7432 244.028L76.9368 244.563L79.6823 197.143Z" fill="#EABE00"></path> <path fill-rule="evenodd" clip-rule="evenodd" d="M37.6326 181.996L49.3125 205.678L32.9809 212.29L21.4609 191.528L37.6326 181.996Z" fill="#FFCF00"></path> <g opacity="0.5"> <g opacity="0.5"> <path opacity="0.5" d="M18.294 177.731L110.506 184.179" stroke="white"></path> <path opacity="0.5" d="M17.9581 182.534L110.17 188.982" stroke="white"></path> <path opacity="0.5" d="M17.6221 187.337L109.834 193.785" stroke="white"></path> <path opacity="0.5" d="M17.2867 192.139L109.499 198.587" stroke="white"></path> <path opacity="0.5" d="M16.9508 196.942L109.163 203.39" stroke="white"></path> <path opacity="0.5" d="M16.6148 201.745L108.827 208.193" stroke="white"></path> <path opacity="0.5" d="M16.2789 206.547L108.491 212.996" stroke="white"></path> <path opacity="0.5" d="M15.9429 211.35L108.155 217.798" stroke="white"></path> <path opacity="0.5" d="M15.6075 216.153L107.82 222.601" stroke="white"></path> <path opacity="0.5" d="M15.2716 220.956L107.484 227.404" stroke="white"></path> <path opacity="0.5" d="M14.9356 225.758L107.148 232.207" stroke="white"></path> <path opacity="0.5" d="M14.5997 230.561L106.812 237.009" stroke="white"></path> <path opacity="0.5" d="M14.2637 235.364L106.476 241.812" stroke="white"></path> </g> </g> <path d="M49.6143 202.343L32.9813 212.29L21.4613 191.528" stroke="#EABE00"></path> </g> <mask id="mask11" maskUnits="userSpaceOnUse" x="35" y="175" width="64" height="58"> <path d="M47.5703 203.967L55.5167 213.877L80.6551 185.294C82.78 179.869 84.8777 176.935 86.9483 176.491C90.0541 175.824 98.1436 174.966 98.1436 176.071C98.1436 176.807 95.4511 177.642 90.0661 178.576C93.3883 182.457 94.3465 185.248 92.9407 186.947C91.535 188.647 88.8393 190.019 84.8537 191.063C70.8057 218.063 61.6865 231.744 57.4959 232.104C53.3054 232.465 45.9358 225.607 35.3873 211.529L47.5703 203.967Z" fill="white"></path> </mask> <g mask="url(#mask11)"> <path d="M47.5703 203.967L55.5167 213.877L80.6551 185.294C82.78 179.869 84.8777 176.935 86.9483 176.491C90.0541 175.824 98.1436 174.966 98.1436 176.071C98.1436 176.807 95.4511 177.642 90.0661 178.576C93.3883 182.457 94.3465 185.248 92.9407 186.947C91.535 188.647 88.8393 190.019 84.8537 191.063C70.8057 218.063 61.6865 231.744 57.4959 232.104C53.3054 232.465 45.9358 225.607 35.3873 211.529L47.5703 203.967Z" fill="#E48673"></path> <path fill-rule="evenodd" clip-rule="evenodd" d="M88.6946 177.42L95.0439 177.716L90.5713 179.528L88.6946 177.42Z" fill="#C06451"></path> <path d="M90.8788 179.551C89.8264 179.199 89.0064 179.301 88.4187 179.857M93.1719 183.379C92.5295 182.741 91.6375 182.59 90.4957 182.926L93.1719 183.379ZM92.209 181.453C91.5666 180.815 90.6746 180.664 89.5329 181.001L92.209 181.453Z" stroke="#C06451" stroke-width="0.5"></path> <path fill-rule="evenodd" clip-rule="evenodd" d="M78.1396 187.206L55.4982 218.126L41.9966 203.829L49.3126 198.999L78.1396 187.206Z" fill="#C06451"></path> </g> <path d="M88.6945 177.42C91.8972 180.508 93.4985 183.004 93.4985 184.908C93.4985 187.763 89.4422 190.192 88.6945 189.606C87.9468 189.021 90.4954 187.382 91.4714 185.983C91.3935 185.571 91.1643 185.572 90.7837 185.984" stroke="#C06451" stroke-width="0.5"></path> <path fill-rule="evenodd" clip-rule="evenodd" d="M201.244 170.039H138.656C137.061 170.039 135.768 171.332 135.768 172.928V217.221C135.768 218.816 137.061 220.109 138.656 220.109H201.244C202.84 220.109 204.133 218.816 204.133 217.221V172.928C204.133 171.332 202.84 170.039 201.244 170.039Z" fill="#9B9B9B"></path> <mask id="mask12" maskUnits="userSpaceOnUse" x="137" y="170" width="70" height="51"> <path d="M140.582 170.039H203.17C204.765 170.039 206.059 171.332 206.059 172.928V217.221C206.059 218.816 204.765 220.109 203.17 220.109H140.582C138.987 220.109 137.693 218.816 137.693 217.221V172.928C137.693 171.332 138.987 170.039 140.582 170.039Z" fill="white"></path> </mask> <g mask="url(#mask12)"> <path d="M140.582 170.039H203.17C204.765 170.039 206.059 171.332 206.059 172.928V217.221C206.059 218.816 204.765 220.109 203.17 220.109H140.582C138.987 220.109 137.693 218.816 137.693 217.221V172.928C137.693 171.332 138.987 170.039 140.582 170.039Z" fill="#DDE3FB"></path> <path fill-rule="evenodd" clip-rule="evenodd" d="M183.912 201.814L175.246 220.109H207.984L183.912 201.814Z" fill="#B4B8CC"></path> <path d="M173.32 193.148C171.193 193.148 169.469 191.424 169.469 189.297C169.469 187.17 171.193 185.445 173.32 185.445C175.447 185.445 177.172 187.17 177.172 189.297C177.172 191.424 175.447 193.148 173.32 193.148Z" fill="white"></path> <path fill-rule="evenodd" clip-rule="evenodd" d="M181.986 201.814H168.506L172.742 233.503L160.927 234.101V236.479H173.32H188.727L181.986 201.814Z" fill="#727A9C"></path> <path fill-rule="evenodd" clip-rule="evenodd" d="M183.912 201.814H168.506L175.246 236.479H190.652L183.912 201.814Z" fill="#DDE3FB"></path> </g> <path d="M235.488 345.435V239.367H61.6249V345.435" stroke="#0D1E54"></path> <path d="M189.27 345.435V239.367H15.4061V345.435" stroke="#0D1E54"></path> <path d="M77.0312 236.479H251.314V242.256H77.0312V236.479Z" fill="#0094CF"></path> <path d="M0 236.479H77.0312V242.256H0V236.479Z" fill="#00628A"></path> <path fill-rule="evenodd" clip-rule="evenodd" d="M241.686 276.401C245.13 277.734 247.288 280.233 248.158 283.896C250.661 283.121 251.913 282.734 251.913 282.734L248.555 285.248C252.241 292.852 256.74 295.747 262.051 293.935C270.018 291.216 264.999 280.626 258.239 277.53C253.732 275.466 248.214 275.09 241.686 276.401ZM242.422 232.883C244.828 235.711 246.031 238.87 246.031 242.361C246.031 247.597 245.096 253.041 246.952 258.035L252.657 256.875L247.54 260.245C251.335 267.655 256.658 271.005 263.507 270.297C268.381 264.681 269.025 257.639 265.441 249.169C261.856 240.7 254.183 235.271 242.422 232.883ZM273.608 256.034C265.545 234.24 275.745 219.697 304.21 212.406C302.049 216.391 300.827 220.201 300.543 223.837C300.117 229.29 299.62 232.192 298.891 234.22L288.682 233.385L298.334 236.327C296.648 242.12 293.431 246.753 288.682 250.225C283.934 253.697 278.909 255.633 273.608 256.034ZM307.91 242.512C306.262 247.627 302.208 252.568 295.747 257.334C286.057 264.483 282.891 267.699 279.966 280.791C281.176 278.732 283.964 277.201 288.328 276.197C292.693 275.194 296.421 273.531 299.512 271.209L297.826 265.996L301.17 269.762C304.435 266.399 306.492 262.468 307.34 257.967C308.188 253.466 308.378 248.315 307.91 242.512ZM279.081 295.648C280.946 286.113 287.646 281.002 299.182 280.316L297.892 284.499L301.415 280.316C305.789 280.609 309.559 281.882 312.724 284.135C309.875 285.249 306.778 287.211 303.431 290.02C294.97 297.955 286.853 299.831 279.081 295.648Z" fill="#00C1B9"></path> <path d="M305.85 284.115C288.277 286.004 275.959 295.103 268.896 311.413M298.595 216.21C276.078 234.844 266.365 266.579 269.456 311.413L298.595 216.21ZM247.147 236.019C259.86 251.34 267.296 277.032 269.456 313.094L247.147 236.019ZM248.172 277.686C257.478 282.377 264.573 293.619 269.456 311.413L248.172 277.686Z" stroke="#0D1E54"></path> <path d="M306.715 247.914C304.725 255.265 300.507 261.332 294.063 266.114C284.396 273.286 272.116 284.502 269.456 313.094" stroke="#0D1E54"></path> <mask id="mask13" maskUnits="userSpaceOnUse" x="249" y="307" width="44" height="39"> <path d="M249.56 307.673H292.127V324.63C292.127 336.384 282.598 345.913 270.844 345.913C259.089 345.913 249.56 336.384 249.56 324.63V307.673Z" fill="white"></path> </mask> <g mask="url(#mask13)"> <path d="M249.56 307.673H292.127V324.63C292.127 336.384 282.598 345.913 270.844 345.913C259.089 345.913 249.56 336.384 249.56 324.63V307.673Z" fill="#0D1E54"></path> <path d="M248.659 313.516H293.597M248.659 310.718H293.597H248.659Z" stroke="white"></path> <path opacity="0.3" d="M246.103 329.549C248.603 332.579 260.395 315.365 257.152 332.885C253.909 350.405 249.904 362.966 261.43 345.432C272.956 327.898 275.239 335.416 284.418 346.86C293.597 358.305 273.206 323.325 281.785 323.325C290.364 323.325 295.189 326.498 299.435 321.61C302.14 318.496 287.184 319.355 271.128 319.421C261.979 319.459 252.902 317.605 245.455 318.713" stroke="white"></path> </g> <mask id="mask14" maskUnits="userSpaceOnUse" x="99" y="28" width="36" height="37"> <path d="M116.911 64.1211C126.749 64.1211 134.725 56.1457 134.725 46.3076C134.725 36.4695 126.749 28.4941 116.911 28.4941C107.073 28.4941 99.0977 36.4695 99.0977 46.3076C99.0977 56.1457 107.073 64.1211 116.911 64.1211Z" fill="white"></path> </mask> <g mask="url(#mask14)"> <path d="M116.911 64.1211C126.749 64.1211 134.725 56.1457 134.725 46.3076C134.725 36.4695 126.749 28.4941 116.911 28.4941C107.073 28.4941 99.0977 36.4695 99.0977 46.3076C99.0977 56.1457 107.073 64.1211 116.911 64.1211Z" fill="#7B9FFF"></path> <path opacity="0.2" fill-rule="evenodd" clip-rule="evenodd" d="M102.672 30.0964C101.335 38.5556 105.291 43.3722 114.539 44.5464C128.412 46.3075 135.132 44.8632 134.725 64.121C134.318 83.3788 95.3262 68.3882 95.3262 46.3075C95.3262 31.5871 97.7749 26.1834 102.672 30.0964Z" fill="white"></path> </g> </g> <g filter="url(#filter0_d)"> <path d="M308.125 48.0512C308.125 46.8224 309.121 45.8262 310.35 45.8262L454.237 45.8262C455.466 45.8262 456.462 46.8224 456.462 48.0512V258.69C456.462 259.919 455.466 260.915 454.237 260.915H310.35C309.121 260.915 308.125 259.919 308.125 258.69V48.0512Z" fill="white"></path> <path d="M323.079 222.342C323.079 221.113 324.075 220.117 325.304 220.117H439.524C440.753 220.117 441.749 221.113 441.749 222.342V236.434C441.749 237.663 440.753 238.659 439.524 238.659H325.304C324.075 238.659 323.079 237.663 323.079 236.434V222.342Z" fill="#232939"></path> <path d="M371.167 168.946C371.167 176.114 365.355 181.925 358.187 181.925C351.019 181.925 345.208 176.114 345.208 168.946C345.208 161.777 351.019 155.966 358.187 155.966C365.355 155.966 371.167 161.777 371.167 168.946Z" fill="#EDF2FD"></path> <path d="M363.294 161.986H353.351C353.285 161.986 353.221 162.012 353.175 162.058C353.128 162.105 353.102 162.168 353.102 162.234V175.657C353.102 175.723 353.128 175.786 353.175 175.833C353.221 175.879 353.285 175.906 353.351 175.906H363.294C363.359 175.906 363.423 175.879 363.469 175.833C363.516 175.786 363.542 175.723 363.542 175.657V162.234C363.542 162.168 363.516 162.105 363.469 162.058C363.423 162.012 363.359 161.986 363.294 161.986ZM363.205 175.457H353.439V162.322H363.205V175.457Z" fill="#507DED"></path> <path d="M355.338 163.974H361.304C361.37 163.974 361.433 163.948 361.48 163.901C361.527 163.854 361.553 163.791 361.553 163.725C361.553 163.659 361.527 163.596 361.48 163.549C361.433 163.503 361.37 163.477 361.304 163.477H355.338C355.272 163.477 355.209 163.503 355.163 163.549C355.116 163.596 355.09 163.659 355.09 163.725C355.09 163.791 355.116 163.854 355.163 163.901C355.209 163.948 355.272 163.974 355.338 163.974Z" fill="#507DED"></path> <path d="M356.583 164.471C356.517 164.471 356.453 164.497 356.407 164.544C356.36 164.59 356.334 164.654 356.334 164.72C356.334 164.785 356.36 164.849 356.407 164.895C356.453 164.942 356.517 164.968 356.583 164.968H360.063C360.128 164.968 360.192 164.942 360.238 164.895C360.285 164.849 360.311 164.785 360.311 164.72C360.311 164.654 360.285 164.59 360.238 164.544C360.192 164.497 360.128 164.471 360.063 164.471H356.583Z" fill="#507DED"></path> <path d="M355.587 172.828V172.843C355.598 172.852 355.61 172.86 355.622 172.868C356.353 173.543 357.311 173.918 358.306 173.918C359.3 173.918 360.258 173.543 360.989 172.868C361 172.861 361.011 172.854 361.021 172.845C361.021 172.845 361.021 172.845 361.021 172.831C361.416 172.46 361.73 172.013 361.945 171.516C362.16 171.019 362.271 170.483 362.271 169.942C362.271 169.401 362.16 168.865 361.945 168.369C361.73 167.872 361.416 167.424 361.021 167.054C361.021 167.054 361.021 167.054 361.021 167.039C361.011 167.029 360.999 167.021 360.986 167.014C360.256 166.339 359.298 165.965 358.304 165.965C357.31 165.965 356.352 166.339 355.622 167.014C355.61 167.021 355.598 167.029 355.587 167.039C355.587 167.039 355.587 167.039 355.587 167.054C355.193 167.424 354.878 167.872 354.663 168.369C354.448 168.865 354.337 169.401 354.337 169.942C354.337 170.483 354.448 171.019 354.663 171.516C354.878 172.013 355.193 172.46 355.587 172.831V172.828ZM356.582 170.188C356.592 170.714 356.651 171.237 356.758 171.752C356.412 171.899 356.089 172.096 355.799 172.336C355.244 171.752 354.91 170.992 354.854 170.188H356.582ZM358.322 166.46C358.672 166.46 359.045 166.969 359.291 167.814C358.658 167.997 357.986 167.997 357.352 167.814C357.598 166.969 357.971 166.46 358.322 166.46ZM356.885 167.638C356.632 167.522 356.393 167.377 356.174 167.205C356.524 166.928 356.924 166.721 357.352 166.596C357.146 166.919 356.989 167.27 356.885 167.638ZM359.291 166.599C359.719 166.723 360.119 166.929 360.469 167.205C360.25 167.376 360.011 167.52 359.758 167.635C359.654 167.269 359.497 166.92 359.291 166.599ZM358.322 168.448C358.689 168.448 359.055 168.397 359.408 168.297C359.501 168.756 359.554 169.223 359.565 169.691H357.079C357.088 169.223 357.139 168.756 357.23 168.297C357.585 168.398 357.953 168.449 358.322 168.448ZM359.565 170.188C359.555 170.657 359.504 171.123 359.413 171.583C358.703 171.381 357.951 171.381 357.24 171.583C357.146 171.124 357.091 170.657 357.079 170.188H359.565ZM358.322 173.42C357.971 173.42 357.598 172.923 357.352 172.065C357.986 171.883 358.658 171.883 359.291 172.065C359.045 172.923 358.672 173.42 358.322 173.42ZM359.758 172.241C360.011 172.358 360.25 172.503 360.469 172.674C360.12 172.951 359.72 173.158 359.291 173.283C359.497 172.961 359.655 172.61 359.758 172.241ZM357.352 173.28C356.924 173.156 356.524 172.95 356.174 172.674C356.394 172.504 356.632 172.359 356.885 172.244C356.989 172.611 357.146 172.96 357.352 173.28ZM360.832 172.336C360.542 172.096 360.219 171.899 359.873 171.752C359.984 171.238 360.047 170.714 360.062 170.188H361.802C361.741 170.994 361.401 171.754 360.84 172.336H360.832ZM361.802 169.691H360.062C360.051 169.166 359.992 168.642 359.885 168.128C360.231 167.98 360.555 167.783 360.845 167.543C361.404 168.126 361.743 168.886 361.802 169.691ZM355.804 167.543C356.094 167.783 356.417 167.98 356.763 168.128C356.654 168.642 356.594 169.165 356.582 169.691H354.842C354.902 168.885 355.242 168.125 355.804 167.543Z" fill="#507DED"></path> <path d="M424.198 115.174C424.198 122.343 418.387 128.154 411.218 128.154C404.05 128.154 398.239 122.343 398.239 115.174C398.239 108.006 404.05 102.195 411.218 102.195C418.387 102.195 424.198 108.006 424.198 115.174Z" fill="#FFE7E8"></path> <path d="M410.829 111.906H404.793C404.679 111.906 404.586 111.998 404.586 112.113V118.502C404.586 118.617 404.679 118.709 404.793 118.709H405.945H409.417H410.829C410.943 118.709 411.036 118.617 411.036 118.502V112.113C411.036 111.998 410.943 111.906 410.829 111.906ZM406.152 118.295V117.263C406.152 116.694 406.615 116.23 407.183 116.23H408.178C408.747 116.23 409.21 116.694 409.21 117.263V118.295H406.152ZM410.622 118.295H409.624V117.263C409.624 116.465 408.975 115.816 408.178 115.816H407.183C406.386 115.816 405.738 116.465 405.738 117.263V118.295H405V112.32H410.622V118.295Z" fill="#FE7581"></path> <path d="M407.674 115.81C408.449 115.81 409.079 115.18 409.079 114.404C409.079 113.629 408.449 112.999 407.674 112.999C406.899 112.999 406.269 113.629 406.269 114.404C406.269 115.18 406.899 115.81 407.674 115.81ZM407.674 113.413C408.22 113.413 408.665 113.858 408.665 114.404C408.665 114.951 408.22 115.396 407.674 115.396C407.127 115.396 406.683 114.951 406.683 114.404C406.683 113.858 407.127 113.413 407.674 113.413Z" fill="#FE7581"></path> <path d="M418.024 112.271H412.58C412.466 112.271 412.373 112.364 412.373 112.478C412.373 112.593 412.466 112.686 412.58 112.686H418.024C418.138 112.686 418.231 112.593 418.231 112.478C418.231 112.364 418.138 112.271 418.024 112.271Z" fill="#FE7581"></path> <path d="M418.024 114.156H412.58C412.466 114.156 412.373 114.249 412.373 114.363C412.373 114.478 412.466 114.57 412.58 114.57H418.024C418.138 114.57 418.231 114.478 418.231 114.363C418.231 114.249 418.138 114.156 418.024 114.156Z" fill="#FE7581"></path> <path d="M418.024 116.042H412.58C412.466 116.042 412.373 116.135 412.373 116.249C412.373 116.363 412.466 116.456 412.58 116.456H418.024C418.138 116.456 418.231 116.363 418.231 116.249C418.231 116.135 418.138 116.042 418.024 116.042Z" fill="#FE7581"></path> <path d="M418.028 117.927H414.853C414.738 117.927 414.646 118.02 414.646 118.134C414.646 118.249 414.738 118.342 414.853 118.342H418.028C418.142 118.342 418.235 118.249 418.235 118.134C418.235 118.02 418.142 117.927 418.028 117.927Z" fill="#FE7581"></path> <path fill-rule="evenodd" clip-rule="evenodd" d="M418.725 109.84H404.053C403.614 109.84 403.258 110.196 403.258 110.635V120.004C403.258 120.443 403.614 120.8 404.053 120.8H418.725C419.165 120.8 419.521 120.443 419.521 120.004V110.635C419.521 110.196 419.165 109.84 418.725 109.84ZM404.053 109.486C403.419 109.486 402.904 110.001 402.904 110.635V120.004C402.904 120.639 403.419 121.153 404.053 121.153H418.725C419.36 121.153 419.874 120.639 419.874 120.004V110.635C419.874 110.001 419.36 109.486 418.725 109.486H404.053Z" fill="#FE7581"></path> <path d="M411.956 117.028H421.969V121.108C421.969 122.336 420.973 123.333 419.744 123.333H411.956V117.028Z" fill="#FFE7E8"></path> <path d="M417.295 120.161H414.783C414.736 120.161 414.692 120.183 414.664 120.221C414.636 120.258 414.628 120.307 414.642 120.351L414.812 120.911C414.831 120.973 414.888 121.015 414.953 121.015H417.124C417.189 121.015 417.247 120.973 417.265 120.911L417.436 120.351C417.449 120.307 417.441 120.258 417.413 120.221C417.385 120.183 417.341 120.161 417.295 120.161ZM417.015 120.72H415.062L414.982 120.456H417.096L417.015 120.72Z" fill="#FE7581"></path> <path d="M419.747 118.922C419.769 118.77 419.685 118.575 419.374 118.526C419.038 118.473 418.702 118.585 418.523 118.661C418.155 117.814 417.785 117.4 417.396 117.4H414.687C414.298 117.4 413.928 117.814 413.56 118.661C413.381 118.585 413.045 118.473 412.709 118.526C412.398 118.575 412.314 118.77 412.336 118.922C412.36 119.085 412.504 119.238 412.716 119.311C412.546 119.478 412.425 119.675 412.425 119.851V120.943C412.425 121.324 412.602 121.572 412.917 121.658V122.202C412.917 122.377 413.059 122.519 413.235 122.519H414.038C414.214 122.519 414.356 122.377 414.356 122.202V121.695H417.726V122.202C417.726 122.377 417.869 122.519 418.044 122.519H418.848C419.023 122.519 419.166 122.377 419.166 122.202V121.658C419.48 121.572 419.657 121.323 419.657 120.943V119.851C419.657 119.674 419.536 119.478 419.367 119.31C419.579 119.238 419.723 119.085 419.747 118.922ZM414.687 117.694H417.396C417.558 117.694 417.893 117.87 418.342 118.996C418.237 119.05 418.137 119.125 418.032 119.205C417.843 119.35 417.647 119.5 417.433 119.5H414.65C414.436 119.5 414.24 119.35 414.051 119.205C413.946 119.125 413.845 119.05 413.741 118.996C414.19 117.87 414.525 117.694 414.687 117.694ZM412.628 118.879C412.625 118.856 412.68 118.829 412.755 118.817C413.009 118.777 413.276 118.863 413.427 118.925C413.312 118.937 413.181 118.984 413.052 119.057C412.794 119.082 412.638 118.947 412.628 118.879ZM414.061 122.202C414.061 122.214 414.051 122.224 414.039 122.224H413.235C413.223 122.224 413.212 122.214 413.212 122.202V121.695H414.061V122.202ZM418.848 122.224H418.044C418.032 122.224 418.022 122.214 418.022 122.202V121.695H418.871V122.202C418.871 122.214 418.861 122.224 418.848 122.224ZM419.363 120.943C419.363 121.259 419.22 121.4 418.899 121.4H413.184C412.863 121.4 412.72 121.259 412.72 120.943V119.851C412.72 119.649 413.196 119.216 413.477 119.216C413.491 119.216 413.504 119.218 413.514 119.22C413.619 119.246 413.742 119.34 413.871 119.439C414.089 119.606 414.336 119.794 414.65 119.794H417.433C417.747 119.794 417.994 119.606 418.212 119.439C418.342 119.34 418.464 119.246 418.569 119.22C418.579 119.217 418.592 119.216 418.606 119.216C418.887 119.216 419.363 119.649 419.363 119.851V120.943ZM419.031 119.057C418.902 118.984 418.771 118.936 418.656 118.925C418.807 118.863 419.074 118.777 419.328 118.817C419.404 118.829 419.458 118.856 419.455 118.879C419.445 118.947 419.289 119.082 419.031 119.057Z" fill="#FE7581"></path> <path d="M413.637 119.897C413.344 119.897 413.106 120.135 413.106 120.428C413.106 120.721 413.344 120.959 413.637 120.959C413.93 120.959 414.168 120.721 414.168 120.428C414.168 120.135 413.93 119.897 413.637 119.897ZM413.637 120.664C413.507 120.664 413.401 120.558 413.401 120.428C413.401 120.298 413.507 120.192 413.637 120.192C413.767 120.192 413.873 120.298 413.873 120.428C413.873 120.558 413.767 120.664 413.637 120.664Z" fill="#FE7581"></path> <path d="M418.444 119.897C418.152 119.897 417.914 120.135 417.914 120.428C417.914 120.721 418.152 120.959 418.444 120.959C418.737 120.959 418.975 120.721 418.975 120.428C418.975 120.135 418.737 119.897 418.444 119.897ZM418.444 120.664C418.314 120.664 418.209 120.558 418.209 120.428C418.209 120.298 418.314 120.192 418.444 120.192C418.574 120.192 418.68 120.298 418.68 120.428C418.68 120.558 418.574 120.664 418.444 120.664Z" fill="#FE7581"></path> <path d="M371.167 115.173C371.167 122.342 365.355 128.153 358.187 128.153C351.019 128.153 345.208 122.342 345.208 115.173C345.208 108.005 351.019 102.194 358.187 102.194C365.355 102.194 371.167 108.005 371.167 115.173Z" fill="#FFF4D5"></path> <path d="M353.239 109.611C353.175 109.611 353.113 109.637 353.067 109.682C353.021 109.728 352.996 109.79 352.996 109.855V120.816C352.996 120.864 353.01 120.911 353.037 120.951C353.063 120.991 353.101 121.022 353.146 121.041C353.19 121.059 353.239 121.064 353.287 121.055C353.334 121.045 353.377 121.022 353.411 120.988L354.457 119.942L355.503 120.988C355.548 121.034 355.61 121.059 355.675 121.059C355.74 121.059 355.802 121.034 355.847 120.988L356.893 119.942L357.939 120.988C357.984 121.034 358.046 121.059 358.111 121.059C358.175 121.059 358.237 121.034 358.283 120.988L359.329 119.942L360.374 120.988C360.42 121.034 360.482 121.059 360.547 121.059C360.611 121.059 360.673 121.034 360.719 120.988L361.764 119.942L362.81 120.988C362.844 121.022 362.888 121.045 362.935 121.055C362.982 121.064 363.031 121.059 363.076 121.041C363.12 121.022 363.158 120.991 363.185 120.951C363.212 120.911 363.226 120.864 363.226 120.816V109.855C363.226 109.79 363.2 109.728 363.155 109.682C363.109 109.637 363.047 109.611 362.982 109.611H353.239ZM353.483 110.098H362.739V120.228L361.937 119.426C361.891 119.38 361.829 119.354 361.764 119.354C361.7 119.354 361.638 119.38 361.592 119.426L360.547 120.471L359.501 119.426C359.455 119.38 359.393 119.354 359.329 119.354C359.264 119.354 359.202 119.38 359.156 119.426L358.111 120.471L357.065 119.426C357.019 119.38 356.957 119.354 356.893 119.354C356.828 119.354 356.766 119.38 356.721 119.426L355.675 120.471L354.629 119.426C354.584 119.38 354.522 119.354 354.457 119.354C354.392 119.354 354.331 119.38 354.285 119.426L353.483 120.228V110.098Z" fill="#FEC649"></path> <path d="M355.062 115.092C354.997 115.092 354.935 115.118 354.89 115.164C354.844 115.209 354.818 115.271 354.818 115.336C354.818 115.401 354.844 115.463 354.89 115.508C354.935 115.554 354.997 115.58 355.062 115.58H361.151C361.216 115.58 361.278 115.554 361.323 115.508C361.369 115.463 361.395 115.401 361.395 115.336C361.395 115.271 361.369 115.209 361.323 115.164C361.278 115.118 361.216 115.092 361.151 115.092H355.062Z" fill="#FEC649"></path> <path d="M355.062 113.265C354.997 113.265 354.935 113.29 354.89 113.336C354.844 113.382 354.818 113.444 354.818 113.508C354.818 113.573 354.844 113.635 354.89 113.681C354.935 113.726 354.997 113.752 355.062 113.752H361.151C361.216 113.752 361.278 113.726 361.323 113.681C361.369 113.635 361.395 113.573 361.395 113.508C361.395 113.444 361.369 113.382 361.323 113.336C361.278 113.29 361.216 113.265 361.151 113.265H355.062Z" fill="#FEC649"></path> <path d="M355.062 111.439C354.997 111.439 354.935 111.465 354.89 111.51C354.844 111.556 354.818 111.618 354.818 111.683C354.818 111.747 354.844 111.809 354.89 111.855C354.935 111.901 354.997 111.926 355.062 111.926H361.151C361.216 111.926 361.278 111.901 361.323 111.855C361.369 111.809 361.395 111.747 361.395 111.683C361.395 111.618 361.369 111.556 361.323 111.51C361.278 111.465 361.216 111.439 361.151 111.439H355.062Z" fill="#FEC649"></path> <path d="M355.062 116.918C354.997 116.918 354.935 116.944 354.89 116.99C354.844 117.036 354.818 117.097 354.818 117.162C354.818 117.227 354.844 117.289 354.89 117.334C354.935 117.38 354.997 117.406 355.062 117.406H361.151C361.216 117.406 361.278 117.38 361.323 117.334C361.369 117.289 361.395 117.227 361.395 117.162C361.395 117.097 361.369 117.036 361.323 116.99C361.278 116.944 361.216 116.918 361.151 116.918H355.062Z" fill="#FEC649"></path> <path d="M424.19 168.946C424.19 176.115 418.379 181.926 411.211 181.926C404.043 181.926 398.231 176.115 398.231 168.946C398.231 161.778 404.043 155.967 411.211 155.967C418.379 155.967 424.19 161.778 424.19 168.946Z" fill="#E5F7EE"></path> <path d="M410.823 165.678H404.787C404.672 165.678 404.58 165.771 404.58 165.886V172.275C404.58 172.39 404.672 172.482 404.787 172.482H405.939H409.41H410.823C410.937 172.482 411.03 172.39 411.03 172.275V165.886C411.03 165.771 410.937 165.678 410.823 165.678ZM406.146 172.068V171.036C406.146 170.466 406.608 170.003 407.177 170.003H408.171C408.74 170.003 409.203 170.466 409.203 171.036V172.068H406.146ZM410.615 172.068H409.618V171.036C409.618 170.238 408.969 169.589 408.171 169.589H407.177C406.38 169.589 405.732 170.238 405.732 171.036V172.068H404.994V166.093H410.615V172.068Z" fill="#5AC894"></path> <path d="M407.667 169.583C408.442 169.583 409.072 168.952 409.072 168.177C409.072 167.402 408.442 166.771 407.667 166.771C406.892 166.771 406.262 167.402 406.262 168.177C406.262 168.952 406.892 169.583 407.667 169.583ZM407.667 167.186C408.214 167.186 408.658 167.63 408.658 168.177C408.658 168.724 408.214 169.169 407.667 169.169C407.121 169.169 406.676 168.724 406.676 168.177C406.676 167.63 407.121 167.186 407.667 167.186Z" fill="#5AC894"></path> <path d="M418.017 166.044H412.573C412.459 166.044 412.366 166.136 412.366 166.251C412.366 166.365 412.459 166.458 412.573 166.458H418.017C418.131 166.458 418.224 166.365 418.224 166.251C418.224 166.136 418.131 166.044 418.017 166.044Z" fill="#5AC894"></path> <path d="M418.017 167.929H412.573C412.459 167.929 412.366 168.022 412.366 168.137C412.366 168.251 412.459 168.344 412.573 168.344H418.017C418.131 168.344 418.224 168.251 418.224 168.137C418.224 168.022 418.131 167.929 418.017 167.929Z" fill="#5AC894"></path> <path d="M418.017 169.814H412.573C412.459 169.814 412.366 169.907 412.366 170.022C412.366 170.136 412.459 170.229 412.573 170.229H418.017C418.131 170.229 418.224 170.136 418.224 170.022C418.224 169.907 418.131 169.814 418.017 169.814Z" fill="#5AC894"></path> <path d="M418.022 171.7H414.847C414.733 171.7 414.64 171.793 414.64 171.907C414.64 172.021 414.733 172.114 414.847 172.114H418.022C418.137 172.114 418.229 172.021 418.229 171.907C418.229 171.793 418.137 171.7 418.022 171.7Z" fill="#5AC894"></path> <path fill-rule="evenodd" clip-rule="evenodd" d="M418.72 163.612H404.047C403.608 163.612 403.252 163.968 403.252 164.408V173.777C403.252 174.216 403.608 174.572 404.047 174.572H418.72C419.159 174.572 419.515 174.216 419.515 173.777V164.408C419.515 163.968 419.159 163.612 418.72 163.612ZM404.047 163.259C403.413 163.259 402.898 163.773 402.898 164.408V173.777C402.898 174.411 403.413 174.926 404.047 174.926H418.72C419.354 174.926 419.869 174.411 419.869 173.777V164.408C419.869 163.773 419.354 163.259 418.72 163.259H404.047Z" fill="#5AC894"></path> <path d="M411.95 170.801H421.962V174.88C421.962 176.109 420.966 177.105 419.737 177.105H411.95V170.801Z" fill="#E5F7EE"></path> <path d="M416.499 172.974C415.203 173.535 414.155 172.791 414.155 172.791C414.089 172.746 413.998 172.74 413.928 172.777C413.857 172.814 413.81 172.892 413.81 172.972C413.81 174.886 413.81 176.508 413.81 178.423C413.81 178.544 413.908 178.642 414.029 178.642C414.15 178.642 414.248 178.544 414.248 178.423V175.98C415.022 176.343 415.886 176.343 416.67 176.014C417.266 175.765 417.687 175.723 417.953 175.736C418.219 175.749 418.307 175.804 418.307 175.804C418.373 175.841 418.458 175.839 418.523 175.801C418.588 175.762 418.631 175.688 418.631 175.613V172.974C418.631 172.896 418.587 172.82 418.519 172.782C418.519 172.782 418.312 172.673 417.974 172.654C417.446 172.649 416.875 172.814 416.499 172.974V172.974ZM417.951 173.093C418.067 173.099 418.137 173.115 418.193 173.129V175.334C418.122 175.321 418.068 175.302 417.976 175.298C417.64 175.281 417.149 175.339 416.501 175.61C415.757 175.922 414.958 175.89 414.248 175.483V175.355V173.332C414.721 173.548 415.632 173.826 416.673 173.376C417.087 173.216 417.524 173.08 417.951 173.093Z" fill="#5AC794"></path> <path fill-rule="evenodd" clip-rule="evenodd" d="M320.437 54.8349C320.581 54.9798 320.581 55.2146 320.437 55.3594L318.845 56.9514L320.437 58.5434C320.581 58.6882 320.581 58.923 320.437 59.0678C320.292 59.2126 320.057 59.2126 319.912 59.0678L318.058 57.2136C317.913 57.0688 317.913 56.834 318.058 56.6892L319.912 54.8349C320.057 54.6901 320.292 54.6901 320.437 54.8349Z" fill="#8392B8"></path> <path fill-rule="evenodd" clip-rule="evenodd" d="M447.455 54.8354C447.6 54.9802 447.6 55.2151 447.455 55.3599L443.746 59.0683C443.602 59.2131 443.367 59.2131 443.222 59.0683C443.077 58.9235 443.077 58.6887 443.222 58.5439L446.93 54.8354C447.075 54.6906 447.31 54.6906 447.455 54.8354Z" fill="#8392B8"></path> <path fill-rule="evenodd" clip-rule="evenodd" d="M443.222 54.8354C443.367 54.6906 443.602 54.6906 443.746 54.8354L447.455 58.5439C447.6 58.6887 447.6 58.9235 447.455 59.0683C447.31 59.2131 447.075 59.2131 446.93 59.0683L443.222 55.3599C443.077 55.2151 443.077 54.9802 443.222 54.8354Z" fill="#8392B8"></path> <path d="M378.437 55.7919C378.482 55.6111 378.527 55.4001 378.542 55.1741C378.542 55.37 378.504 55.5809 378.437 55.7919Z" fill="#00AB62"></path> <path d="M371.94 56.8916C371.88 56.6656 371.858 56.4471 371.858 56.2437C371.88 56.6279 371.94 56.8765 371.94 56.8916Z" fill="#00B4FF"></path> <path d="M371.94 56.8925C371.933 56.8774 371.873 56.6288 371.858 56.2446V56.237C371.858 56.0261 371.88 55.8302 371.925 55.6418C371.85 56.2822 371.933 56.8473 371.94 56.8925Z" fill="#706766"></path> <path d="M373.035 57.9632C372.808 58.5265 372.595 59.1552 372.465 59.5534C372.387 59.7933 372.164 59.9578 371.912 59.9578C371.69 59.9578 371.622 59.7744 371.829 59.6938C371.886 59.6718 371.926 59.6584 371.932 59.6566C371.933 59.6564 371.933 59.6564 371.933 59.6561C371.952 59.649 372.38 59.4561 371.948 56.8914C372.673 57.2681 372.93 57.3981 373.035 57.9632Z" fill="#FFC766"></path> <path d="M371.94 56.8916C371.88 56.6656 371.858 56.4471 371.858 56.2437C371.88 56.6279 371.94 56.8765 371.94 56.8916Z" fill="#FFA200"></path> <path d="M373.518 57.0719C373.062 57.0494 372.497 57.086 371.94 56.8911C371.963 56.8459 372.329 55.987 372.815 54.9549C373.047 54.8644 373.353 54.7592 373.711 54.9023C373.711 54.9023 373.705 54.9106 373.727 54.9181C373.817 55.6137 373.711 56.3607 373.518 57.0719Z" fill="#EA6766"></path> <path d="M373.518 57.0722C373.399 57.5694 373.234 58.0365 373.077 58.4359C372.965 57.8708 372.666 57.2605 371.94 56.8914C372.539 56.9968 373.062 57.0496 373.518 57.0722Z" fill="#EA6766"></path> <path d="M374.021 57.0878C373.85 58.2665 373.65 59.4251 373.472 59.8994C373.417 60.0465 373.27 60.109 373.113 60.109H373.059C372.845 60.109 372.668 60.039 372.84 59.9118C372.903 59.8653 373.067 59.7206 373.08 59.6436C373.118 59.4297 373.178 58.9536 373.078 58.4364C373.236 58.0371 373.4 57.57 373.52 57.0728C373.699 57.0878 373.864 57.0878 374.021 57.0878Z" fill="#EA6766"></path> <path d="M374.423 53.9067C374.288 53.8766 374.169 53.854 374.049 53.8389C373.87 53.8163 373.705 53.8163 373.556 53.8238C373.556 53.8238 373.556 53.8314 373.563 53.8314C373.683 54.0725 374.356 54.4868 374.356 54.4868C374.356 54.9841 373.847 54.9256 373.712 54.9106C373.757 55.6489 373.679 56.4231 373.515 57.0937C373.694 57.1012 374.02 57.092 374.177 57.0844C374.401 55.5098 374.43 53.9067 374.423 53.9067C374.43 53.9067 374.43 53.9067 374.423 53.9067Z" fill="#EA6766"></path> <path d="M372.823 54.9556C372.337 55.9877 371.963 56.8466 371.941 56.8918C371.941 56.8165 371.911 55.3247 372.823 54.9556Z" fill="#EA6766"></path> <path d="M373.558 53.8114C373.49 53.819 373.423 53.8265 373.363 53.834C373.401 53.7512 373.446 53.6683 373.49 53.5779C373.513 53.6382 373.558 53.7964 373.558 53.8114Z" fill="#706766"></path> <path d="M373.494 53.5779C373.449 53.6608 373.412 53.7436 373.367 53.834C373.255 53.8491 373.143 53.8792 373.045 53.9169C373.3 53.6984 373.494 53.5779 373.494 53.5779Z" fill="#706766"></path> <path d="M374.359 54.4746C374.359 54.9718 373.849 54.9269 373.714 54.9119C373.692 54.5352 373.671 54.1883 373.566 53.8191C373.679 54.0602 374.359 54.4746 374.359 54.4746Z" fill="#706766"></path> <path d="M373.043 53.9167C372.647 54.2558 372.116 54.851 371.929 55.6496C372.011 54.964 372.281 54.1955 373.043 53.9167Z" fill="#706766"></path> <path d="M373.366 53.8342C373.179 54.2109 373 54.5952 372.828 54.9568C371.908 55.326 371.945 56.8177 371.945 56.8931C371.938 56.8479 371.855 56.2828 371.923 55.6499C372.11 54.8438 372.648 54.2561 373.037 53.9171C373.142 53.8794 373.254 53.8493 373.366 53.8342Z" fill="#706766"></path> <path d="M373.719 54.9115C373.696 54.9115 373.695 54.9115 373.695 54.9115C373.336 54.8211 373.062 54.8582 372.83 54.9487C373.002 54.587 373.182 54.2028 373.368 53.8261C373.428 53.8185 373.496 53.811 373.563 53.8035C373.563 53.8035 373.563 53.811 373.57 53.811C373.675 54.1877 373.696 54.5424 373.719 54.9115Z" fill="#706766"></path> <path d="M377.673 58.4476C377.716 58.5532 377.726 58.671 377.692 58.7796L377.408 59.6668C377.351 59.8451 377.185 59.9661 376.998 59.9661H376.954C376.671 59.9661 376.576 59.7548 376.837 59.6436C376.87 59.6294 376.891 59.6215 376.891 59.6215C376.891 59.6215 377.429 58.8897 376.377 57.623C376.108 57.3593 375.929 57.0354 375.809 56.6888C375.981 56.5833 376.121 56.4377 376.218 56.3096C376.248 56.3698 376.3 56.4264 376.313 56.4913C376.321 56.4988 376.337 56.5078 376.337 56.5229C376.501 56.779 376.708 57.0153 376.985 57.2338C377.194 57.3996 377.355 57.5658 377.482 57.7315C377.519 58.0256 377.609 58.2878 377.673 58.4476Z" fill="#CAEE66"></path> <path d="M376.201 56.3197C376.231 56.38 376.269 56.4327 376.299 56.493C376.269 56.4327 376.231 56.38 376.201 56.3197C376.007 55.9732 375.872 55.5588 375.812 55.0615C375.865 55.4608 375.977 55.8978 376.201 56.3197Z" fill="#A6E200"></path> <path d="M378.431 55.7998C378.371 56.0032 378.311 56.1539 378.289 56.2066C378.311 56.1087 378.348 56.0108 378.386 55.9128C378.408 55.8751 378.423 55.8375 378.431 55.7998Z" fill="#A6E200"></path> <path d="M378.54 55.1672C378.517 54.3158 377.777 53.6302 376.491 53.6453C376.521 53.6453 376.551 53.6453 376.58 53.6453C376.625 53.6453 376.67 53.6453 376.723 53.6453C377.059 53.6453 377.336 53.6905 377.56 53.7583H377.567C378.383 54.0069 378.562 54.6172 378.54 55.1672Z" fill="#A6E200"></path> <path d="M378.62 58.3064C378.676 58.411 378.7 58.5325 378.675 58.6487L378.43 59.7704C378.387 59.9681 378.212 60.109 378.009 60.109H377.861C377.588 60.109 377.506 59.9195 377.763 59.8261C377.769 59.8239 377.773 59.8227 377.773 59.8227C377.773 59.8227 378.739 59.406 377.474 57.7701C377.466 57.7098 377.474 57.6152 377.474 57.5549C377.81 57.7433 378.154 57.8638 378.453 57.9467C378.512 58.096 378.572 58.2182 378.62 58.3064Z" fill="#66AA66"></path> <path d="M377.536 57.8778C377.364 57.5334 377.185 57.4044 376.983 57.2387C376.706 57.0202 376.497 56.7715 376.325 56.5154C376.639 56.99 377.321 57.1675 377.476 57.5626C377.476 57.6229 378.096 58.5236 377.536 57.8778Z" fill="#66AA66"></path> <path d="M378.445 57.9462C378.146 57.8633 377.802 57.7428 377.465 57.5544C377.465 57.0948 377.637 56.5674 378.28 56.2209C378.28 56.2209 378.28 56.2133 378.288 56.2058C378.108 56.8839 378.273 57.5243 378.445 57.9462Z" fill="#66AA66"></path> <path d="M378.537 55.1672C378.53 55.4007 378.485 55.6117 378.432 55.7925C378.432 55.7925 378.432 55.7925 378.432 55.8C378.417 55.8377 378.403 55.8754 378.388 55.913C378.343 56.011 378.313 56.1089 378.29 56.2069C378.283 56.2219 378.283 56.2219 378.283 56.2219C377.64 56.5685 377.468 57.0959 377.475 57.563C377.057 57.3294 376.638 56.9979 376.324 56.5158C376.316 56.5082 376.309 56.5007 376.309 56.4856C376.271 56.4329 376.241 56.3726 376.212 56.3123C376.914 55.3178 375.846 53.7108 375.846 53.7108C375.846 53.7108 375.868 53.698 375.905 53.698C375.912 53.698 375.927 53.698 375.935 53.6905C376.129 53.6679 376.309 53.6528 376.481 53.6453H376.488C377.774 53.6302 378.515 54.3158 378.537 55.1672Z" fill="#66AA66"></path> <path d="M375.821 56.6889C375.447 56.9224 374.879 57.0806 374.034 57.0882C374.265 55.506 374.429 53.9081 374.429 53.9081C374.796 53.9458 375.275 53.9012 375.851 53.7129C375.821 53.7958 375.38 55.4005 375.821 56.6889Z" fill="#EA6766"></path> <path d="M376.225 56.3175C376.128 56.4531 375.986 56.5833 375.814 56.6888C375.373 55.4004 375.823 53.8014 375.846 53.7185C375.838 53.7712 375.726 54.3306 375.816 55.0464V55.0539C375.883 55.5587 376.038 55.9709 376.225 56.3175Z" fill="#EA6766"></path> <path d="M375.774 55.0318C375.684 54.3086 375.819 53.7657 375.842 53.7104C375.842 53.7104 376.985 55.4078 376.198 56.3252C376.011 55.9787 375.833 55.5291 375.774 55.0318Z" fill="#66AA66"></path> <path d="M378.398 55.9045C378.413 55.8668 378.428 55.8292 378.443 55.7915C378.383 55.9949 378.323 56.1456 378.301 56.1983C378.323 56.1079 378.353 56.01 378.398 55.9045Z" fill="#66D2FF"></path> <path d="M378.538 55.1741C378.546 55.37 378.508 55.5809 378.434 55.7919C378.486 55.6186 378.531 55.4001 378.538 55.1741Z" fill="#FFBD00"></path> <path d="M379.306 58.0311C379.324 58.0623 379.3 58.1027 379.264 58.0997C379.121 58.0874 378.817 58.0521 378.448 57.955C378.276 57.5331 378.111 56.8927 378.291 56.2071C378.313 56.1544 378.373 56.0037 378.433 55.8003C378.433 55.8003 378.433 55.8003 378.433 55.7928C378.508 55.5818 378.538 55.3708 378.538 55.175V55.1674C378.56 54.6174 378.38 54.0072 377.565 53.7585C378.209 53.9394 378.792 54.3763 378.792 55.3558C378.792 56.9817 379.172 57.7949 379.306 58.0311Z" fill="#66D2FF"></path> <path d="M378.539 55.1668C378.517 54.3155 377.777 53.6299 376.49 53.645H376.483C376.318 53.6525 376.131 53.6676 375.937 53.6902C375.967 53.6826 375.997 53.6826 376.034 53.6751C376.049 53.6751 376.057 53.6751 376.072 53.6676C376.087 53.6676 376.109 53.6676 376.131 53.66C376.176 53.6525 376.229 53.6525 376.288 53.645C376.311 53.645 376.333 53.645 376.356 53.6374C376.371 53.6374 376.378 53.6374 376.393 53.6374C376.453 53.6374 376.513 53.6299 376.573 53.6299C376.617 53.6299 376.662 53.6299 376.715 53.6299C376.976 53.6374 377.276 53.6676 377.552 53.7429H377.56C378.382 54.0066 378.562 54.6169 378.539 55.1668Z" fill="#66D2FF"></path> <path fill-rule="evenodd" clip-rule="evenodd" d="M373.48 52.1377C373.48 52.1377 373.113 52.2508 372.949 52.4918C372.956 52.4692 373.016 52.2131 372.934 52.1302C372.927 52.1227 370.795 52.6425 370.795 54.2247C370.795 56.1007 371.895 56.8616 371.939 56.8918C369.752 53.6303 372.998 53.0331 373.188 52.998L373.189 52.9979L373.191 53.0008C371.947 54.0176 371.812 55.4313 371.85 56.2438C371.85 56.0329 371.872 55.837 371.917 55.6486C371.999 54.963 372.268 54.1945 373.031 53.9158C373.285 53.6973 373.472 53.5843 373.472 53.5843H373.48C373.389 53.3449 373.213 53.0397 373.191 53.0008L373.196 52.9966C373.194 52.9969 373.192 52.9973 373.189 52.9979L373.188 52.9966C373.188 52.9966 373.562 52.4994 373.48 52.1377ZM372.239 52.8082C372.239 52.8082 372.545 52.3486 372.882 52.2281C372.889 52.2281 372.942 52.7781 372.239 52.8082ZM373.398 52.2733C373.143 52.4089 373.046 52.6877 373.046 52.6877C373.255 52.6305 373.356 52.3745 373.387 52.2962C373.393 52.2817 373.396 52.2733 373.398 52.2733Z" fill="#66D2FF"></path> <path d="M371.856 56.2438C371.856 56.4547 371.886 56.6657 371.938 56.8917C369.71 53.5692 373.12 53.0117 373.194 52.9966C371.953 54.0137 371.811 55.4226 371.856 56.2438Z" fill="#66D2FF"></path> <path d="M371.94 56.8916C371.88 56.6656 371.858 56.4471 371.858 56.2437C371.88 56.6279 371.94 56.8765 371.94 56.8916Z" fill="#00B4FF"></path> <path d="M372.24 52.8082C372.24 52.8082 372.547 52.3486 372.883 52.228C372.891 52.228 372.943 52.778 372.24 52.8082Z" fill="#5AC8F6"></path> <path d="M373.393 52.2729C373.393 52.2729 373.289 52.6271 373.042 52.6873C373.049 52.6873 373.147 52.4086 373.393 52.2729Z" fill="#5AC8F6"></path> <path d="M384.248 56.5002C383.821 56.5002 383.413 56.6938 383.166 57.1077C382.98 56.7205 382.619 56.5002 382.152 56.5002C381.751 56.5002 381.391 56.6604 381.131 57.0676V56.5803H380.69V59.9179H381.131V58.0689C381.131 57.2412 381.611 56.9274 382.092 56.9274C382.566 56.9274 382.873 57.2412 382.873 57.8353V59.9179H383.313V58.0689C383.313 57.2412 383.727 56.9274 384.241 56.9274C384.715 56.9274 385.056 57.2412 385.056 57.8353V59.9179H385.496V57.8353C385.496 57.0009 384.982 56.5002 384.248 56.5002Z" fill="#8392B8"></path> <path d="M389.219 56.5803V57.2345C388.938 56.7873 388.464 56.5002 387.87 56.5002C386.929 56.5002 386.148 57.2612 386.148 58.2491C386.148 59.237 386.929 59.998 387.87 59.998C388.464 59.998 388.938 59.711 389.219 59.2637V59.9179H389.659V56.5803H389.219ZM387.904 59.5708C387.163 59.5708 386.589 58.9901 386.589 58.2491C386.589 57.5082 387.163 56.9274 387.904 56.9274C388.644 56.9274 389.219 57.5082 389.219 58.2491C389.219 58.9901 388.644 59.5708 387.904 59.5708Z" fill="#8392B8"></path> <path d="M392.361 57.0075V56.5803H391.4V55.6458L390.959 55.7793V56.5803H390.258V57.0075H390.959V59.0301C390.959 59.8311 391.46 60.0514 392.361 59.9179V59.5308C391.713 59.5575 391.4 59.6042 391.4 59.0301V57.0075H392.361Z" fill="#8392B8"></path> <path d="M393.315 55.8728C393.496 55.8728 393.636 55.7259 393.636 55.5523C393.636 55.3788 393.496 55.2319 393.315 55.2319C393.135 55.2319 392.995 55.3788 392.995 55.5523C392.995 55.7259 393.135 55.8728 393.315 55.8728ZM393.095 59.9179H393.536V56.5803H393.095V59.9179Z" fill="#8392B8"></path> </g> <rect opacity="0.3" x="337.446" y="134.45" width="41.3965" height="3.44971" rx="1.72485" fill="#8392B8"></rect> <rect opacity="0.3" x="344.923" y="187.92" width="25.8728" height="3.44971" rx="1.72485" fill="#8392B8"></rect> <rect opacity="0.3" x="396.668" y="134.45" width="29.8975" height="3.44971" rx="1.72485" fill="#8392B8"></rect> <rect opacity="0.3" x="390.341" y="187.92" width="41.3965" height="3.44971" rx="1.72485" fill="#8392B8"></rect> <rect opacity="0.5" x="317.897" y="250.015" width="12.074" height="2.2998" rx="1.1499" fill="#8392B8"></rect> <rect opacity="0.5" x="348.944" y="250.015" width="20.1233" height="2.2998" rx="1.1499" fill="#8392B8"></rect> <rect opacity="0.3" x="392.065" y="250.015" width="23.573" height="2.2998" rx="1.1499" fill="#8392B8"></rect> <rect opacity="0.3" x="432.892" y="250.015" width="13.7988" height="2.2998" rx="1.1499" fill="#8392B8"></rect> <rect opacity="0.3" x="359.868" y="227.591" width="44.8462" height="3.44971" rx="1.72485" fill="white"></rect> <rect opacity="0.2" x="335.723" y="72.9297" width="85.0928" height="4.02466" rx="2.01233" fill="#232939"></rect> <rect opacity="0.2" x="356.417" y="82.7036" width="44.2712" height="4.02466" rx="2.01233" fill="#232939"></rect> <path d="M323.81 246.7H440.626V247.071H323.81V246.7Z" fill="#CBD2E2"></path> <path d="M323.76 246.565H359.407V247.14H323.76V246.565Z" fill="#8392B8"></path> <path d="M324.923 246.885C324.923 247.397 324.508 247.812 323.996 247.812C323.484 247.812 323.069 247.397 323.069 246.885C323.069 246.373 323.484 245.958 323.996 245.958C324.508 245.958 324.923 246.373 324.923 246.885Z" fill="#8392B8"></path> <path d="M360.531 246.885C360.531 247.397 360.116 247.812 359.604 247.812C359.092 247.812 358.677 247.397 358.677 246.885C358.677 246.373 359.092 245.958 359.604 245.958C360.116 245.958 360.531 246.373 360.531 246.885Z" fill="#8392B8"></path> <path d="M405.03 246.885C405.03 247.397 404.614 247.812 404.102 247.812C403.59 247.812 403.175 247.397 403.175 246.885C403.175 246.373 403.59 245.958 404.102 245.958C404.614 245.958 405.03 246.373 405.03 246.885Z" fill="#CBD2E2"></path> <path d="M441.374 246.885C441.374 247.397 440.959 247.812 440.447 247.812C439.935 247.812 439.52 247.397 439.52 246.885C439.52 246.373 439.935 245.958 440.447 245.958C440.959 245.958 441.374 246.373 441.374 246.885Z" fill="#CBD2E2"></path> <g filter="url(#filter1_d)"> <path d="M140.582 8.57271C140.582 7.34384 141.578 6.34766 142.807 6.34766H286.694C287.923 6.34766 288.919 7.34385 288.919 8.57272V219.212C288.919 220.441 287.923 221.437 286.694 221.437H142.807C141.578 221.437 140.582 220.441 140.582 219.212V8.57271Z" fill="white"></path> <path d="M155.531 182.783C155.531 181.554 156.527 180.558 157.756 180.558H271.976C273.205 180.558 274.201 181.554 274.201 182.783V196.875C274.201 198.104 273.205 199.1 271.976 199.1H157.756C156.527 199.1 155.531 198.104 155.531 196.875V182.783Z" fill="#232939"></path> <path d="M156.159 207.716H272.975V208.087H156.159V207.716Z" fill="#CBD2E2"></path> <path d="M157.264 207.901C157.264 208.413 156.849 208.828 156.337 208.828C155.825 208.828 155.41 208.413 155.41 207.901C155.41 207.389 155.825 206.974 156.337 206.974C156.849 206.974 157.264 207.389 157.264 207.901Z" fill="#8392B8"></path> <path d="M192.873 207.901C192.873 208.413 192.458 208.828 191.946 208.828C191.434 208.828 191.019 208.413 191.019 207.901C191.019 207.389 191.434 206.974 191.946 206.974C192.458 206.974 192.873 207.389 192.873 207.901Z" fill="#CBD2E2"></path> <path d="M237.376 207.901C237.376 208.413 236.961 208.828 236.449 208.828C235.937 208.828 235.521 208.413 235.521 207.901C235.521 207.389 235.937 206.974 236.449 206.974C236.961 206.974 237.376 207.389 237.376 207.901Z" fill="#CBD2E2"></path> <path d="M273.719 207.901C273.719 208.413 273.304 208.828 272.792 208.828C272.28 208.828 271.865 208.413 271.865 207.901C271.865 207.389 272.28 206.974 272.792 206.974C273.304 206.974 273.719 207.389 273.719 207.901Z" fill="#CBD2E2"></path> <path fill-rule="evenodd" clip-rule="evenodd" d="M279.911 16.0984C280.056 16.2432 280.056 16.478 279.911 16.6228L276.202 20.3313C276.058 20.4761 275.823 20.4761 275.678 20.3313C275.533 20.1864 275.533 19.9516 275.678 19.8068L279.386 16.0984C279.531 15.9535 279.766 15.9535 279.911 16.0984Z" fill="#8392B8"></path> <path fill-rule="evenodd" clip-rule="evenodd" d="M275.678 16.0984C275.823 15.9535 276.058 15.9535 276.202 16.0984L279.911 19.8068C280.056 19.9516 280.056 20.1864 279.911 20.3313C279.766 20.4761 279.531 20.4761 279.386 20.3313L275.678 16.6228C275.533 16.478 275.533 16.2432 275.678 16.0984Z" fill="#8392B8"></path> <path d="M210.894 17.4259C210.939 17.2451 210.984 17.0341 210.999 16.8081C210.999 17.004 210.961 17.2149 210.894 17.4259Z" fill="#00AB62"></path> <path d="M204.401 18.5259C204.341 18.2998 204.318 18.0814 204.318 17.8779C204.341 18.2622 204.401 18.5108 204.401 18.5259Z" fill="#00B4FF"></path> <path d="M204.401 18.5263C204.393 18.5112 204.333 18.2626 204.318 17.8784V17.8708C204.318 17.6599 204.341 17.464 204.386 17.2756C204.311 17.916 204.393 18.4811 204.401 18.5263Z" fill="#706766"></path> <path d="M205.492 19.5977C205.266 20.161 205.052 20.7897 204.922 21.1879C204.844 21.4279 204.621 21.5923 204.369 21.5923C204.147 21.5923 204.079 21.4089 204.286 21.3284C204.343 21.3063 204.383 21.293 204.389 21.2911C204.39 21.2909 204.39 21.2909 204.39 21.2907C204.409 21.2835 204.837 21.0906 204.405 18.5259C205.13 18.9026 205.387 19.0327 205.492 19.5977Z" fill="#FFC766"></path> <path d="M204.401 18.5259C204.341 18.2998 204.318 18.0814 204.318 17.8779C204.341 18.2622 204.401 18.5108 204.401 18.5259Z" fill="#FFA200"></path> <path d="M205.974 18.7065C205.518 18.6839 204.953 18.7205 204.396 18.5257C204.419 18.4805 204.785 17.6216 205.271 16.5894C205.503 16.499 205.809 16.3937 206.167 16.5369C206.167 16.5369 206.161 16.5451 206.183 16.5527C206.273 17.2482 206.167 17.9952 205.974 18.7065Z" fill="#EA6766"></path> <path d="M205.974 18.7067C205.855 19.2039 205.69 19.6711 205.533 20.0704C205.421 19.5053 205.122 18.8951 204.396 18.5259C204.995 18.6314 205.518 18.6841 205.974 18.7067Z" fill="#EA6766"></path> <path d="M206.478 18.7223C206.307 19.901 206.107 21.0596 205.929 21.5339C205.874 21.681 205.727 21.7435 205.57 21.7435H205.516C205.302 21.7435 205.125 21.6735 205.297 21.5463C205.36 21.4998 205.524 21.3552 205.537 21.2782C205.575 21.0642 205.635 20.5881 205.536 20.071C205.693 19.6716 205.857 19.2045 205.977 18.7073C206.156 18.7223 206.321 18.7223 206.478 18.7223Z" fill="#EA6766"></path> <path d="M206.88 15.5408C206.745 15.5106 206.626 15.488 206.506 15.4729C206.327 15.4503 206.162 15.4503 206.013 15.4579C206.013 15.4579 206.013 15.4654 206.02 15.4654C206.14 15.7065 206.813 16.1209 206.813 16.1209C206.813 16.6181 206.304 16.5597 206.169 16.5446C206.214 17.283 206.136 18.0572 205.972 18.7277C206.151 18.7352 206.477 18.726 206.634 18.7185C206.858 17.1438 206.887 15.5408 206.88 15.5408C206.887 15.5408 206.887 15.5408 206.88 15.5408Z" fill="#EA6766"></path> <path d="M205.279 16.5894C204.793 17.6215 204.419 18.4804 204.397 18.5256C204.397 18.4503 204.367 16.9585 205.279 16.5894Z" fill="#EA6766"></path> <path d="M206.014 15.4452C205.946 15.4528 205.879 15.4603 205.819 15.4678C205.857 15.385 205.902 15.3021 205.946 15.2117C205.969 15.2719 206.014 15.4302 206.014 15.4452Z" fill="#706766"></path> <path d="M205.95 15.2117C205.905 15.2945 205.868 15.3774 205.823 15.4678C205.711 15.4829 205.599 15.513 205.501 15.5507C205.756 15.3322 205.95 15.2117 205.95 15.2117Z" fill="#706766"></path> <path d="M206.815 16.1083C206.815 16.6056 206.305 16.5607 206.17 16.5457C206.148 16.169 206.127 15.8221 206.022 15.4529C206.135 15.694 206.815 16.1083 206.815 16.1083Z" fill="#706766"></path> <path d="M205.499 15.551C205.103 15.8901 204.572 16.4853 204.385 17.2839C204.468 16.5983 204.737 15.8298 205.499 15.551Z" fill="#706766"></path> <path d="M205.822 15.468C205.635 15.8447 205.456 16.229 205.284 16.5906C204.364 16.9598 204.401 18.4515 204.401 18.5269C204.394 18.4817 204.312 17.9166 204.379 17.2837C204.566 16.4776 205.104 15.8899 205.493 15.5509C205.598 15.5132 205.71 15.4831 205.822 15.468Z" fill="#706766"></path> <path d="M206.175 16.5453C206.152 16.5453 206.151 16.5453 206.151 16.5453C205.792 16.4549 205.518 16.492 205.286 16.5824C205.458 16.2208 205.638 15.8366 205.825 15.4599C205.884 15.4523 205.952 15.4448 206.019 15.4373C206.019 15.4373 206.019 15.4448 206.026 15.4448C206.131 15.8215 206.152 16.1761 206.175 16.5453Z" fill="#706766"></path> <path d="M210.129 20.0816C210.172 20.1873 210.182 20.305 210.148 20.4136L209.864 21.3008C209.807 21.4791 209.641 21.6002 209.454 21.6002H209.41C209.127 21.6002 209.032 21.3889 209.293 21.2776C209.326 21.2635 209.347 21.2556 209.347 21.2556C209.347 21.2556 209.885 20.5237 208.833 19.2571C208.564 18.9934 208.385 18.6694 208.265 18.3228C208.437 18.2174 208.577 18.0717 208.674 17.9436C208.704 18.0039 208.756 18.0605 208.769 18.1253C208.777 18.1328 208.793 18.1418 208.793 18.1569C208.957 18.4131 209.164 18.6494 209.441 18.8679C209.65 19.0336 209.811 19.1998 209.938 19.3655C209.975 19.6597 210.065 19.9218 210.129 20.0816Z" fill="#CAEE66"></path> <path d="M208.662 17.9538C208.692 18.014 208.73 18.0668 208.759 18.127C208.73 18.0668 208.692 18.014 208.662 17.9538C208.468 17.6072 208.333 17.1928 208.273 16.6956C208.326 17.0949 208.438 17.5318 208.662 17.9538Z" fill="#A6E200"></path> <path d="M210.887 17.4336C210.827 17.637 210.767 17.7877 210.745 17.8404C210.767 17.7425 210.804 17.6445 210.842 17.5466C210.864 17.5089 210.879 17.4713 210.887 17.4336Z" fill="#A6E200"></path> <path d="M210.996 16.8009C210.973 15.9496 210.233 15.264 208.947 15.2791C208.977 15.2791 209.007 15.2791 209.037 15.2791C209.081 15.2791 209.126 15.2791 209.179 15.2791C209.515 15.2791 209.792 15.3243 210.016 15.3921H210.024C210.839 15.6407 211.018 16.251 210.996 16.8009Z" fill="#A6E200"></path> <path d="M211.076 19.94C211.132 20.0445 211.156 20.166 211.131 20.2822L210.886 21.4039C210.843 21.6016 210.668 21.7425 210.465 21.7425H210.317C210.044 21.7425 209.962 21.553 210.219 21.4597C210.225 21.4574 210.229 21.4562 210.229 21.4562C210.229 21.4562 211.195 21.0395 209.93 19.4036C209.922 19.3433 209.93 19.2487 209.93 19.1885C210.266 19.3768 210.61 19.4974 210.909 19.5803C210.968 19.7296 211.028 19.8517 211.076 19.94Z" fill="#66AA66"></path> <path d="M209.993 19.5121C209.821 19.1677 209.642 19.0387 209.44 18.8729C209.163 18.6544 208.954 18.4058 208.782 18.1497C209.096 18.6243 209.778 18.8018 209.933 19.1969C209.933 19.2572 210.553 20.1579 209.993 19.5121Z" fill="#66AA66"></path> <path d="M210.902 19.5805C210.603 19.4976 210.259 19.377 209.922 19.1887C209.922 18.7291 210.094 18.2017 210.737 17.8552C210.737 17.8552 210.737 17.8476 210.745 17.8401C210.565 18.5182 210.73 19.1586 210.902 19.5805Z" fill="#66AA66"></path> <path d="M210.993 16.8007C210.986 17.0343 210.941 17.2452 210.888 17.426C210.888 17.426 210.888 17.426 210.888 17.4336C210.874 17.4712 210.859 17.5089 210.844 17.5466C210.799 17.6445 210.769 17.7425 210.746 17.8404C210.739 17.8555 210.739 17.8555 210.739 17.8555C210.096 18.2021 209.924 18.7294 209.931 19.1966C209.513 18.963 209.094 18.6315 208.78 18.1493C208.772 18.1418 208.765 18.1342 208.765 18.1192C208.727 18.0664 208.698 18.0062 208.668 17.9459C209.371 16.9514 208.302 15.3443 208.302 15.3443C208.302 15.3443 208.324 15.3315 208.361 15.3315C208.369 15.3315 208.383 15.3315 208.391 15.324C208.585 15.3014 208.765 15.2863 208.937 15.2788H208.944C210.23 15.2637 210.971 15.9493 210.993 16.8007Z" fill="#66AA66"></path> <path d="M208.271 18.3229C207.897 18.5565 207.329 18.7147 206.484 18.7222C206.716 17.14 206.88 15.5421 206.88 15.5421C207.246 15.5798 207.725 15.5353 208.301 15.3469C208.271 15.4298 207.83 17.0346 208.271 18.3229Z" fill="#EA6766"></path> <path d="M208.676 17.952C208.579 18.0876 208.437 18.2178 208.265 18.3233C207.824 17.035 208.274 15.4359 208.297 15.353C208.289 15.4058 208.177 15.9651 208.267 16.6809V16.6884C208.334 17.1932 208.489 17.6054 208.676 17.952Z" fill="#EA6766"></path> <path d="M208.234 16.6659C208.144 15.9426 208.279 15.3998 208.302 15.3445C208.302 15.3445 209.445 17.0418 208.658 17.9593C208.471 17.6127 208.293 17.1631 208.234 16.6659Z" fill="#66AA66"></path> <path d="M210.855 17.5388C210.87 17.5011 210.885 17.4635 210.9 17.4258C210.84 17.6292 210.78 17.7799 210.758 17.8326C210.78 17.7422 210.81 17.6443 210.855 17.5388Z" fill="#66D2FF"></path> <path d="M210.994 16.8081C211.002 17.004 210.964 17.2149 210.89 17.4259C210.942 17.2526 210.987 17.0341 210.994 16.8081Z" fill="#FFBD00"></path> <path d="M211.762 19.6644C211.78 19.6956 211.756 19.736 211.721 19.733C211.577 19.7207 211.273 19.6854 210.904 19.5883C210.732 19.1664 210.567 18.526 210.747 17.8404C210.769 17.7877 210.829 17.637 210.889 17.4336C210.889 17.4336 210.889 17.4336 210.889 17.4261C210.964 17.2151 210.994 17.0041 210.994 16.8083V16.8007C211.016 16.2507 210.837 15.6405 210.021 15.3918C210.665 15.5727 211.248 16.0096 211.248 16.9891C211.248 18.615 211.628 19.4282 211.762 19.6644Z" fill="#66D2FF"></path> <path d="M210.996 16.8009C210.974 15.9495 210.234 15.2639 208.947 15.279H208.94C208.775 15.2865 208.588 15.3016 208.394 15.3242C208.424 15.3167 208.454 15.3167 208.491 15.3091C208.506 15.3091 208.514 15.3091 208.529 15.3016C208.544 15.3016 208.566 15.3016 208.588 15.2941C208.633 15.2865 208.686 15.2865 208.745 15.279C208.768 15.279 208.79 15.279 208.813 15.2715C208.828 15.2715 208.835 15.2715 208.85 15.2715C208.91 15.2715 208.97 15.2639 209.03 15.2639C209.075 15.2639 209.119 15.2639 209.172 15.2639C209.433 15.2715 209.733 15.3016 210.009 15.3769H210.017C210.839 15.6406 211.019 16.2509 210.996 16.8009Z" fill="#66D2FF"></path> <path fill-rule="evenodd" clip-rule="evenodd" d="M205.941 13.772C205.941 13.772 205.574 13.885 205.41 14.1261C205.417 14.1035 205.477 13.8474 205.395 13.7645C205.387 13.757 203.256 14.2768 203.256 15.859C203.256 17.735 204.356 18.4959 204.4 18.526C202.213 15.2646 205.458 14.6674 205.649 14.6323L205.65 14.6322L205.652 14.635C204.408 15.6519 204.273 17.0655 204.311 17.8781C204.311 17.6672 204.333 17.4713 204.378 17.2829C204.46 16.5973 204.729 15.8288 205.492 15.5501C205.746 15.3316 205.933 15.2186 205.933 15.2186H205.941C205.85 14.9792 205.674 14.6739 205.652 14.635L205.657 14.6309C205.655 14.6312 205.653 14.6316 205.65 14.6322L205.649 14.6309C205.649 14.6309 206.023 14.1337 205.941 13.772ZM204.7 14.4425C204.7 14.4425 205.006 13.9829 205.343 13.8624C205.35 13.8624 205.402 14.4124 204.7 14.4425ZM205.859 13.9076C205.604 14.0432 205.507 14.322 205.507 14.322C205.715 14.2647 205.817 14.0088 205.848 13.9305C205.854 13.916 205.857 13.9076 205.859 13.9076Z" fill="#66D2FF"></path> <path d="M204.313 17.8781C204.313 18.089 204.343 18.3 204.395 18.526C202.167 15.2035 205.577 14.6459 205.651 14.6309C204.41 15.648 204.268 17.0568 204.313 17.8781Z" fill="#66D2FF"></path> <path d="M204.401 18.5259C204.341 18.2998 204.318 18.0814 204.318 17.8779C204.341 18.2622 204.401 18.5108 204.401 18.5259Z" fill="#00B4FF"></path> <path d="M204.696 14.4427C204.696 14.4427 205.002 13.9831 205.339 13.8625C205.346 13.8625 205.399 14.4125 204.696 14.4427Z" fill="#5AC8F6"></path> <path d="M205.845 13.908C205.845 13.908 205.74 14.2621 205.493 14.3223C205.501 14.3223 205.598 14.0436 205.845 13.908Z" fill="#5AC8F6"></path> <path d="M216.704 18.1347C216.277 18.1347 215.87 18.3283 215.623 18.7422C215.436 18.355 215.076 18.1347 214.608 18.1347C214.208 18.1347 213.847 18.2949 213.587 18.7021V18.2148H213.146V21.5524H213.587V19.7034C213.587 18.8757 214.068 18.562 214.548 18.562C215.022 18.562 215.329 18.8757 215.329 19.4698V21.5524H215.77V19.7034C215.77 18.8757 216.184 18.562 216.698 18.562C217.172 18.562 217.512 18.8757 217.512 19.4698V21.5524H217.953V19.4698C217.953 18.6354 217.439 18.1347 216.704 18.1347Z" fill="#8392B8"></path> <path d="M221.675 18.2148V18.869C221.395 18.4218 220.921 18.1347 220.327 18.1347C219.385 18.1347 218.604 18.8957 218.604 19.8836C218.604 20.8716 219.385 21.6325 220.327 21.6325C220.921 21.6325 221.395 21.3455 221.675 20.8983V21.5524H222.116V18.2148H221.675ZM220.36 21.2053C219.619 21.2053 219.045 20.6246 219.045 19.8836C219.045 19.1427 219.619 18.562 220.36 18.562C221.101 18.562 221.675 19.1427 221.675 19.8836C221.675 20.6246 221.101 21.2053 220.36 21.2053Z" fill="#8392B8"></path> <path d="M224.817 18.6421V18.2148H223.856V17.2803L223.416 17.4138V18.2148H222.715V18.6421H223.416V20.6646C223.416 21.4657 223.916 21.6859 224.817 21.5524V21.1653C224.17 21.192 223.856 21.2387 223.856 20.6646V18.6421H224.817Z" fill="#8392B8"></path> <path d="M225.772 17.5073C225.952 17.5073 226.092 17.3604 226.092 17.1869C226.092 17.0133 225.952 16.8665 225.772 16.8665C225.592 16.8665 225.452 17.0133 225.452 17.1869C225.452 17.3604 225.592 17.5073 225.772 17.5073ZM225.552 21.5524H225.992V18.2148H225.552V21.5524Z" fill="#8392B8"></path> </g> <rect opacity="0.3" x="170.481" y="40.8445" width="89.1174" height="2.87476" rx="1.43738" fill="#8392B8"></rect> <rect opacity="0.3" x="181.98" y="47.7441" width="66.1194" height="2.87476" rx="1.43738" fill="#8392B8"></rect> <rect opacity="0.5" x="150.356" y="211.03" width="12.074" height="2.2998" rx="1.1499" fill="#8392B8"></rect> <rect opacity="0.3" x="181.405" y="211.03" width="20.1233" height="2.2998" rx="1.1499" fill="#8392B8"></rect> <rect opacity="0.3" x="224.525" y="211.03" width="23.573" height="2.2998" rx="1.1499" fill="#8392B8"></rect> <rect opacity="0.3" x="265.918" y="211.03" width="13.7988" height="2.2998" rx="1.1499" fill="#8392B8"></rect> <rect opacity="0.3" x="201.524" y="188.032" width="26.4478" height="3.44971" rx="1.72485" fill="white"></rect> <rect opacity="0.2" x="179.682" y="32.2205" width="70.719" height="4.02466" rx="2.01233" fill="#232939"></rect> <rect opacity="0.2" x="162.785" y="140.311" width="39.6716" height="2.87476" rx="1.43738" fill="#232939"></rect> <rect opacity="0.2" x="234.3" y="133.412" width="43.6963" height="2.87476" rx="1.43738" fill="#232939"></rect> <rect opacity="0.2" x="234.3" y="140.311" width="43.6963" height="2.87476" rx="1.43738" fill="#232939"></rect> <path d="M191.256 82.9768C193.581 86.4534 194.321 90.9901 194.111 95.1371C194.019 96.9572 193.528 98.5125 193.051 100.027C192.156 102.865 191.308 105.558 193.337 109.521C194.512 109.962 195.564 110.357 196.014 111.411C198.078 108.656 199.301 105.233 199.301 101.525C199.301 99.4028 198.901 97.3747 198.172 95.5122C197.415 93.5767 196.303 91.8199 194.918 90.3218C194.837 90.2336 194.842 90.0959 194.93 90.0143C195.018 89.9327 195.156 89.9381 195.238 90.0263C196.661 91.5655 197.802 93.3686 198.578 95.3533C199.327 97.2665 199.738 99.3484 199.738 101.525C199.738 105.498 198.371 109.151 196.082 112.04C192.944 116 188.242 118.346 183.194 118.459C183.066 118.462 182.937 118.464 182.809 118.464C177.569 118.464 172.67 116.059 169.456 111.938C167.215 109.065 165.88 105.451 165.88 101.525C165.88 97.2917 167.447 93.2427 170.299 90.1144C170.492 89.9023 170.814 90.1962 170.621 90.4083C167.84 93.459 166.317 97.3967 166.317 101.525C166.317 105.303 167.586 108.784 169.721 111.566C170.146 110.569 171.097 110.101 172.194 109.652C175.334 103.545 171.789 100.699 171.507 95.1371C171.297 90.9901 172.037 86.4534 174.363 82.9768C178.608 76.6305 187.01 76.6305 191.256 82.9768ZM170.039 111.967C173.171 115.797 177.817 118.016 182.774 118.026V117.342C182.021 115.862 179.696 111.448 177.657 112.062C177.067 112.24 177.03 111.674 177.154 111.182C177.264 110.624 177.564 109.889 177.657 109.721C177.827 109.414 177.49 109.165 177.088 108.943C176.72 108.739 176.032 108.459 175.84 108.118C174.929 109.025 173.792 109.481 172.744 109.901C171.495 110.401 170.381 110.848 170.039 111.967ZM178.003 105.668C178.21 105.609 178.177 105.629 178.306 105.452C179 104.494 179.285 103.494 179.305 102.286C179.308 102.168 179.312 102.164 179.116 102.012C176.498 99.9715 175.117 96.5272 175.075 93.2831C175.071 92.9965 175.507 92.9914 175.51 93.2779C175.549 96.3048 177.048 100.213 179.74 101.975C180.635 102.56 181.661 102.908 182.809 102.908C187.018 102.815 190.239 98.0745 190.224 93.9201C190.224 92.3565 189.948 90.888 189.419 89.6094C188.901 88.3567 188.142 87.2855 187.162 86.4862C186.524 85.9646 186.361 85.908 185.919 86.7034C183.561 90.9534 178.543 91.7808 175.167 92.3375C174.411 92.4622 173.916 92.8965 173.758 93.6557C173.7 93.9365 173.273 93.8477 173.331 93.5668C173.525 92.6329 174.163 92.061 175.097 91.907C178.389 91.3641 183.283 90.5573 185.539 86.4915C186.122 85.4394 186.586 85.4526 187.437 86.1479C188.474 86.9942 189.277 88.1244 189.822 89.4437C190.373 90.7765 190.661 92.3015 190.661 93.9201C190.661 96.8738 189.338 99.859 187.02 101.709C186.875 101.824 186.847 101.815 186.851 102.051C186.873 103.409 187.243 104.599 188.059 105.688C188.842 105.93 189.591 106.534 189.998 107.25C190.602 108.313 191.625 108.85 192.738 109.292C190.898 105.403 191.744 102.719 192.634 99.8955C193.104 98.4055 193.586 96.8754 193.675 95.1166C193.88 91.0631 193.167 86.6175 190.894 83.2194C186.821 77.1319 178.797 77.1319 174.724 83.2194C172.451 86.6175 171.738 91.0631 171.943 95.1166C172.217 100.541 175.654 103.385 172.801 109.408C173.774 109.016 174.893 108.645 175.607 107.733C176.325 106.817 176.91 106.029 178.003 105.668ZM176.416 108.084C176.685 108.262 177.14 108.473 177.298 108.56C177.901 108.894 178.391 109.294 178.039 109.931C177.956 110.083 177.684 110.751 177.582 111.266C177.53 111.491 177.446 111.649 177.761 111.591C179.778 111.222 181.946 114.728 182.774 116.256C182.774 115.589 182.792 115.021 182.76 114.355C182.72 113.523 182.628 112.851 182.379 112.233C182.099 111.538 181.614 110.897 180.77 110.152C180.716 110.104 180.617 110.021 180.5 109.923C179.64 109.203 177.784 107.648 177.801 106.202C177.202 106.461 176.565 107.048 176.276 107.637C176.155 107.882 176.197 107.938 176.416 108.084ZM183.211 118.021C188.103 117.904 192.651 115.634 195.698 111.82C195.32 110.549 193.789 110.172 192.648 109.725C191.773 109.382 190.871 108.957 190.13 108.176C189.935 108.55 189.51 108.833 189.111 109.098C188.703 109.369 188.331 109.616 188.42 109.805C188.619 110.23 188.836 110.681 188.913 111.147C188.988 111.605 188.902 111.991 188.434 112.068C185.844 112.495 184.027 115.019 183.211 117.349V118.021ZM183.211 116.239C184.208 114.109 185.931 112.039 188.364 111.637C188.82 111.507 188.15 110.256 188.026 109.99C187.778 109.46 188.299 109.114 188.871 108.734C189.445 108.352 190.04 108.09 189.622 107.434C189.294 106.918 188.753 106.443 188.193 106.202C188.21 107.647 186.354 109.203 185.494 109.923C185.378 110.021 185.279 110.104 185.224 110.152C184.38 110.897 183.895 111.538 183.615 112.233C183.368 112.845 183.276 113.51 183.235 114.332C183.204 114.959 183.211 115.61 183.211 116.239ZM182.997 112.744C183.053 112.512 183.122 112.289 183.211 112.07C183.517 111.311 184.037 110.619 184.936 109.825C185.021 109.75 185.11 109.676 185.214 109.588C186.074 108.868 188.006 107.249 187.732 105.979C186.868 104.837 186.458 103.584 186.418 102.154C185.29 102.913 184.042 103.345 182.809 103.345C181.757 103.345 180.708 103.02 179.737 102.432C179.864 103.632 178.938 105.912 178.237 106.171C178.178 107.408 179.963 108.904 180.78 109.588C180.885 109.676 180.973 109.75 181.058 109.825C181.957 110.619 182.478 111.311 182.784 112.07C182.872 112.289 182.942 112.512 182.997 112.744ZM175.235 90.7489C175.064 90.7684 175.034 90.5081 175.205 90.4885C176.912 90.2915 178.974 89.8739 180.302 88.7155C180.431 88.6024 180.603 88.7992 180.474 88.9123C179.099 90.1119 177.003 90.5448 175.235 90.7489Z" fill="#8392B8"></path> <path d="M259.571 81.748C259.177 81.6642 259.302 81.1757 259.674 81.2252C261.346 81.4316 262.086 82.6255 262.086 83.5351V87.4982C262.086 87.8668 261.526 87.8668 261.526 87.4982V83.5351C261.521 82.931 261.111 81.9791 259.571 81.748V81.748ZM247.65 109.809L246.264 110.069C246.193 110.45 245.874 110.778 245.492 110.849C245.127 110.918 244.775 110.735 244.668 110.369L243.265 110.632V111.49C243.265 111.631 243.354 111.721 243.498 111.694L247.315 110.978C247.496 110.944 247.65 110.746 247.65 110.563V109.809L247.65 109.809ZM246.248 109.693L247.65 109.43V108.572C247.65 108.431 247.562 108.341 247.417 108.368L243.601 109.083C243.419 109.118 243.265 109.316 243.265 109.499V110.252L244.651 109.992C244.723 109.612 245.042 109.284 245.423 109.213C245.791 109.144 246.141 109.329 246.248 109.693V109.693ZM245.492 109.579C245.232 109.628 245.01 109.883 245.01 110.15C245.01 110.388 245.193 110.526 245.423 110.483C245.683 110.434 245.906 110.178 245.906 109.912C245.906 109.676 245.724 109.535 245.492 109.579ZM243.498 108.534L247.315 107.818C247.803 107.727 248.21 108.085 248.21 108.572V110.563C248.21 111.015 247.864 111.444 247.417 111.528L243.601 112.243C243.118 112.334 242.705 111.984 242.705 111.49V109.499C242.705 109.046 243.052 108.618 243.498 108.534L243.498 108.534ZM240.433 101.719L242.103 101.405C241.824 100.578 241.701 99.6892 241.691 98.8181L239.749 99.182C239.756 100.076 239.967 100.95 240.433 101.718V101.719ZM242.287 101.371L244.354 100.983C244.274 100.198 244.228 99.3017 244.225 98.3431L241.877 98.7832C241.884 99.6546 242.006 100.544 242.287 101.371ZM244.538 100.949L246.374 100.605C246.454 99.7917 246.501 98.8778 246.504 97.9158L244.411 98.3081C244.414 99.2681 244.459 100.165 244.538 100.949H244.538ZM246.565 100.569L248.617 100.184C248.876 99.3384 249.027 98.4046 249.038 97.4408L246.691 97.8808C246.688 98.8396 246.643 99.7529 246.565 100.569ZM248.823 100.146L250.433 99.8438C250.877 98.9685 251.14 98.0123 251.164 97.0421L249.225 97.4057C249.218 98.3651 249.074 99.2967 248.823 100.146ZM250.322 100.054L248.761 100.347C248.441 101.349 247.923 102.372 247.179 103.125C248.497 102.451 249.609 101.352 250.322 100.054H250.322ZM248.553 100.386L246.546 100.762C246.456 101.624 246.297 102.847 245.926 103.616C246.153 103.553 246.376 103.478 246.594 103.391C247.54 102.684 248.185 101.493 248.553 100.386V100.386ZM246.355 100.798L244.557 101.135C244.633 101.825 244.804 103.208 245.206 103.771C245.373 103.745 245.538 103.713 245.701 103.674C246.082 103.023 246.27 101.589 246.355 100.798L246.355 100.798ZM244.373 101.169L242.351 101.548C242.702 102.486 243.345 103.487 244.331 103.836C244.555 103.837 244.78 103.824 245.004 103.798C244.612 103.158 244.456 101.916 244.373 101.169ZM242.165 101.583L240.541 101.888C241.295 103.015 242.492 103.679 243.838 103.812C243.025 103.334 242.484 102.448 242.165 101.583ZM240.594 95.98L242.154 95.6875C242.474 94.6852 242.992 93.6621 243.737 92.9089C242.419 93.5832 241.306 94.6823 240.594 95.98H240.594ZM242.363 95.6484L244.37 95.2721C244.46 94.4101 244.619 93.1872 244.989 92.4185C244.762 92.4814 244.539 92.5568 244.321 92.6437C243.375 93.3502 242.731 94.5408 242.363 95.6484ZM244.561 95.2363L246.358 94.8993C246.283 94.2088 246.112 92.8267 245.709 92.2637C245.543 92.2891 245.378 92.3215 245.214 92.3604C244.834 93.0117 244.645 94.4456 244.561 95.2363L244.561 95.2363ZM246.542 94.8649L248.564 94.4858C248.214 93.5482 247.571 92.5469 246.585 92.198C246.36 92.1971 246.135 92.2103 245.912 92.2364C246.304 92.8762 246.46 94.1185 246.542 94.8649ZM248.75 94.451L250.375 94.1464C249.621 93.0197 248.423 92.3551 247.078 92.2227C247.891 92.6999 248.432 93.5862 248.75 94.451ZM250.483 94.3157L248.813 94.6288C248.919 94.9456 249.007 95.284 249.074 95.6408C249.166 96.1342 249.218 96.6622 249.225 97.2161L251.166 96.8522C251.16 95.9587 250.948 95.0845 250.483 94.3157ZM248.628 94.6635L246.562 95.0508C246.641 95.8362 246.687 96.7325 246.691 97.6912L249.038 97.2511C249.034 96.6946 248.983 96.1663 248.891 95.6751C248.824 95.3174 248.736 94.979 248.628 94.6635H248.628ZM246.378 95.0853L244.541 95.4296C244.461 96.2426 244.415 97.1565 244.412 98.1185L246.504 97.7262C246.502 96.7662 246.456 95.8696 246.378 95.0853H246.378ZM244.35 95.4654L242.298 95.8501C242.039 96.6959 241.888 97.6297 241.877 98.5935L244.225 98.1535C244.227 97.1947 244.272 96.2813 244.35 95.4654ZM242.092 95.8887L240.482 96.1905C240.038 97.0658 239.775 98.022 239.751 98.9921L241.69 98.6286C241.698 97.6692 241.842 96.7376 242.092 95.8887ZM251.726 96.8945C251.726 97.9625 251.458 99.0174 250.987 99.9836C249.937 102.134 247.878 103.842 245.509 104.286C243.122 104.734 241.031 103.784 239.956 102.012C239.468 101.207 239.189 100.231 239.189 99.1398C239.189 98.1018 239.442 97.0762 239.889 96.1325C240.924 93.949 242.993 92.2104 245.384 91.7521C248.787 91.0998 251.726 93.3435 251.726 96.8945H251.726ZM266.638 88.1139C272.789 88.1139 277.775 93.1052 277.775 99.2624C277.775 105.42 272.789 110.411 266.638 110.411C260.487 110.411 255.5 105.42 255.5 99.2624C255.5 93.1052 260.487 88.1139 266.638 88.1139ZM266.638 88.6744C260.796 88.6744 256.06 93.4147 256.06 99.2624C256.06 105.11 260.796 109.85 266.638 109.85C272.48 109.85 277.215 105.11 277.215 99.2624C277.215 93.4147 272.48 88.6744 266.638 88.6744ZM259.741 99.5426C259.373 99.5426 259.373 98.9821 259.741 98.9821H273.535C273.903 98.9821 273.903 99.5426 273.535 99.5426H259.741ZM269.654 94.4926C269.286 94.4926 269.286 93.9321 269.654 93.9321C270.925 93.9321 271.963 94.9714 271.963 96.2428C271.963 96.6115 271.403 96.6115 271.403 96.2428C271.403 95.2808 270.615 94.4926 269.654 94.4926ZM271.403 102.282C271.403 101.913 271.963 101.913 271.963 102.282C271.963 103.553 270.925 104.593 269.654 104.593C269.286 104.593 269.286 104.032 269.654 104.032C270.616 104.032 271.403 103.244 271.403 102.282ZM263.621 104.032C263.989 104.032 263.989 104.593 263.621 104.593C262.351 104.593 261.313 103.553 261.313 102.282C261.313 101.913 261.873 101.913 261.873 102.282C261.873 103.244 262.66 104.032 263.621 104.032ZM261.873 96.2428C261.873 96.6115 261.313 96.6115 261.313 96.2428C261.313 94.9714 262.351 93.9321 263.621 93.9321C263.989 93.9321 263.989 94.4926 263.621 94.4926C262.66 94.4926 261.873 95.2808 261.873 96.2428ZM240.197 85.9509C239.835 86.007 239.749 85.4553 240.112 85.3991L250.699 83.7265C251.061 83.6704 251.146 84.2222 250.784 84.2783L240.197 85.9509ZM242.669 87.527C242.307 87.5831 242.221 87.0314 242.584 86.9752L247.853 86.1427C248.215 86.0865 248.301 86.6383 247.938 86.6944L242.669 87.527ZM256.999 108.212C256.999 107.843 257.559 107.843 257.559 108.212V112.86C257.559 114.031 256.631 115.126 255.47 115.295L238.462 117.759H259.589C260.555 117.759 261.526 117.068 261.526 116.041V111.814C261.526 111.445 262.086 111.445 262.086 111.814V116.041C262.086 117.38 260.865 118.32 259.589 118.32H236.796C235.349 118.32 234.298 117.541 234.298 116.149V83.4274C234.298 82.257 235.227 81.1609 236.388 80.9924L255.391 78.239C256.584 78.0659 257.559 78.9384 257.559 80.1377V90.2961C257.559 90.6648 256.999 90.6648 256.999 90.2961V80.1377C256.999 79.2768 256.328 78.6682 255.47 78.7929L236.467 81.5463C235.579 81.6752 234.858 82.5339 234.858 83.4274V116.149C234.858 117.307 235.779 117.583 236.75 117.442L255.391 114.741C256.279 114.612 256.999 113.754 256.999 112.86V108.212L256.999 108.212Z" fill="#8392B8"></path> <defs> <filter id="filter0_d" x="302.125" y="39.8262" width="168.337" height="235.089" filterUnits="userSpaceOnUse" color-interpolation-filters="sRGB"> <feFlood flood-opacity="0" result="BackgroundImageFix"></feFlood> <feColorMatrix in="SourceAlpha" type="matrix" values="0 0 0 0 0 0 0 0 0 0 0 0 0 0 0 0 0 0 127 0"></feColorMatrix> <feOffset dx="4" dy="4"></feOffset> <feGaussianBlur stdDeviation="5"></feGaussianBlur> <feColorMatrix type="matrix" values="0 0 0 0 0 0 0 0 0 0 0 0 0 0 0 0 0 0 0.1 0"></feColorMatrix> <feBlend mode="normal" in2="BackgroundImageFix" result="effect1_dropShadow"></feBlend> <feBlend mode="normal" in="SourceGraphic" in2="effect1_dropShadow" result="shape"></feBlend> </filter> <filter id="filter1_d" x="134.582" y="0.347656" width="168.337" height="235.089" filterUnits="userSpaceOnUse" color-interpolation-filters="sRGB"> <feFlood flood-opacity="0" result="BackgroundImageFix"></feFlood> <feColorMatrix in="SourceAlpha" type="matrix" values="0 0 0 0 0 0 0 0 0 0 0 0 0 0 0 0 0 0 127 0"></feColorMatrix> <feOffset dx="4" dy="4"></feOffset> <feGaussianBlur stdDeviation="5"></feGaussianBlur> <feColorMatrix type="matrix" values="0 0 0 0 0 0 0 0 0 0 0 0 0 0 0 0 0 0 0.1 0"></feColorMatrix> <feBlend mode="normal" in2="BackgroundImageFix" result="effect1_dropShadow"></feBlend> <feBlend mode="normal" in="SourceGraphic" in2="effect1_dropShadow" result="shape"></feBlend> </filter> <clipPath id="clip0"> <rect y="22.7168" width="493" height="323.531" fill="white"></rect> </clipPath> </defs> </svg> 